{"glyphs":{"0":{"ha":982,"x_min":49,"x_max":933,"o":"m 490 -19 q 305 24 386 -19 q 166 144 224 67 q 78 322 108 221 q 49 539 49 424 q 78 755 49 654 q 166 933 108 856 q 305 1053 224 1010 q 490 1096 386 1096 q 676 1053 594 1096 q 816 933 758 1010 q 903 756 874 857 q 933 539 933 654 q 903 322 933 424 q 815 144 872 221 q 676 24 758 67 q 490 -19 594 -19 m 489 92 q 652 151 585 92 q 755 313 719 211 q 790 539 790 415 q 755 765 790 664 q 652 925 719 865 q 489 985 585 985 q 328 925 394 985 q 226 765 261 865 q 192 539 192 664 q 226 313 192 414 q 328 151 261 211 q 489 92 394 92 m 490 647 l 599 539 l 490 431 l 382 539 l 490 647 z "},"1":{"ha":376,"x_min":42,"x_max":307,"o":"m 150 308 l 150 713 q 141 824 150 788 q 108 872 132 861 q 42 883 85 883 l 42 892 l 282 1083 l 282 308 q 285 153 282 231 q 307 0 289 75 l 125 0 q 147 153 143 75 q 150 308 150 231 z "},"2":{"ha":872,"x_min":49,"x_max":789,"o":"m 60 950 q 117 1006 76 971 q 228 1068 158 1040 q 399 1096 299 1096 q 586 1054 508 1096 q 705 942 664 1013 q 746 783 746 871 q 709 637 746 710 q 606 485 672 564 q 449 314 539 406 q 253 111 358 222 l 488 111 q 617 116 564 111 q 710 133 669 121 q 789 164 751 144 l 756 0 l 49 0 l 49 64 l 297 347 q 350 404 315 368 q 425 487 385 440 q 503 585 465 533 q 564 686 540 636 q 588 779 588 736 q 535 931 588 876 q 388 985 483 985 q 245 937 315 985 q 122 794 175 889 l 118 794 l 60 950 z "},"3":{"ha":856,"x_min":56,"x_max":793,"o":"m 499 625 q 655 569 589 614 q 757 456 721 525 q 793 301 793 388 q 743 138 793 211 q 608 23 693 65 q 415 -19 522 -19 q 276 -1 344 -19 q 151 53 208 18 q 56 133 93 88 l 149 285 l 153 285 q 259 143 189 194 q 415 92 329 92 q 585 149 519 92 q 650 300 650 207 q 618 428 650 374 q 533 513 586 482 q 414 543 479 543 q 351 538 386 543 q 285 518 317 532 l 275 526 l 569 965 l 369 965 q 244 960 294 965 q 157 944 194 956 q 82 913 119 932 l 101 1076 l 763 1076 l 763 1013 l 499 625 z "},"4":{"ha":925,"x_min":56,"x_max":883,"o":"m 883 272 q 787 289 836 283 q 688 296 738 294 q 692 147 688 221 q 713 0 696 72 l 503 0 q 540 77 529 39 q 553 168 550 115 q 556 299 556 221 l 56 299 l 56 363 l 688 1083 l 688 408 q 787 417 738 411 q 883 433 836 422 l 883 272 m 253 406 l 556 406 l 556 757 l 253 406 z "},"5":{"ha":883,"x_min":83,"x_max":821,"o":"m 821 318 q 771 142 821 218 q 635 23 721 65 q 443 -19 550 -19 q 305 -1 374 -19 q 178 53 236 18 q 83 133 121 88 l 176 285 l 181 285 q 281 143 217 194 q 443 92 346 92 q 559 119 506 92 q 645 197 613 146 q 678 317 678 247 q 651 435 678 382 q 571 522 624 489 q 440 554 518 554 q 344 541 388 554 q 271 512 300 528 q 232 486 242 496 l 104 486 l 169 1076 l 725 1076 l 751 913 q 672 947 711 936 q 581 960 632 957 q 454 964 531 964 l 282 964 l 244 604 q 331 646 278 626 q 456 665 383 665 q 646 620 564 665 q 774 497 728 575 q 821 318 821 419 z "},"6":{"ha":833,"x_min":49,"x_max":785,"o":"m 415 -19 q 214 29 296 -19 q 90 165 132 78 q 49 367 49 253 q 90 611 49 499 q 199 816 132 724 q 340 978 267 908 q 405 1046 389 1026 q 428 1076 421 1065 l 647 1076 l 647 1071 q 562 1017 597 1044 q 494 961 526 989 q 384 851 439 911 q 285 725 329 792 q 218 589 242 658 q 310 646 257 625 q 415 667 363 667 q 615 622 533 667 q 741 501 697 576 q 785 332 785 425 q 735 144 785 224 q 603 23 686 65 q 415 -19 519 -19 m 414 92 q 534 116 479 92 q 622 194 589 140 q 656 332 656 247 q 625 448 656 397 q 540 527 594 499 q 414 556 486 556 q 290 526 343 556 q 206 447 236 497 q 176 332 176 397 q 209 200 176 254 q 296 119 242 146 q 414 92 350 92 z "},"7":{"ha":861,"x_min":69,"x_max":806,"o":"m 806 1076 l 806 1011 l 499 281 q 445 142 474 211 q 406 0 417 74 l 203 0 q 269 111 239 53 q 329 229 300 169 l 651 965 l 357 965 q 232 960 282 965 q 144 944 182 956 q 69 913 107 932 l 89 1076 l 806 1076 z "},"8":{"ha":849,"x_min":49,"x_max":800,"o":"m 424 -19 q 231 21 315 -19 q 97 134 146 61 q 49 304 49 207 q 92 462 49 394 q 211 567 135 529 q 127 667 157 607 q 97 796 97 728 q 139 944 97 876 q 254 1054 181 1013 q 424 1096 328 1096 q 594 1054 521 1096 q 710 944 668 1013 q 751 796 751 876 q 722 667 751 728 q 638 567 692 607 q 757 462 714 529 q 800 304 800 394 q 751 134 800 207 q 618 21 703 61 q 424 -19 533 -19 m 422 611 q 565 666 514 611 q 615 796 615 721 q 592 890 615 847 q 526 958 569 932 q 422 985 483 985 q 320 958 363 985 q 256 890 278 932 q 233 796 233 847 q 283 666 233 721 q 422 611 332 611 m 422 92 q 593 147 529 92 q 657 304 657 201 q 595 452 657 404 q 422 500 533 500 q 252 452 313 500 q 192 304 192 404 q 254 146 192 200 q 422 92 317 92 z "},"9":{"ha":833,"x_min":49,"x_max":785,"o":"m 418 1096 q 619 1047 538 1096 q 743 912 701 999 q 785 710 785 825 q 743 466 785 579 q 635 260 701 353 q 493 99 568 168 q 429 31 446 51 q 406 0 413 11 l 186 0 l 186 6 q 272 60 236 32 q 339 115 308 88 q 449 225 394 165 q 547 351 503 285 q 614 485 592 417 q 531 430 579 450 q 418 410 482 410 q 225 455 308 410 q 95 576 142 500 q 49 744 49 653 q 98 932 49 853 q 231 1053 147 1011 q 418 1096 315 1096 m 419 985 q 300 960 356 985 q 211 883 244 936 q 178 744 178 831 q 208 628 178 679 q 294 549 239 578 q 419 521 349 521 q 544 550 492 521 q 627 630 597 579 q 657 744 657 681 q 624 877 657 824 q 538 958 592 931 q 419 985 485 985 z "},"A":{"ha":1119,"x_min":14,"x_max":1106,"o":"m 489 1076 l 631 1076 l 975 243 q 1033 126 1003 182 q 1106 0 1063 69 l 910 0 q 886 98 901 44 q 835 243 871 151 l 803 319 l 317 319 l 285 243 q 234 98 250 151 q 210 0 218 44 l 14 0 q 85 119 57 65 q 139 229 114 172 l 489 1076 m 363 431 l 757 431 l 560 908 l 363 431 z "},"Á":{"ha":1119,"x_min":14,"x_max":1106,"o":"m 489 1076 l 631 1076 l 975 243 q 1033 126 1003 182 q 1106 0 1063 69 l 910 0 q 886 98 901 44 q 835 243 871 151 l 803 319 l 317 319 l 285 243 q 234 98 250 151 q 210 0 218 44 l 14 0 q 85 119 57 65 q 139 229 114 172 l 489 1076 m 363 431 l 757 431 l 560 908 l 363 431 m 588 1167 l 490 1167 l 582 1389 l 756 1389 l 588 1167 z "},"Ă":{"ha":1119,"x_min":14,"x_max":1106,"o":"m 489 1076 l 631 1076 l 975 243 q 1033 126 1003 182 q 1106 0 1063 69 l 910 0 q 886 98 901 44 q 835 243 871 151 l 803 319 l 317 319 l 285 243 q 234 98 250 151 q 210 0 218 44 l 14 0 q 85 119 57 65 q 139 229 114 172 l 489 1076 m 363 431 l 757 431 l 560 908 l 363 431 m 561 1167 q 454 1200 494 1167 q 396 1284 414 1233 q 378 1389 378 1335 l 461 1389 q 468 1331 461 1361 q 497 1278 475 1300 q 561 1257 518 1257 q 626 1278 606 1257 q 654 1331 647 1300 q 661 1389 661 1361 l 744 1389 q 726 1284 744 1335 q 668 1200 708 1233 q 561 1167 628 1167 z "},"Â":{"ha":1119,"x_min":14,"x_max":1106,"o":"m 489 1076 l 631 1076 l 975 243 q 1033 126 1003 182 q 1106 0 1063 69 l 910 0 q 886 98 901 44 q 835 243 871 151 l 803 319 l 317 319 l 285 243 q 234 98 250 151 q 210 0 218 44 l 14 0 q 85 119 57 65 q 139 229 114 172 l 489 1076 m 363 431 l 757 431 l 560 908 l 363 431 m 446 1167 l 321 1167 l 496 1389 l 625 1389 l 800 1167 l 675 1167 l 561 1332 l 446 1167 z "},"Ä":{"ha":1119,"x_min":14,"x_max":1106,"o":"m 489 1076 l 631 1076 l 975 243 q 1033 126 1003 182 q 1106 0 1063 69 l 910 0 q 886 98 901 44 q 835 243 871 151 l 803 319 l 317 319 l 285 243 q 234 98 250 151 q 210 0 218 44 l 14 0 q 85 119 57 65 q 139 229 114 172 l 489 1076 m 363 431 l 757 431 l 560 908 l 363 431 m 385 1396 l 493 1288 l 385 1179 l 276 1288 l 385 1396 m 733 1396 l 842 1288 l 733 1179 l 625 1288 l 733 1396 z "},"À":{"ha":1119,"x_min":14,"x_max":1106,"o":"m 489 1076 l 631 1076 l 975 243 q 1033 126 1003 182 q 1106 0 1063 69 l 910 0 q 886 98 901 44 q 835 243 871 151 l 803 319 l 317 319 l 285 243 q 234 98 250 151 q 210 0 218 44 l 14 0 q 85 119 57 65 q 139 229 114 172 l 489 1076 m 363 431 l 757 431 l 560 908 l 363 431 m 546 1167 l 378 1389 l 551 1389 l 643 1167 l 546 1167 z "},"Ā":{"ha":1119,"x_min":14,"x_max":1106,"o":"m 489 1076 l 631 1076 l 975 243 q 1033 126 1003 182 q 1106 0 1063 69 l 910 0 q 886 98 901 44 q 835 243 871 151 l 803 319 l 317 319 l 285 243 q 234 98 250 151 q 210 0 218 44 l 14 0 q 85 119 57 65 q 139 229 114 172 l 489 1076 m 363 431 l 757 431 l 560 908 l 363 431 m 369 1339 l 750 1339 l 750 1249 l 369 1249 l 369 1339 z "},"Ą":{"ha":1119,"x_min":14,"x_max":1256,"o":"m 489 1076 l 631 1076 l 975 243 q 1033 126 1003 182 q 1106 0 1063 69 l 910 0 q 886 98 901 44 q 835 243 871 151 l 803 319 l 317 319 l 285 243 q 234 98 250 151 q 210 0 218 44 l 14 0 q 85 119 57 65 q 139 229 114 172 l 489 1076 m 363 431 l 757 431 l 560 908 l 363 431 m 1107 0 q 986 -77 1029 -26 q 943 -192 943 -128 q 1040 -293 943 -293 q 1135 -262 1093 -293 q 1199 -178 1176 -232 l 1203 -178 l 1256 -268 q 1165 -337 1221 -312 q 1040 -361 1108 -361 q 887 -315 946 -361 q 828 -194 828 -269 q 889 -76 828 -128 q 1089 26 950 -25 l 1107 0 z "},"Å":{"ha":1119,"x_min":14,"x_max":1106,"o":"m 489 1076 l 631 1076 l 975 243 q 1033 126 1003 182 q 1106 0 1063 69 l 910 0 q 886 98 901 44 q 835 243 871 151 l 803 319 l 317 319 l 285 243 q 234 98 250 151 q 210 0 218 44 l 14 0 q 85 119 57 65 q 139 229 114 172 l 489 1076 m 363 431 l 757 431 l 560 908 l 363 431 m 560 1142 q 468 1181 506 1142 q 431 1274 431 1219 q 468 1365 431 1328 q 560 1403 506 1403 q 651 1365 614 1403 q 689 1274 689 1328 q 651 1181 689 1219 q 560 1142 614 1142 m 560 1217 q 599 1233 583 1217 q 615 1272 615 1250 q 599 1312 615 1296 q 560 1328 583 1328 q 521 1312 538 1328 q 504 1272 504 1296 q 521 1233 504 1250 q 560 1217 538 1217 z "},"Ã":{"ha":1119,"x_min":14,"x_max":1106,"o":"m 489 1076 l 631 1076 l 975 243 q 1033 126 1003 182 q 1106 0 1063 69 l 910 0 q 886 98 901 44 q 835 243 871 151 l 803 319 l 317 319 l 285 243 q 234 98 250 151 q 210 0 218 44 l 14 0 q 85 119 57 65 q 139 229 114 172 l 489 1076 m 363 431 l 757 431 l 560 908 l 363 431 m 719 1371 l 803 1371 q 769 1222 803 1276 q 667 1167 735 1167 q 592 1187 624 1167 q 538 1233 561 1207 q 495 1278 515 1258 q 454 1299 475 1299 q 401 1178 401 1299 l 318 1178 q 352 1331 318 1272 q 454 1389 386 1389 q 528 1369 497 1389 q 583 1323 560 1349 q 626 1277 606 1297 q 667 1257 646 1257 q 719 1371 719 1257 z "},"Æ":{"ha":1356,"x_min":14,"x_max":1286,"o":"m 1203 1076 l 1236 913 q 1158 944 1199 932 q 1064 960 1117 956 q 935 965 1011 965 l 783 965 l 783 606 l 901 606 q 1019 609 947 606 q 1167 631 1092 613 l 1167 469 q 1019 491 1092 488 q 901 494 947 494 l 783 494 l 783 111 l 946 111 q 1145 123 1060 111 q 1286 164 1231 135 l 1253 0 l 619 0 q 641 153 638 75 q 644 308 644 231 l 644 319 l 329 319 l 289 231 q 235 94 253 146 q 210 0 218 43 l 14 0 q 99 141 64 78 q 168 275 133 204 l 531 1076 l 1203 1076 m 379 431 l 644 431 l 644 965 l 621 965 l 379 431 z "},"B":{"ha":903,"x_min":97,"x_max":840,"o":"m 426 1076 q 549 1060 488 1076 q 664 1008 611 1043 q 749 920 717 974 q 781 792 781 867 q 750 661 781 715 q 671 572 719 607 q 792 470 744 538 q 840 306 840 403 q 811 174 840 231 q 733 78 782 117 q 622 19 683 39 q 499 0 561 0 l 97 0 q 119 153 115 75 q 122 308 122 231 l 122 768 q 119 924 122 846 q 97 1076 115 1001 l 426 1076 m 261 614 l 399 614 q 520 628 468 614 q 601 681 572 643 q 631 792 631 719 q 597 903 631 864 q 507 957 563 942 q 385 972 451 972 l 261 972 l 261 614 m 261 104 l 457 104 q 626 151 561 104 q 690 306 692 197 q 626 458 689 414 q 458 503 563 503 l 261 503 l 261 104 z "},"C":{"ha":1038,"x_min":49,"x_max":982,"o":"m 976 289 l 982 289 l 960 86 q 808 7 892 33 q 593 -19 725 -19 q 375 23 475 -19 q 202 142 275 65 q 89 319 129 218 q 49 539 49 421 q 89 758 49 657 q 203 935 129 860 q 376 1053 276 1011 q 593 1096 475 1096 q 805 1069 721 1096 q 957 990 889 1043 l 979 789 l 974 789 q 826 929 918 874 q 593 985 735 985 q 433 950 506 985 q 308 853 360 915 q 227 711 256 792 q 199 539 199 631 q 227 367 199 447 q 308 224 256 286 q 433 127 360 163 q 593 92 506 92 q 831 148 742 92 q 976 289 921 204 z "},"Ć":{"ha":1038,"x_min":49,"x_max":982,"o":"m 976 289 l 982 289 l 960 86 q 808 7 892 33 q 593 -19 725 -19 q 375 23 475 -19 q 202 142 275 65 q 89 319 129 218 q 49 539 49 421 q 89 758 49 657 q 203 935 129 860 q 376 1053 276 1011 q 593 1096 475 1096 q 805 1069 721 1096 q 957 990 889 1043 l 979 789 l 974 789 q 826 929 918 874 q 593 985 735 985 q 433 950 506 985 q 308 853 360 915 q 227 711 256 792 q 199 539 199 631 q 227 367 199 447 q 308 224 256 286 q 433 127 360 163 q 593 92 506 92 q 831 148 742 92 q 976 289 921 204 m 621 1167 l 524 1167 l 615 1389 l 789 1389 l 621 1167 z "},"Č":{"ha":1038,"x_min":49,"x_max":982,"o":"m 976 289 l 982 289 l 960 86 q 808 7 892 33 q 593 -19 725 -19 q 375 23 475 -19 q 202 142 275 65 q 89 319 129 218 q 49 539 49 421 q 89 758 49 657 q 203 935 129 860 q 376 1053 276 1011 q 593 1096 475 1096 q 805 1069 721 1096 q 957 990 889 1043 l 979 789 l 974 789 q 826 929 918 874 q 593 985 735 985 q 433 950 506 985 q 308 853 360 915 q 227 711 256 792 q 199 539 199 631 q 227 367 199 447 q 308 224 256 286 q 433 127 360 163 q 593 92 506 92 q 831 148 742 92 q 976 289 921 204 m 479 1389 l 594 1224 l 708 1389 l 833 1389 l 658 1167 l 529 1167 l 354 1389 l 479 1389 z "},"Ç":{"ha":1038,"x_min":49,"x_max":982,"o":"m 976 289 l 982 289 l 960 86 q 808 7 892 33 q 593 -19 725 -19 q 375 23 475 -19 q 202 142 275 65 q 89 319 129 218 q 49 539 49 421 q 89 758 49 657 q 203 935 129 860 q 376 1053 276 1011 q 593 1096 475 1096 q 805 1069 721 1096 q 957 990 889 1043 l 979 789 l 974 789 q 826 929 918 874 q 593 985 735 985 q 433 950 506 985 q 308 853 360 915 q 227 711 256 792 q 199 539 199 631 q 227 367 199 447 q 308 224 256 286 q 433 127 360 163 q 593 92 506 92 q 831 148 742 92 q 976 289 921 204 m 568 -156 l 646 0 l 722 0 l 671 -94 q 797 -131 747 -93 q 847 -222 847 -169 q 788 -322 847 -283 q 635 -361 729 -361 q 419 -268 493 -361 l 472 -178 l 476 -178 q 635 -293 524 -293 q 706 -274 679 -293 q 732 -219 732 -254 q 692 -162 732 -187 q 582 -153 653 -137 l 568 -156 z "},"Ĉ":{"ha":1038,"x_min":49,"x_max":982,"o":"m 976 289 l 982 289 l 960 86 q 808 7 892 33 q 593 -19 725 -19 q 375 23 475 -19 q 202 142 275 65 q 89 319 129 218 q 49 539 49 421 q 89 758 49 657 q 203 935 129 860 q 376 1053 276 1011 q 593 1096 475 1096 q 805 1069 721 1096 q 957 990 889 1043 l 979 789 l 974 789 q 826 929 918 874 q 593 985 735 985 q 433 950 506 985 q 308 853 360 915 q 227 711 256 792 q 199 539 199 631 q 227 367 199 447 q 308 224 256 286 q 433 127 360 163 q 593 92 506 92 q 831 148 742 92 q 976 289 921 204 m 479 1167 l 354 1167 l 529 1389 l 658 1389 l 833 1167 l 708 1167 l 594 1332 l 479 1167 z "},"Ċ":{"ha":1038,"x_min":49,"x_max":982,"o":"m 976 289 l 982 289 l 960 86 q 808 7 892 33 q 593 -19 725 -19 q 375 23 475 -19 q 202 142 275 65 q 89 319 129 218 q 49 539 49 421 q 89 758 49 657 q 203 935 129 860 q 376 1053 276 1011 q 593 1096 475 1096 q 805 1069 721 1096 q 957 990 889 1043 l 979 789 l 974 789 q 826 929 918 874 q 593 985 735 985 q 433 950 506 985 q 308 853 360 915 q 227 711 256 792 q 199 539 199 631 q 227 367 199 447 q 308 224 256 286 q 433 127 360 163 q 593 92 506 92 q 831 148 742 92 q 976 289 921 204 m 593 1167 q 515 1199 547 1167 q 482 1278 482 1232 q 515 1356 482 1324 q 593 1389 547 1389 q 672 1356 639 1389 q 704 1278 704 1324 q 672 1199 704 1232 q 593 1167 639 1167 z "},"D":{"ha":1061,"x_min":97,"x_max":1013,"o":"m 463 1076 q 708 1027 604 1076 q 879 898 811 978 q 980 724 947 818 q 1013 539 1013 629 q 980 354 1013 449 q 879 179 947 260 q 708 49 811 99 q 463 0 604 0 l 97 0 q 119 153 115 75 q 122 308 122 231 l 122 768 q 119 924 122 846 q 97 1076 115 1001 l 463 1076 m 261 111 l 421 111 q 638 151 553 111 q 773 256 724 192 q 842 395 822 321 q 863 539 863 469 q 842 683 863 608 q 773 822 822 757 q 638 926 724 886 q 421 965 553 965 l 261 965 l 261 111 z "},"Ď":{"ha":1061,"x_min":97,"x_max":1013,"o":"m 463 1076 q 708 1027 604 1076 q 879 898 811 978 q 980 724 947 818 q 1013 539 1013 629 q 980 354 1013 449 q 879 179 947 260 q 708 49 811 99 q 463 0 604 0 l 97 0 q 119 153 115 75 q 122 308 122 231 l 122 768 q 119 924 122 846 q 97 1076 115 1001 l 463 1076 m 261 111 l 421 111 q 638 151 553 111 q 773 256 724 192 q 842 395 822 321 q 863 539 863 469 q 842 683 863 608 q 773 822 822 757 q 638 926 724 886 q 421 965 553 965 l 261 965 l 261 111 m 424 1389 l 539 1224 l 653 1389 l 778 1389 l 603 1167 l 474 1167 l 299 1389 l 424 1389 z "},"Đ":{"ha":1156,"x_min":28,"x_max":1107,"o":"m 557 1076 q 802 1027 699 1076 q 974 898 906 978 q 1074 724 1042 818 q 1107 539 1107 629 q 1074 354 1107 449 q 974 179 1042 260 q 802 49 906 99 q 557 0 699 0 l 192 0 q 213 153 210 75 q 217 308 217 231 l 217 501 q 124 498 164 501 q 28 483 85 494 l 28 617 q 124 602 85 606 q 217 599 164 599 l 217 768 q 213 924 217 846 q 192 1076 210 1001 l 557 1076 m 356 111 l 515 111 q 733 151 647 111 q 867 256 818 192 q 937 395 917 321 q 957 539 957 469 q 937 683 957 608 q 867 822 917 757 q 733 926 818 886 q 515 965 647 965 l 356 965 l 356 599 q 447 602 408 599 q 542 617 486 606 l 542 483 q 447 498 486 494 q 356 501 408 501 l 356 111 z "},"Ð":{"ha":1156,"x_min":28,"x_max":1107,"o":"m 557 1076 q 802 1027 699 1076 q 974 898 906 978 q 1074 724 1042 818 q 1107 539 1107 629 q 1074 354 1107 449 q 974 179 1042 260 q 802 49 906 99 q 557 0 699 0 l 192 0 q 213 153 210 75 q 217 308 217 231 l 217 501 q 124 498 164 501 q 28 483 85 494 l 28 617 q 124 602 85 606 q 217 599 164 599 l 217 768 q 213 924 217 846 q 192 1076 210 1001 l 557 1076 m 356 104 l 515 104 q 733 145 647 104 q 867 252 818 186 q 937 394 917 318 q 957 539 957 469 q 937 684 957 608 q 867 825 917 760 q 733 931 818 890 q 515 972 647 972 l 356 972 l 356 599 q 447 602 408 599 q 542 617 486 606 l 542 483 q 447 498 486 494 q 356 501 408 501 l 356 104 z "},"E":{"ha":876,"x_min":97,"x_max":807,"o":"m 724 1076 l 757 913 q 678 944 719 932 q 585 960 638 956 q 456 965 532 965 l 261 965 l 261 606 l 379 606 q 535 609 457 606 q 688 631 613 613 l 688 469 q 535 491 613 488 q 379 494 457 494 l 261 494 l 261 111 l 467 111 q 666 123 581 111 q 807 164 751 135 l 774 0 l 97 0 q 119 153 115 75 q 122 308 122 231 l 122 768 q 119 924 122 846 q 97 1076 115 1001 l 724 1076 z "},"É":{"ha":876,"x_min":97,"x_max":807,"o":"m 724 1076 l 757 913 q 678 944 719 932 q 585 960 638 956 q 456 965 532 965 l 261 965 l 261 606 l 379 606 q 535 609 457 606 q 688 631 613 613 l 688 469 q 535 491 613 488 q 379 494 457 494 l 261 494 l 261 111 l 467 111 q 666 123 581 111 q 807 164 751 135 l 774 0 l 97 0 q 119 153 115 75 q 122 308 122 231 l 122 768 q 119 924 122 846 q 97 1076 115 1001 l 724 1076 m 467 1167 l 369 1167 l 461 1389 l 635 1389 l 467 1167 z "},"Ě":{"ha":876,"x_min":97,"x_max":807,"o":"m 724 1076 l 757 913 q 678 944 719 932 q 585 960 638 956 q 456 965 532 965 l 261 965 l 261 606 l 379 606 q 535 609 457 606 q 688 631 613 613 l 688 469 q 535 491 613 488 q 379 494 457 494 l 261 494 l 261 111 l 467 111 q 666 123 581 111 q 807 164 751 135 l 774 0 l 97 0 q 119 153 115 75 q 122 308 122 231 l 122 768 q 119 924 122 846 q 97 1076 115 1001 l 724 1076 m 325 1389 l 440 1224 l 554 1389 l 679 1389 l 504 1167 l 375 1167 l 200 1389 l 325 1389 z "},"Ê":{"ha":876,"x_min":97,"x_max":807,"o":"m 724 1076 l 757 913 q 678 944 719 932 q 585 960 638 956 q 456 965 532 965 l 261 965 l 261 606 l 379 606 q 535 609 457 606 q 688 631 613 613 l 688 469 q 535 491 613 488 q 379 494 457 494 l 261 494 l 261 111 l 467 111 q 666 123 581 111 q 807 164 751 135 l 774 0 l 97 0 q 119 153 115 75 q 122 308 122 231 l 122 768 q 119 924 122 846 q 97 1076 115 1001 l 724 1076 m 325 1167 l 200 1167 l 375 1389 l 504 1389 l 679 1167 l 554 1167 l 440 1332 l 325 1167 z "},"Ë":{"ha":876,"x_min":97,"x_max":807,"o":"m 724 1076 l 757 913 q 678 944 719 932 q 585 960 638 956 q 456 965 532 965 l 261 965 l 261 606 l 379 606 q 535 609 457 606 q 688 631 613 613 l 688 469 q 535 491 613 488 q 379 494 457 494 l 261 494 l 261 111 l 467 111 q 666 123 581 111 q 807 164 751 135 l 774 0 l 97 0 q 119 153 115 75 q 122 308 122 231 l 122 768 q 119 924 122 846 q 97 1076 115 1001 l 724 1076 m 264 1396 l 372 1288 l 264 1179 l 156 1288 l 264 1396 m 613 1396 l 721 1288 l 613 1179 l 504 1288 l 613 1396 z "},"Ė":{"ha":876,"x_min":97,"x_max":807,"o":"m 724 1076 l 757 913 q 678 944 719 932 q 585 960 638 956 q 456 965 532 965 l 261 965 l 261 606 l 379 606 q 535 609 457 606 q 688 631 613 613 l 688 469 q 535 491 613 488 q 379 494 457 494 l 261 494 l 261 111 l 467 111 q 666 123 581 111 q 807 164 751 135 l 774 0 l 97 0 q 119 153 115 75 q 122 308 122 231 l 122 768 q 119 924 122 846 q 97 1076 115 1001 l 724 1076 m 439 1167 q 360 1199 393 1167 q 328 1278 328 1232 q 360 1356 328 1324 q 439 1389 393 1389 q 517 1356 485 1389 q 550 1278 550 1324 q 517 1199 550 1232 q 439 1167 485 1167 z "},"È":{"ha":876,"x_min":97,"x_max":807,"o":"m 724 1076 l 757 913 q 678 944 719 932 q 585 960 638 956 q 456 965 532 965 l 261 965 l 261 606 l 379 606 q 535 609 457 606 q 688 631 613 613 l 688 469 q 535 491 613 488 q 379 494 457 494 l 261 494 l 261 111 l 467 111 q 666 123 581 111 q 807 164 751 135 l 774 0 l 97 0 q 119 153 115 75 q 122 308 122 231 l 122 768 q 119 924 122 846 q 97 1076 115 1001 l 724 1076 m 425 1167 l 257 1389 l 431 1389 l 522 1167 l 425 1167 z "},"Ē":{"ha":876,"x_min":97,"x_max":807,"o":"m 724 1076 l 757 913 q 678 944 719 932 q 585 960 638 956 q 456 965 532 965 l 261 965 l 261 606 l 379 606 q 535 609 457 606 q 688 631 613 613 l 688 469 q 535 491 613 488 q 379 494 457 494 l 261 494 l 261 111 l 467 111 q 666 123 581 111 q 807 164 751 135 l 774 0 l 97 0 q 119 153 115 75 q 122 308 122 231 l 122 768 q 119 924 122 846 q 97 1076 115 1001 l 724 1076 m 249 1339 l 629 1339 l 629 1249 l 249 1249 l 249 1339 z "},"Ę":{"ha":876,"x_min":97,"x_max":922,"o":"m 724 1076 l 757 913 q 678 944 719 932 q 585 960 638 956 q 456 965 532 965 l 261 965 l 261 606 l 379 606 q 535 609 457 606 q 688 631 613 613 l 688 469 q 535 491 613 488 q 379 494 457 494 l 261 494 l 261 111 l 467 111 q 666 123 581 111 q 807 164 751 135 l 774 0 l 97 0 q 119 153 115 75 q 122 308 122 231 l 122 768 q 119 924 122 846 q 97 1076 115 1001 l 724 1076 m 774 0 q 653 -77 696 -26 q 610 -192 610 -128 q 707 -293 610 -293 q 801 -262 760 -293 q 865 -178 843 -232 l 869 -178 l 922 -268 q 831 -337 888 -312 q 707 -361 775 -361 q 553 -315 613 -361 q 494 -194 494 -269 q 556 -76 494 -128 q 756 26 617 -25 l 774 0 z "},"Ẽ":{"ha":876,"x_min":97,"x_max":807,"o":"m 724 1076 l 757 913 q 678 944 719 932 q 585 960 638 956 q 456 965 532 965 l 261 965 l 261 606 l 379 606 q 535 609 457 606 q 688 631 613 613 l 688 469 q 535 491 613 488 q 379 494 457 494 l 261 494 l 261 111 l 467 111 q 666 123 581 111 q 807 164 751 135 l 774 0 l 97 0 q 119 153 115 75 q 122 308 122 231 l 122 768 q 119 924 122 846 q 97 1076 115 1001 l 724 1076 m 599 1371 l 682 1371 q 648 1222 682 1276 q 546 1167 614 1167 q 472 1187 503 1167 q 417 1233 440 1207 q 374 1278 394 1258 q 333 1299 354 1299 q 281 1178 281 1299 l 197 1178 q 231 1331 197 1272 q 333 1389 265 1389 q 408 1369 376 1389 q 462 1323 439 1349 q 505 1277 485 1297 q 546 1257 525 1257 q 599 1371 599 1257 z "},"Ə":{"ha":1069,"x_min":49,"x_max":1021,"o":"m 85 861 q 132 933 101 893 q 210 1010 163 972 q 328 1072 258 1047 q 490 1096 397 1096 q 706 1053 608 1096 q 874 936 803 1011 q 983 760 944 861 q 1021 540 1021 658 q 985 321 1021 422 q 881 143 949 219 q 717 24 813 67 q 504 -19 622 -19 q 314 24 399 -19 q 170 143 229 67 q 80 321 111 219 q 49 540 49 422 l 871 540 q 838 727 871 643 q 746 870 804 811 q 610 958 688 929 q 446 981 533 988 q 338 956 389 976 q 245 909 286 936 q 177 856 204 882 q 140 815 150 831 l 85 861 m 206 429 q 308 181 226 269 q 524 92 389 92 q 690 135 619 92 q 803 256 760 179 q 863 429 847 332 l 206 429 z "},"F":{"ha":813,"x_min":97,"x_max":757,"o":"m 724 1076 l 757 913 q 678 944 719 932 q 585 960 638 956 q 456 965 532 965 l 261 965 l 261 592 l 379 592 q 535 595 457 592 q 688 617 613 599 l 688 456 q 535 477 613 474 q 379 481 457 481 l 261 481 l 261 308 q 265 153 261 231 q 286 0 268 75 l 97 0 q 119 153 115 75 q 122 308 122 231 l 122 768 q 119 924 122 846 q 97 1076 115 1001 l 724 1076 z "},"G":{"ha":1107,"x_min":49,"x_max":1010,"o":"m 1010 97 q 815 8 914 35 q 608 -19 717 -19 q 382 23 485 -19 q 205 142 279 65 q 90 319 131 218 q 49 539 49 421 q 88 758 49 657 q 201 935 128 860 q 373 1053 274 1011 q 593 1096 472 1096 q 817 1069 731 1096 q 971 990 903 1043 l 993 789 l 989 789 q 840 929 933 874 q 593 985 746 985 q 385 924 474 985 q 247 762 296 863 q 199 539 199 661 q 229 367 199 447 q 317 224 260 286 q 451 127 374 163 q 624 92 529 92 q 763 110 697 92 q 871 156 828 128 l 871 460 q 747 454 808 458 q 625 435 686 450 l 625 572 l 1010 572 l 1010 97 z "},"Ğ":{"ha":1107,"x_min":49,"x_max":1010,"o":"m 1010 97 q 815 8 914 35 q 608 -19 717 -19 q 382 23 485 -19 q 205 142 279 65 q 90 319 131 218 q 49 539 49 421 q 88 758 49 657 q 201 935 128 860 q 373 1053 274 1011 q 593 1096 472 1096 q 817 1069 731 1096 q 971 990 903 1043 l 993 789 l 989 789 q 840 929 933 874 q 593 985 746 985 q 385 924 474 985 q 247 762 296 863 q 199 539 199 661 q 229 367 199 447 q 317 224 260 286 q 451 127 374 163 q 624 92 529 92 q 763 110 697 92 q 871 156 828 128 l 871 460 q 747 454 808 458 q 625 435 686 450 l 625 572 l 1010 572 l 1010 97 m 549 1167 q 442 1200 482 1167 q 383 1284 401 1233 q 365 1389 365 1335 l 449 1389 q 456 1331 449 1361 q 484 1278 463 1300 q 549 1257 506 1257 q 614 1278 593 1257 q 642 1331 635 1300 q 649 1389 649 1361 l 732 1389 q 714 1284 732 1335 q 656 1200 696 1233 q 549 1167 615 1167 z "},"Ǧ":{"ha":1107,"x_min":49,"x_max":1010,"o":"m 1010 97 q 815 8 914 35 q 608 -19 717 -19 q 382 23 485 -19 q 205 142 279 65 q 90 319 131 218 q 49 539 49 421 q 88 758 49 657 q 201 935 128 860 q 373 1053 274 1011 q 593 1096 472 1096 q 817 1069 731 1096 q 971 990 903 1043 l 993 789 l 989 789 q 840 929 933 874 q 593 985 746 985 q 385 924 474 985 q 247 762 296 863 q 199 539 199 661 q 229 367 199 447 q 317 224 260 286 q 451 127 374 163 q 624 92 529 92 q 763 110 697 92 q 871 156 828 128 l 871 460 q 747 454 808 458 q 625 435 686 450 l 625 572 l 1010 572 l 1010 97 m 433 1389 l 549 1224 l 663 1389 l 788 1389 l 613 1167 l 483 1167 l 308 1389 l 433 1389 z "},"Ĝ":{"ha":1107,"x_min":49,"x_max":1010,"o":"m 1010 97 q 815 8 914 35 q 608 -19 717 -19 q 382 23 485 -19 q 205 142 279 65 q 90 319 131 218 q 49 539 49 421 q 88 758 49 657 q 201 935 128 860 q 373 1053 274 1011 q 593 1096 472 1096 q 817 1069 731 1096 q 971 990 903 1043 l 993 789 l 989 789 q 840 929 933 874 q 593 985 746 985 q 385 924 474 985 q 247 762 296 863 q 199 539 199 661 q 229 367 199 447 q 317 224 260 286 q 451 127 374 163 q 624 92 529 92 q 763 110 697 92 q 871 156 828 128 l 871 460 q 747 454 808 458 q 625 435 686 450 l 625 572 l 1010 572 l 1010 97 m 433 1167 l 308 1167 l 483 1389 l 613 1389 l 788 1167 l 663 1167 l 549 1332 l 433 1167 z "},"Ģ":{"ha":1107,"x_min":49,"x_max":1010,"o":"m 1010 97 q 815 8 914 35 q 608 -19 717 -19 q 382 23 485 -19 q 205 142 279 65 q 90 319 131 218 q 49 539 49 421 q 88 758 49 657 q 201 935 128 860 q 373 1053 274 1011 q 593 1096 472 1096 q 817 1069 731 1096 q 971 990 903 1043 l 993 789 l 989 789 q 840 929 933 874 q 593 985 746 985 q 385 924 474 985 q 247 762 296 863 q 199 539 199 661 q 229 367 199 447 q 317 224 260 286 q 451 127 374 163 q 624 92 529 92 q 763 110 697 92 q 871 156 828 128 l 871 460 q 747 454 808 458 q 625 435 686 450 l 625 572 l 1010 572 l 1010 97 m 547 -71 l 629 -156 l 519 -344 l 486 -335 l 528 -219 l 463 -156 l 547 -71 z "},"Ġ":{"ha":1107,"x_min":49,"x_max":1010,"o":"m 1010 97 q 815 8 914 35 q 608 -19 717 -19 q 382 23 485 -19 q 205 142 279 65 q 90 319 131 218 q 49 539 49 421 q 88 758 49 657 q 201 935 128 860 q 373 1053 274 1011 q 593 1096 472 1096 q 817 1069 731 1096 q 971 990 903 1043 l 993 789 l 989 789 q 840 929 933 874 q 593 985 746 985 q 385 924 474 985 q 247 762 296 863 q 199 539 199 661 q 229 367 199 447 q 317 224 260 286 q 451 127 374 163 q 624 92 529 92 q 763 110 697 92 q 871 156 828 128 l 871 460 q 747 454 808 458 q 625 435 686 450 l 625 572 l 1010 572 l 1010 97 m 547 1167 q 469 1199 501 1167 q 436 1278 436 1232 q 469 1356 436 1324 q 547 1389 501 1389 q 626 1356 593 1389 q 658 1278 658 1324 q 626 1199 658 1232 q 547 1167 593 1167 z "},"Ḡ":{"ha":1107,"x_min":49,"x_max":1010,"o":"m 1010 97 q 815 8 914 35 q 608 -19 717 -19 q 382 23 485 -19 q 205 142 279 65 q 90 319 131 218 q 49 539 49 421 q 88 758 49 657 q 201 935 128 860 q 373 1053 274 1011 q 593 1096 472 1096 q 817 1069 731 1096 q 971 990 903 1043 l 993 789 l 989 789 q 840 929 933 874 q 593 985 746 985 q 385 924 474 985 q 247 762 296 863 q 199 539 199 661 q 229 367 199 447 q 317 224 260 286 q 451 127 374 163 q 624 92 529 92 q 763 110 697 92 q 871 156 828 128 l 871 460 q 747 454 808 458 q 625 435 686 450 l 625 572 l 1010 572 l 1010 97 m 357 1339 l 738 1339 l 738 1249 l 357 1249 l 357 1339 z "},"H":{"ha":1079,"x_min":97,"x_max":982,"o":"m 286 1076 q 265 924 268 1001 q 261 768 261 846 l 261 599 l 818 599 l 818 768 q 815 924 818 846 q 793 1076 811 1001 l 982 1076 q 960 924 964 1001 q 957 768 957 846 l 957 308 q 960 153 957 231 q 982 0 964 75 l 793 0 q 815 153 811 75 q 818 308 818 231 l 818 488 l 261 488 l 261 308 q 265 153 261 231 q 286 0 268 75 l 97 0 q 119 153 115 75 q 122 308 122 231 l 122 768 q 119 924 122 846 q 97 1076 115 1001 l 286 1076 z "},"Ħ":{"ha":1144,"x_min":28,"x_max":1117,"o":"m 319 1076 q 302 969 307 1024 q 296 861 297 915 l 850 861 q 844 969 849 915 q 826 1076 839 1024 l 1015 1076 q 998 971 1003 1025 q 992 863 993 917 q 1050 869 1021 865 q 1117 879 1079 872 l 1117 746 q 1049 757 1078 753 q 990 763 1021 761 l 990 308 q 994 153 990 231 q 1015 0 997 75 l 826 0 q 848 153 844 75 q 851 308 851 231 l 851 488 l 294 488 l 294 308 q 298 153 294 231 q 319 0 301 75 l 131 0 q 152 153 149 75 q 156 308 156 231 l 156 763 q 96 757 125 761 q 28 746 67 753 l 28 879 q 96 869 67 872 q 154 863 125 865 q 148 971 153 917 q 131 1076 143 1025 l 319 1076 m 294 599 l 851 599 l 851 764 l 294 764 l 294 599 z "},"Ĥ":{"ha":1079,"x_min":97,"x_max":982,"o":"m 286 1076 q 265 924 268 1001 q 261 768 261 846 l 261 599 l 818 599 l 818 768 q 815 924 818 846 q 793 1076 811 1001 l 982 1076 q 960 924 964 1001 q 957 768 957 846 l 957 308 q 960 153 957 231 q 982 0 964 75 l 793 0 q 815 153 811 75 q 818 308 818 231 l 818 488 l 261 488 l 261 308 q 265 153 261 231 q 286 0 268 75 l 97 0 q 119 153 115 75 q 122 308 122 231 l 122 768 q 119 924 122 846 q 97 1076 115 1001 l 286 1076 m 426 1167 l 301 1167 l 476 1389 l 606 1389 l 781 1167 l 656 1167 l 542 1332 l 426 1167 z "},"I":{"ha":411,"x_min":111,"x_max":300,"o":"m 300 1076 q 278 924 282 1001 q 275 768 275 846 l 275 308 q 278 153 275 231 q 300 0 282 75 l 111 0 q 133 153 129 75 q 136 308 136 231 l 136 768 q 133 924 136 846 q 111 1076 129 1001 l 300 1076 z "},"Ĳ":{"ha":768,"x_min":97,"x_max":671,"o":"m 286 1076 q 265 924 268 1001 q 261 768 261 846 l 261 308 q 265 153 261 231 q 286 0 268 75 l 97 0 q 119 153 115 75 q 122 308 122 231 l 122 768 q 119 924 122 846 q 97 1076 115 1001 l 286 1076 m 671 1076 q 649 924 653 1001 q 646 768 646 846 l 646 56 q 568 -213 646 -126 q 339 -300 490 -300 q 228 -287 272 -300 q 158 -260 183 -275 q 124 -239 132 -244 l 97 -64 l 101 -62 q 144 -104 115 -75 q 219 -157 172 -133 q 335 -181 267 -181 q 470 -112 433 -179 q 507 86 507 -46 l 507 768 q 503 924 507 846 q 482 1076 500 1001 l 671 1076 z "},"Í":{"ha":411,"x_min":111,"x_max":401,"o":"m 300 1076 q 278 924 282 1001 q 275 768 275 846 l 275 308 q 278 153 275 231 q 300 0 282 75 l 111 0 q 133 153 129 75 q 136 308 136 231 l 136 768 q 133 924 136 846 q 111 1076 129 1001 l 300 1076 m 233 1167 l 136 1167 l 228 1389 l 401 1389 l 233 1167 z "},"Ĭ":{"ha":411,"x_min":24,"x_max":390,"o":"m 300 1076 q 278 924 282 1001 q 275 768 275 846 l 275 308 q 278 153 275 231 q 300 0 282 75 l 111 0 q 133 153 129 75 q 136 308 136 231 l 136 768 q 133 924 136 846 q 111 1076 129 1001 l 300 1076 m 207 1167 q 100 1200 140 1167 q 42 1284 60 1233 q 24 1389 24 1335 l 107 1389 q 114 1331 107 1361 q 142 1278 121 1300 q 207 1257 164 1257 q 272 1278 251 1257 q 300 1331 293 1300 q 307 1389 307 1361 l 390 1389 q 372 1284 390 1335 q 314 1200 354 1233 q 207 1167 274 1167 z "},"Î":{"ha":411,"x_min":-33,"x_max":446,"o":"m 300 1076 q 278 924 282 1001 q 275 768 275 846 l 275 308 q 278 153 275 231 q 300 0 282 75 l 111 0 q 133 153 129 75 q 136 308 136 231 l 136 768 q 133 924 136 846 q 111 1076 129 1001 l 300 1076 m 92 1167 l -33 1167 l 142 1389 l 271 1389 l 446 1167 l 321 1167 l 207 1332 l 92 1167 z "},"Ï":{"ha":411,"x_min":-78,"x_max":488,"o":"m 300 1076 q 278 924 282 1001 q 275 768 275 846 l 275 308 q 278 153 275 231 q 300 0 282 75 l 111 0 q 133 153 129 75 q 136 308 136 231 l 136 768 q 133 924 136 846 q 111 1076 129 1001 l 300 1076 m 31 1396 l 139 1288 l 31 1179 l -78 1288 l 31 1396 m 379 1396 l 488 1288 l 379 1179 l 271 1288 l 379 1396 z "},"İ":{"ha":411,"x_min":94,"x_max":317,"o":"m 300 1076 q 278 924 282 1001 q 275 768 275 846 l 275 308 q 278 153 275 231 q 300 0 282 75 l 111 0 q 133 153 129 75 q 136 308 136 231 l 136 768 q 133 924 136 846 q 111 1076 129 1001 l 300 1076 m 206 1167 q 127 1199 160 1167 q 94 1278 94 1232 q 127 1356 94 1324 q 206 1389 160 1389 q 284 1356 251 1389 q 317 1278 317 1324 q 284 1199 317 1232 q 206 1167 251 1167 z "},"Ì":{"ha":411,"x_min":24,"x_max":300,"o":"m 300 1076 q 278 924 282 1001 q 275 768 275 846 l 275 308 q 278 153 275 231 q 300 0 282 75 l 111 0 q 133 153 129 75 q 136 308 136 231 l 136 768 q 133 924 136 846 q 111 1076 129 1001 l 300 1076 m 192 1167 l 24 1389 l 197 1389 l 289 1167 l 192 1167 z "},"Ī":{"ha":411,"x_min":15,"x_max":396,"o":"m 300 1076 q 278 924 282 1001 q 275 768 275 846 l 275 308 q 278 153 275 231 q 300 0 282 75 l 111 0 q 133 153 129 75 q 136 308 136 231 l 136 768 q 133 924 136 846 q 111 1076 129 1001 l 300 1076 m 15 1339 l 396 1339 l 396 1249 l 15 1249 l 15 1339 z "},"Į":{"ha":411,"x_min":21,"x_max":449,"o":"m 300 1076 q 278 924 282 1001 q 275 768 275 846 l 275 308 q 278 153 275 231 q 300 0 282 75 l 111 0 q 133 153 129 75 q 136 308 136 231 l 136 768 q 133 924 136 846 q 111 1076 129 1001 l 300 1076 m 300 0 q 179 -77 222 -26 q 136 -192 136 -128 q 233 -293 136 -293 q 328 -262 286 -293 q 392 -178 369 -232 l 396 -178 l 449 -268 q 358 -337 414 -312 q 233 -361 301 -361 q 80 -315 139 -361 q 21 -194 21 -269 q 82 -76 21 -128 q 282 26 143 -25 l 300 0 z "},"Ĩ":{"ha":411,"x_min":-36,"x_max":449,"o":"m 300 1076 q 278 924 282 1001 q 275 768 275 846 l 275 308 q 278 153 275 231 q 300 0 282 75 l 111 0 q 133 153 129 75 q 136 308 136 231 l 136 768 q 133 924 136 846 q 111 1076 129 1001 l 300 1076 m 365 1371 l 449 1371 q 415 1222 449 1276 q 313 1167 381 1167 q 238 1187 269 1167 q 184 1233 207 1207 q 141 1278 161 1258 q 100 1299 121 1299 q 47 1178 47 1299 l -36 1178 q -2 1331 -36 1272 q 100 1389 32 1389 q 174 1369 143 1389 q 228 1323 206 1349 q 272 1277 251 1297 q 313 1257 292 1257 q 365 1371 365 1257 z "},"J":{"ha":392,"x_min":-125,"x_max":294,"o":"m 294 1076 q 273 924 276 1001 q 269 768 269 846 l 269 28 q 206 -222 269 -144 q -10 -300 142 -300 q -55 -297 -26 -300 q -100 -292 -83 -294 l -125 -133 l -121 -132 q -71 -169 -100 -151 q 0 -187 -42 -187 q 106 -130 81 -187 q 131 58 131 -72 l 131 768 q 127 924 131 846 q 106 1076 124 1001 l 294 1076 z "},"Ĵ":{"ha":392,"x_min":-125,"x_max":438,"o":"m 294 1076 q 273 924 276 1001 q 269 768 269 846 l 269 28 q 206 -222 269 -144 q -10 -300 142 -300 q -55 -297 -26 -300 q -100 -292 -83 -294 l -125 -133 l -121 -132 q -71 -169 -100 -151 q 0 -187 -42 -187 q 106 -130 81 -187 q 131 58 131 -72 l 131 768 q 127 924 131 846 q 106 1076 124 1001 l 294 1076 m 83 1167 l -42 1167 l 133 1389 l 263 1389 l 438 1167 l 313 1167 l 199 1332 l 83 1167 z "},"K":{"ha":1013,"x_min":97,"x_max":992,"o":"m 286 1076 q 265 924 268 1001 q 261 768 261 846 l 261 585 l 568 922 q 649 1023 618 981 q 683 1076 679 1065 l 907 1076 q 799 980 847 1025 q 704 888 750 935 l 426 583 l 786 190 q 882 97 832 143 q 992 0 932 51 l 768 0 q 738 49 764 11 q 667 138 711 88 l 261 581 l 261 308 q 265 153 261 231 q 286 0 268 75 l 97 0 q 119 153 115 75 q 122 308 122 231 l 122 768 q 119 924 122 846 q 97 1076 115 1001 l 286 1076 z "},"Ķ":{"ha":1013,"x_min":97,"x_max":992,"o":"m 286 1076 q 265 924 268 1001 q 261 768 261 846 l 261 585 l 568 922 q 649 1023 618 981 q 683 1076 679 1065 l 907 1076 q 799 980 847 1025 q 704 888 750 935 l 426 583 l 786 190 q 882 97 832 143 q 992 0 932 51 l 768 0 q 738 49 764 11 q 667 138 711 88 l 261 581 l 261 308 q 265 153 261 231 q 286 0 268 75 l 97 0 q 119 153 115 75 q 122 308 122 231 l 122 768 q 119 924 122 846 q 97 1076 115 1001 l 286 1076 m 538 -71 l 619 -156 l 510 -344 l 476 -335 l 518 -219 l 453 -156 l 538 -71 z "},"L":{"ha":799,"x_min":97,"x_max":757,"o":"m 97 0 q 119 153 115 75 q 122 308 122 231 l 122 768 q 119 924 122 846 q 97 1076 115 1001 l 286 1076 q 265 924 268 1001 q 261 768 261 846 l 261 111 l 456 111 q 585 116 532 111 q 678 133 638 121 q 757 164 719 144 l 724 0 l 97 0 z "},"Ĺ":{"ha":799,"x_min":97,"x_max":757,"o":"m 97 0 q 119 153 115 75 q 122 308 122 231 l 122 768 q 119 924 122 846 q 97 1076 115 1001 l 286 1076 q 265 924 268 1001 q 261 768 261 846 l 261 111 l 456 111 q 585 116 532 111 q 678 133 638 121 q 757 164 719 144 l 724 0 l 97 0 m 240 1167 l 143 1167 l 235 1389 l 408 1389 l 240 1167 z "},"Ľ":{"ha":799,"x_min":97,"x_max":757,"o":"m 97 0 q 119 153 115 75 q 122 308 122 231 l 122 768 q 119 924 122 846 q 97 1076 115 1001 l 286 1076 q 265 924 268 1001 q 261 768 261 846 l 261 111 l 456 111 q 585 116 532 111 q 678 133 638 121 q 757 164 719 144 l 724 0 l 97 0 m 425 1069 l 507 985 l 397 796 l 364 806 l 406 921 l 340 985 l 425 1069 z "},"Ļ":{"ha":799,"x_min":97,"x_max":757,"o":"m 97 0 q 119 153 115 75 q 122 308 122 231 l 122 768 q 119 924 122 846 q 97 1076 115 1001 l 286 1076 q 265 924 268 1001 q 261 768 261 846 l 261 111 l 456 111 q 585 116 532 111 q 678 133 638 121 q 757 164 719 144 l 724 0 l 97 0 m 424 -71 l 506 -156 l 396 -344 l 363 -335 l 404 -219 l 339 -156 l 424 -71 z "},"Ł":{"ha":919,"x_min":-14,"x_max":829,"o":"m 169 0 q 191 153 188 75 q 194 308 194 231 l 194 429 l 185 426 q 74 388 122 406 q -14 346 26 369 l -14 493 q 67 506 15 493 q 183 536 118 518 l 194 540 l 194 768 q 191 924 194 846 q 169 1076 188 1001 l 358 1076 q 337 924 340 1001 q 333 768 333 846 l 333 583 l 454 621 q 565 660 517 642 q 653 701 614 679 l 653 554 q 572 542 624 554 q 456 511 521 531 l 333 472 l 333 111 l 528 111 q 657 116 604 111 q 751 133 710 121 q 829 164 792 144 l 796 0 l 169 0 z "},"M":{"ha":1274,"x_min":97,"x_max":1176,"o":"m 285 1076 l 642 240 l 1003 1076 l 1176 1076 q 1155 924 1158 1001 q 1151 768 1151 846 l 1151 308 q 1155 153 1151 231 q 1176 0 1158 75 l 988 0 q 1009 153 1006 75 q 1013 308 1013 231 l 1013 808 l 667 0 l 600 0 l 254 808 l 254 308 q 258 153 254 231 q 279 0 261 75 l 97 0 q 119 153 115 75 q 122 308 122 231 l 122 768 q 119 924 122 846 q 97 1076 115 1001 l 285 1076 z "},"N":{"ha":1125,"x_min":97,"x_max":1028,"o":"m 293 1076 l 871 181 l 871 769 q 867 925 871 847 q 846 1078 864 1003 l 1028 1078 q 1006 925 1010 1003 q 1003 769 1003 847 l 1003 310 q 1006 153 1003 232 q 1028 0 1010 75 l 828 0 l 254 889 l 254 308 q 258 153 254 231 q 279 0 261 75 l 97 0 q 119 153 115 75 q 122 308 122 231 l 122 768 q 119 924 122 846 q 97 1076 115 1001 l 293 1076 z "},"Ń":{"ha":1125,"x_min":97,"x_max":1028,"o":"m 293 1076 l 871 181 l 871 769 q 867 925 871 847 q 846 1078 864 1003 l 1028 1078 q 1006 925 1010 1003 q 1003 769 1003 847 l 1003 310 q 1006 153 1003 232 q 1028 0 1010 75 l 828 0 l 254 889 l 254 308 q 258 153 254 231 q 279 0 261 75 l 97 0 q 119 153 115 75 q 122 308 122 231 l 122 768 q 119 924 122 846 q 97 1076 115 1001 l 293 1076 m 588 1167 l 490 1167 l 582 1389 l 756 1389 l 588 1167 z "},"Ň":{"ha":1125,"x_min":97,"x_max":1028,"o":"m 293 1076 l 871 181 l 871 769 q 867 925 871 847 q 846 1078 864 1003 l 1028 1078 q 1006 925 1010 1003 q 1003 769 1003 847 l 1003 310 q 1006 153 1003 232 q 1028 0 1010 75 l 828 0 l 254 889 l 254 308 q 258 153 254 231 q 279 0 261 75 l 97 0 q 119 153 115 75 q 122 308 122 231 l 122 768 q 119 924 122 846 q 97 1076 115 1001 l 293 1076 m 446 1389 l 561 1224 l 675 1389 l 800 1389 l 625 1167 l 496 1167 l 321 1389 l 446 1389 z "},"Ņ":{"ha":1125,"x_min":97,"x_max":1028,"o":"m 293 1076 l 871 181 l 871 769 q 867 925 871 847 q 846 1078 864 1003 l 1028 1078 q 1006 925 1010 1003 q 1003 769 1003 847 l 1003 310 q 1006 153 1003 232 q 1028 0 1010 75 l 828 0 l 254 889 l 254 308 q 258 153 254 231 q 279 0 261 75 l 97 0 q 119 153 115 75 q 122 308 122 231 l 122 768 q 119 924 122 846 q 97 1076 115 1001 l 293 1076 m 560 -71 l 642 -156 l 532 -344 l 499 -335 l 540 -219 l 475 -156 l 560 -71 z "},"Ñ":{"ha":1125,"x_min":97,"x_max":1028,"o":"m 293 1076 l 871 181 l 871 769 q 867 925 871 847 q 846 1078 864 1003 l 1028 1078 q 1006 925 1010 1003 q 1003 769 1003 847 l 1003 310 q 1006 153 1003 232 q 1028 0 1010 75 l 828 0 l 254 889 l 254 308 q 258 153 254 231 q 279 0 261 75 l 97 0 q 119 153 115 75 q 122 308 122 231 l 122 768 q 119 924 122 846 q 97 1076 115 1001 l 293 1076 m 719 1371 l 803 1371 q 769 1222 803 1276 q 667 1167 735 1167 q 592 1187 624 1167 q 538 1233 561 1207 q 495 1278 515 1258 q 454 1299 475 1299 q 401 1178 401 1299 l 318 1178 q 352 1331 318 1272 q 454 1389 386 1389 q 528 1369 497 1389 q 583 1323 560 1349 q 626 1277 606 1297 q 667 1257 646 1257 q 719 1371 719 1257 z "},"O":{"ha":1190,"x_min":49,"x_max":1142,"o":"m 594 -19 q 375 23 475 -19 q 202 142 275 65 q 89 319 129 218 q 49 539 49 421 q 89 758 49 657 q 202 935 129 860 q 375 1053 275 1011 q 594 1096 475 1096 q 814 1054 714 1096 q 988 937 914 1013 q 1101 760 1061 861 q 1142 539 1142 658 q 1101 319 1142 421 q 988 142 1061 218 q 814 23 914 65 q 594 -19 714 -19 m 593 92 q 757 128 683 92 q 883 226 831 164 q 964 369 936 288 q 992 539 992 450 q 964 710 992 629 q 883 852 936 790 q 757 949 831 914 q 593 985 683 985 q 430 949 503 985 q 306 851 357 914 q 226 709 254 789 q 199 539 199 629 q 226 369 199 450 q 306 226 254 288 q 430 128 357 164 q 593 92 503 92 z "},"Ó":{"ha":1190,"x_min":49,"x_max":1142,"o":"m 594 -19 q 375 23 475 -19 q 202 142 275 65 q 89 319 129 218 q 49 539 49 421 q 89 758 49 657 q 202 935 129 860 q 375 1053 275 1011 q 594 1096 475 1096 q 814 1054 714 1096 q 988 937 914 1013 q 1101 760 1061 861 q 1142 539 1142 658 q 1101 319 1142 421 q 988 142 1061 218 q 814 23 914 65 q 594 -19 714 -19 m 593 92 q 757 128 683 92 q 883 226 831 164 q 964 369 936 288 q 992 539 992 450 q 964 710 992 629 q 883 852 936 790 q 757 949 831 914 q 593 985 683 985 q 430 949 503 985 q 306 851 357 914 q 226 709 254 789 q 199 539 199 629 q 226 369 199 450 q 306 226 254 288 q 430 128 357 164 q 593 92 503 92 m 624 1167 l 526 1167 l 618 1389 l 792 1389 l 624 1167 z "},"Ŏ":{"ha":1190,"x_min":49,"x_max":1142,"o":"m 594 -19 q 375 23 475 -19 q 202 142 275 65 q 89 319 129 218 q 49 539 49 421 q 89 758 49 657 q 202 935 129 860 q 375 1053 275 1011 q 594 1096 475 1096 q 814 1054 714 1096 q 988 937 914 1013 q 1101 760 1061 861 q 1142 539 1142 658 q 1101 319 1142 421 q 988 142 1061 218 q 814 23 914 65 q 594 -19 714 -19 m 593 92 q 757 128 683 92 q 883 226 831 164 q 964 369 936 288 q 992 539 992 450 q 964 710 992 629 q 883 852 936 790 q 757 949 831 914 q 593 985 683 985 q 430 949 503 985 q 306 851 357 914 q 226 709 254 789 q 199 539 199 629 q 226 369 199 450 q 306 226 254 288 q 430 128 357 164 q 593 92 503 92 m 597 1167 q 490 1200 531 1167 q 432 1284 450 1233 q 414 1389 414 1335 l 497 1389 q 504 1331 497 1361 q 533 1278 511 1300 q 597 1257 554 1257 q 663 1278 642 1257 q 690 1331 683 1300 q 697 1389 697 1361 l 781 1389 q 763 1284 781 1335 q 704 1200 744 1233 q 597 1167 664 1167 z "},"Ô":{"ha":1190,"x_min":49,"x_max":1142,"o":"m 594 -19 q 375 23 475 -19 q 202 142 275 65 q 89 319 129 218 q 49 539 49 421 q 89 758 49 657 q 202 935 129 860 q 375 1053 275 1011 q 594 1096 475 1096 q 814 1054 714 1096 q 988 937 914 1013 q 1101 760 1061 861 q 1142 539 1142 658 q 1101 319 1142 421 q 988 142 1061 218 q 814 23 914 65 q 594 -19 714 -19 m 593 92 q 757 128 683 92 q 883 226 831 164 q 964 369 936 288 q 992 539 992 450 q 964 710 992 629 q 883 852 936 790 q 757 949 831 914 q 593 985 683 985 q 430 949 503 985 q 306 851 357 914 q 226 709 254 789 q 199 539 199 629 q 226 369 199 450 q 306 226 254 288 q 430 128 357 164 q 593 92 503 92 m 482 1167 l 357 1167 l 532 1389 l 661 1389 l 836 1167 l 711 1167 l 597 1332 l 482 1167 z "},"Ö":{"ha":1190,"x_min":49,"x_max":1142,"o":"m 594 -19 q 375 23 475 -19 q 202 142 275 65 q 89 319 129 218 q 49 539 49 421 q 89 758 49 657 q 202 935 129 860 q 375 1053 275 1011 q 594 1096 475 1096 q 814 1054 714 1096 q 988 937 914 1013 q 1101 760 1061 861 q 1142 539 1142 658 q 1101 319 1142 421 q 988 142 1061 218 q 814 23 914 65 q 594 -19 714 -19 m 593 92 q 757 128 683 92 q 883 226 831 164 q 964 369 936 288 q 992 539 992 450 q 964 710 992 629 q 883 852 936 790 q 757 949 831 914 q 593 985 683 985 q 430 949 503 985 q 306 851 357 914 q 226 709 254 789 q 199 539 199 629 q 226 369 199 450 q 306 226 254 288 q 430 128 357 164 q 593 92 503 92 m 421 1396 l 529 1288 l 421 1179 l 313 1288 l 421 1396 m 769 1396 l 878 1288 l 769 1179 l 661 1288 l 769 1396 z "},"Ò":{"ha":1190,"x_min":49,"x_max":1142,"o":"m 594 -19 q 375 23 475 -19 q 202 142 275 65 q 89 319 129 218 q 49 539 49 421 q 89 758 49 657 q 202 935 129 860 q 375 1053 275 1011 q 594 1096 475 1096 q 814 1054 714 1096 q 988 937 914 1013 q 1101 760 1061 861 q 1142 539 1142 658 q 1101 319 1142 421 q 988 142 1061 218 q 814 23 914 65 q 594 -19 714 -19 m 593 92 q 757 128 683 92 q 883 226 831 164 q 964 369 936 288 q 992 539 992 450 q 964 710 992 629 q 883 852 936 790 q 757 949 831 914 q 593 985 683 985 q 430 949 503 985 q 306 851 357 914 q 226 709 254 789 q 199 539 199 629 q 226 369 199 450 q 306 226 254 288 q 430 128 357 164 q 593 92 503 92 m 582 1167 l 414 1389 l 588 1389 l 679 1167 l 582 1167 z "},"Ő":{"ha":1190,"x_min":49,"x_max":1142,"o":"m 594 -19 q 375 23 475 -19 q 202 142 275 65 q 89 319 129 218 q 49 539 49 421 q 89 758 49 657 q 202 935 129 860 q 375 1053 275 1011 q 594 1096 475 1096 q 814 1054 714 1096 q 988 937 914 1013 q 1101 760 1061 861 q 1142 539 1142 658 q 1101 319 1142 421 q 988 142 1061 218 q 814 23 914 65 q 594 -19 714 -19 m 593 92 q 757 128 683 92 q 883 226 831 164 q 964 369 936 288 q 992 539 992 450 q 964 710 992 629 q 883 852 936 790 q 757 949 831 914 q 593 985 683 985 q 430 949 503 985 q 306 851 357 914 q 226 709 254 789 q 199 539 199 629 q 226 369 199 450 q 306 226 254 288 q 430 128 357 164 q 593 92 503 92 m 507 1167 l 410 1167 l 501 1389 l 675 1389 l 507 1167 m 742 1167 l 644 1167 l 736 1389 l 910 1389 l 742 1167 z "},"Ō":{"ha":1190,"x_min":49,"x_max":1142,"o":"m 594 -19 q 375 23 475 -19 q 202 142 275 65 q 89 319 129 218 q 49 539 49 421 q 89 758 49 657 q 202 935 129 860 q 375 1053 275 1011 q 594 1096 475 1096 q 814 1054 714 1096 q 988 937 914 1013 q 1101 760 1061 861 q 1142 539 1142 658 q 1101 319 1142 421 q 988 142 1061 218 q 814 23 914 65 q 594 -19 714 -19 m 593 92 q 757 128 683 92 q 883 226 831 164 q 964 369 936 288 q 992 539 992 450 q 964 710 992 629 q 883 852 936 790 q 757 949 831 914 q 593 985 683 985 q 430 949 503 985 q 306 851 357 914 q 226 709 254 789 q 199 539 199 629 q 226 369 199 450 q 306 226 254 288 q 430 128 357 164 q 593 92 503 92 m 406 1339 l 786 1339 l 786 1249 l 406 1249 l 406 1339 z "},"Ø":{"ha":1190,"x_min":49,"x_max":1142,"o":"m 1114 1076 q 1060 1019 1092 1054 q 988 936 1028 983 q 1101 760 1061 861 q 1142 539 1142 658 q 1101 319 1142 421 q 988 142 1061 218 q 814 23 914 65 q 594 -19 714 -19 q 434 3 510 -19 q 294 65 358 25 q 272 32 282 49 q 256 0 263 15 l 72 0 q 133 58 100 22 q 204 139 167 94 q 90 318 132 215 q 49 539 49 421 q 89 758 49 657 q 202 935 129 860 q 375 1053 275 1011 q 594 1096 475 1096 q 756 1074 681 1096 q 896 1011 832 1051 q 918 1049 910 1032 q 931 1076 926 1065 l 1114 1076 m 199 539 q 223 381 199 457 q 290 246 247 306 l 824 908 q 719 965 776 944 q 593 985 661 985 q 430 949 503 985 q 306 851 357 914 q 226 709 254 789 q 199 539 199 629 m 593 92 q 757 128 683 92 q 883 226 831 164 q 964 369 936 288 q 992 539 992 450 q 901 831 992 708 l 371 164 q 473 110 417 129 q 593 92 529 92 z "},"Õ":{"ha":1190,"x_min":49,"x_max":1142,"o":"m 594 -19 q 375 23 475 -19 q 202 142 275 65 q 89 319 129 218 q 49 539 49 421 q 89 758 49 657 q 202 935 129 860 q 375 1053 275 1011 q 594 1096 475 1096 q 814 1054 714 1096 q 988 937 914 1013 q 1101 760 1061 861 q 1142 539 1142 658 q 1101 319 1142 421 q 988 142 1061 218 q 814 23 914 65 q 594 -19 714 -19 m 593 92 q 757 128 683 92 q 883 226 831 164 q 964 369 936 288 q 992 539 992 450 q 964 710 992 629 q 883 852 936 790 q 757 949 831 914 q 593 985 683 985 q 430 949 503 985 q 306 851 357 914 q 226 709 254 789 q 199 539 199 629 q 226 369 199 450 q 306 226 254 288 q 430 128 357 164 q 593 92 503 92 m 756 1371 l 839 1371 q 805 1222 839 1276 q 703 1167 771 1167 q 628 1187 660 1167 q 574 1233 597 1207 q 531 1278 551 1258 q 490 1299 511 1299 q 438 1178 438 1299 l 354 1178 q 388 1331 354 1272 q 490 1389 422 1389 q 565 1369 533 1389 q 619 1323 596 1349 q 662 1277 642 1297 q 703 1257 682 1257 q 756 1371 756 1257 z "},"Œ":{"ha":1363,"x_min":49,"x_max":1293,"o":"m 1210 1076 l 1243 913 q 1165 944 1206 932 q 1071 960 1124 956 q 942 965 1018 965 l 789 965 l 789 606 l 865 606 q 1021 609 943 606 q 1174 631 1099 613 l 1174 469 q 1021 491 1099 488 q 865 494 943 494 l 789 494 l 789 111 l 953 111 q 1152 123 1067 111 q 1293 164 1238 135 l 1260 0 l 599 0 q 353 49 457 0 q 182 179 250 99 q 81 354 114 260 q 49 539 49 449 q 81 724 49 629 q 182 898 114 818 q 353 1027 250 978 q 599 1076 457 1076 l 1210 1076 m 199 539 q 219 395 199 469 q 288 256 239 321 q 424 151 338 192 q 640 111 510 111 l 650 111 l 650 965 l 640 965 q 424 926 510 965 q 288 822 338 886 q 219 683 239 757 q 199 539 199 608 z "},"P":{"ha":829,"x_min":97,"x_max":781,"o":"m 392 1076 q 588 1035 500 1076 q 728 918 676 993 q 781 743 781 843 q 728 569 781 644 q 588 451 676 493 q 392 408 500 408 l 261 408 l 261 308 q 265 153 261 231 q 286 0 268 75 l 97 0 q 119 153 115 75 q 122 308 122 231 l 122 768 q 119 924 122 846 q 97 1076 115 1001 l 392 1076 m 261 519 l 350 519 q 561 578 492 519 q 631 743 631 636 q 561 908 631 850 q 350 965 492 965 l 261 965 l 261 519 z "},"Þ":{"ha":808,"x_min":97,"x_max":767,"o":"m 286 1076 q 269 976 275 1026 q 263 872 264 925 l 378 872 q 574 831 486 872 q 715 714 663 789 q 767 539 767 639 q 715 365 767 440 q 574 247 663 289 q 378 204 486 204 l 263 204 q 269 101 264 153 q 286 0 275 50 l 97 0 q 119 153 115 75 q 122 308 122 231 l 122 768 q 119 924 122 846 q 97 1076 115 1001 l 286 1076 m 261 315 l 336 315 q 547 374 478 315 q 617 539 617 432 q 547 703 617 646 q 336 761 478 761 l 261 761 l 261 315 z "},"Q":{"ha":1190,"x_min":49,"x_max":1142,"o":"m 694 -54 q 850 -51 772 -54 q 1003 -29 928 -47 l 1003 -190 q 850 -169 928 -172 q 694 -165 772 -165 l 497 -165 q 342 -169 419 -165 q 189 -190 264 -172 l 189 -29 q 342 -51 264 -47 q 497 -54 419 -54 l 524 -54 l 524 -15 q 276 78 383 1 q 109 274 169 154 q 49 539 49 393 q 89 758 49 657 q 202 935 129 860 q 375 1053 275 1011 q 594 1096 475 1096 q 814 1054 714 1096 q 988 937 914 1013 q 1101 760 1061 861 q 1142 539 1142 658 q 1081 274 1142 393 q 912 78 1019 154 q 663 -15 804 1 l 663 -54 l 694 -54 m 593 92 q 757 128 683 92 q 883 226 831 164 q 964 369 936 288 q 992 539 992 450 q 964 710 992 629 q 883 852 936 790 q 757 949 831 914 q 593 985 683 985 q 430 949 503 985 q 306 851 357 914 q 226 709 254 789 q 199 539 199 629 q 226 369 199 450 q 306 226 254 288 q 430 128 357 164 q 593 92 503 92 z "},"R":{"ha":917,"x_min":97,"x_max":861,"o":"m 392 1076 q 585 1038 497 1076 q 727 930 674 1000 q 781 764 781 860 q 746 626 781 688 q 651 523 711 565 q 514 461 590 481 l 714 171 q 784 85 747 128 q 861 0 821 42 l 646 0 q 599 88 628 40 q 522 210 571 136 l 353 446 l 261 446 l 261 308 q 265 153 261 231 q 286 0 268 75 l 97 0 q 119 153 115 75 q 122 308 122 231 l 122 768 q 119 924 122 846 q 97 1076 115 1001 l 392 1076 m 261 557 l 350 557 q 558 610 486 557 q 631 764 631 663 q 558 916 631 867 q 350 965 486 965 l 261 965 l 261 557 z "},"Ŕ":{"ha":917,"x_min":97,"x_max":861,"o":"m 392 1076 q 585 1038 497 1076 q 727 930 674 1000 q 781 764 781 860 q 746 626 781 688 q 651 523 711 565 q 514 461 590 481 l 714 171 q 784 85 747 128 q 861 0 821 42 l 646 0 q 599 88 628 40 q 522 210 571 136 l 353 446 l 261 446 l 261 308 q 265 153 261 231 q 286 0 268 75 l 97 0 q 119 153 115 75 q 122 308 122 231 l 122 768 q 119 924 122 846 q 97 1076 115 1001 l 392 1076 m 261 557 l 350 557 q 558 610 486 557 q 631 764 631 663 q 558 916 631 867 q 350 965 486 965 l 261 965 l 261 557 m 469 1167 l 372 1167 l 464 1389 l 638 1389 l 469 1167 z "},"Ř":{"ha":917,"x_min":97,"x_max":861,"o":"m 392 1076 q 585 1038 497 1076 q 727 930 674 1000 q 781 764 781 860 q 746 626 781 688 q 651 523 711 565 q 514 461 590 481 l 714 171 q 784 85 747 128 q 861 0 821 42 l 646 0 q 599 88 628 40 q 522 210 571 136 l 353 446 l 261 446 l 261 308 q 265 153 261 231 q 286 0 268 75 l 97 0 q 119 153 115 75 q 122 308 122 231 l 122 768 q 119 924 122 846 q 97 1076 115 1001 l 392 1076 m 261 557 l 350 557 q 558 610 486 557 q 631 764 631 663 q 558 916 631 867 q 350 965 486 965 l 261 965 l 261 557 m 328 1389 l 443 1224 l 557 1389 l 682 1389 l 507 1167 l 378 1167 l 203 1389 l 328 1389 z "},"Ŗ":{"ha":917,"x_min":97,"x_max":861,"o":"m 392 1076 q 585 1038 497 1076 q 727 930 674 1000 q 781 764 781 860 q 746 626 781 688 q 651 523 711 565 q 514 461 590 481 l 714 171 q 784 85 747 128 q 861 0 821 42 l 646 0 q 599 88 628 40 q 522 210 571 136 l 353 446 l 261 446 l 261 308 q 265 153 261 231 q 286 0 268 75 l 97 0 q 119 153 115 75 q 122 308 122 231 l 122 768 q 119 924 122 846 q 97 1076 115 1001 l 392 1076 m 261 557 l 350 557 q 558 610 486 557 q 631 764 631 663 q 558 916 631 867 q 350 965 486 965 l 261 965 l 261 557 m 442 -71 l 524 -156 l 414 -344 l 381 -335 l 422 -219 l 357 -156 l 442 -71 z "},"S":{"ha":808,"x_min":49,"x_max":760,"o":"m 728 967 l 651 817 l 647 817 q 609 894 638 856 q 534 959 581 933 q 419 985 488 985 q 276 940 332 985 q 219 822 219 896 q 257 728 219 765 q 354 663 294 692 q 481 603 414 635 q 615 526 551 569 q 719 422 679 482 q 760 276 760 361 q 717 122 760 189 q 597 18 675 56 q 408 -19 518 -19 q 258 0 322 -19 q 151 47 194 19 q 82 99 107 74 q 49 135 57 124 l 142 286 l 146 286 q 198 196 164 240 q 284 122 232 151 q 408 92 336 92 q 556 144 499 92 q 614 276 614 196 q 558 408 614 358 q 422 496 503 457 q 303 553 364 525 q 192 619 243 582 q 108 706 140 656 q 75 826 76 756 q 117 965 74 904 q 239 1060 160 1025 q 422 1096 318 1096 q 558 1078 501 1096 q 650 1037 614 1061 q 705 992 686 1013 q 728 967 724 972 z "},"Ś":{"ha":808,"x_min":49,"x_max":760,"o":"m 728 967 l 651 817 l 647 817 q 609 894 638 856 q 534 959 581 933 q 419 985 488 985 q 276 940 332 985 q 219 822 219 896 q 257 728 219 765 q 354 663 294 692 q 481 603 414 635 q 615 526 551 569 q 719 422 679 482 q 760 276 760 361 q 717 122 760 189 q 597 18 675 56 q 408 -19 518 -19 q 258 0 322 -19 q 151 47 194 19 q 82 99 107 74 q 49 135 57 124 l 142 286 l 146 286 q 198 196 164 240 q 284 122 232 151 q 408 92 336 92 q 556 144 499 92 q 614 276 614 196 q 558 408 614 358 q 422 496 503 457 q 303 553 364 525 q 192 619 243 582 q 108 706 140 656 q 75 826 76 756 q 117 965 74 904 q 239 1060 160 1025 q 422 1096 318 1096 q 558 1078 501 1096 q 650 1037 614 1061 q 705 992 686 1013 q 728 967 724 972 m 432 1167 l 335 1167 l 426 1389 l 600 1389 l 432 1167 z "},"Š":{"ha":808,"x_min":49,"x_max":760,"o":"m 728 967 l 651 817 l 647 817 q 609 894 638 856 q 534 959 581 933 q 419 985 488 985 q 276 940 332 985 q 219 822 219 896 q 257 728 219 765 q 354 663 294 692 q 481 603 414 635 q 615 526 551 569 q 719 422 679 482 q 760 276 760 361 q 717 122 760 189 q 597 18 675 56 q 408 -19 518 -19 q 258 0 322 -19 q 151 47 194 19 q 82 99 107 74 q 49 135 57 124 l 142 286 l 146 286 q 198 196 164 240 q 284 122 232 151 q 408 92 336 92 q 556 144 499 92 q 614 276 614 196 q 558 408 614 358 q 422 496 503 457 q 303 553 364 525 q 192 619 243 582 q 108 706 140 656 q 75 826 76 756 q 117 965 74 904 q 239 1060 160 1025 q 422 1096 318 1096 q 558 1078 501 1096 q 650 1037 614 1061 q 705 992 686 1013 q 728 967 724 972 m 290 1389 l 406 1224 l 519 1389 l 644 1389 l 469 1167 l 340 1167 l 165 1389 l 290 1389 z "},"Ş":{"ha":808,"x_min":49,"x_max":760,"o":"m 728 967 l 651 817 l 647 817 q 609 894 638 856 q 534 959 581 933 q 419 985 488 985 q 276 940 332 985 q 219 822 219 896 q 257 728 219 765 q 354 663 294 692 q 481 603 414 635 q 615 526 551 569 q 719 422 679 482 q 760 276 760 361 q 717 122 760 189 q 597 18 675 56 q 408 -19 518 -19 q 258 0 322 -19 q 151 47 194 19 q 82 99 107 74 q 49 135 57 124 l 142 286 l 146 286 q 198 196 164 240 q 284 122 232 151 q 408 92 336 92 q 556 144 499 92 q 614 276 614 196 q 558 408 614 358 q 422 496 503 457 q 303 553 364 525 q 192 619 243 582 q 108 706 140 656 q 75 826 76 756 q 117 965 74 904 q 239 1060 160 1025 q 422 1096 318 1096 q 558 1078 501 1096 q 650 1037 614 1061 q 705 992 686 1013 q 728 967 724 972 m 379 -156 l 457 0 l 533 0 l 482 -94 q 608 -131 558 -93 q 658 -222 658 -169 q 599 -322 658 -283 q 446 -361 540 -361 q 231 -268 304 -361 l 283 -178 l 288 -178 q 446 -293 335 -293 q 517 -274 490 -293 q 543 -219 543 -254 q 503 -162 543 -187 q 393 -153 464 -137 l 379 -156 z "},"Ŝ":{"ha":808,"x_min":49,"x_max":760,"o":"m 728 967 l 651 817 l 647 817 q 609 894 638 856 q 534 959 581 933 q 419 985 488 985 q 276 940 332 985 q 219 822 219 896 q 257 728 219 765 q 354 663 294 692 q 481 603 414 635 q 615 526 551 569 q 719 422 679 482 q 760 276 760 361 q 717 122 760 189 q 597 18 675 56 q 408 -19 518 -19 q 258 0 322 -19 q 151 47 194 19 q 82 99 107 74 q 49 135 57 124 l 142 286 l 146 286 q 198 196 164 240 q 284 122 232 151 q 408 92 336 92 q 556 144 499 92 q 614 276 614 196 q 558 408 614 358 q 422 496 503 457 q 303 553 364 525 q 192 619 243 582 q 108 706 140 656 q 75 826 76 756 q 117 965 74 904 q 239 1060 160 1025 q 422 1096 318 1096 q 558 1078 501 1096 q 650 1037 614 1061 q 705 992 686 1013 q 728 967 724 972 m 290 1167 l 165 1167 l 340 1389 l 469 1389 l 644 1167 l 519 1167 l 406 1332 l 290 1167 z "},"Ș":{"ha":808,"x_min":49,"x_max":760,"o":"m 728 967 l 651 817 l 647 817 q 609 894 638 856 q 534 959 581 933 q 419 985 488 985 q 276 940 332 985 q 219 822 219 896 q 257 728 219 765 q 354 663 294 692 q 481 603 414 635 q 615 526 551 569 q 719 422 679 482 q 760 276 760 361 q 717 122 760 189 q 597 18 675 56 q 408 -19 518 -19 q 258 0 322 -19 q 151 47 194 19 q 82 99 107 74 q 49 135 57 124 l 142 286 l 146 286 q 198 196 164 240 q 284 122 232 151 q 408 92 336 92 q 556 144 499 92 q 614 276 614 196 q 558 408 614 358 q 422 496 503 457 q 303 553 364 525 q 192 619 243 582 q 108 706 140 656 q 75 826 76 756 q 117 965 74 904 q 239 1060 160 1025 q 422 1096 318 1096 q 558 1078 501 1096 q 650 1037 614 1061 q 705 992 686 1013 q 728 967 724 972 m 404 -71 l 486 -156 l 376 -344 l 343 -335 l 385 -219 l 319 -156 l 404 -71 z "},"ẞ":{"ha":994,"x_min":97,"x_max":932,"o":"m 860 1076 l 860 1013 l 638 625 q 794 569 728 614 q 896 456 860 525 q 932 301 932 388 q 882 138 932 211 q 747 22 832 64 q 554 -21 661 -21 q 349 22 447 -21 l 390 158 l 394 158 q 467 107 424 124 q 554 90 511 90 q 724 149 658 90 q 789 300 789 207 q 757 428 789 374 q 672 513 725 482 q 553 543 618 543 q 490 538 525 543 q 424 518 456 532 l 414 526 l 667 965 l 261 965 l 261 0 l 97 0 q 119 153 115 75 q 122 308 122 231 l 122 768 q 119 924 122 846 q 97 1076 115 1001 l 860 1076 z "},"T":{"ha":964,"x_min":28,"x_max":936,"o":"m 903 1076 l 936 913 q 858 944 899 932 q 764 960 817 956 q 635 965 711 965 l 551 965 l 551 308 q 555 153 551 231 q 576 0 558 75 l 388 0 q 409 153 406 75 q 413 308 413 231 l 413 965 l 329 965 q 201 960 254 965 q 106 944 147 956 q 28 913 65 932 l 61 1076 l 903 1076 z "},"Ť":{"ha":964,"x_min":28,"x_max":936,"o":"m 903 1076 l 936 913 q 858 944 899 932 q 764 960 817 956 q 635 965 711 965 l 551 965 l 551 308 q 555 153 551 231 q 576 0 558 75 l 388 0 q 409 153 406 75 q 413 308 413 231 l 413 965 l 329 965 q 201 960 254 965 q 106 944 147 956 q 28 913 65 932 l 61 1076 l 903 1076 m 368 1389 l 483 1224 l 597 1389 l 722 1389 l 547 1167 l 418 1167 l 243 1389 l 368 1389 z "},"Ţ":{"ha":964,"x_min":28,"x_max":936,"o":"m 422 -156 l 500 0 l 388 0 q 409 153 406 75 q 413 308 413 231 l 413 965 l 329 965 q 201 960 254 965 q 106 944 147 956 q 28 913 65 932 l 61 1076 l 903 1076 l 936 913 q 858 944 899 932 q 764 960 817 956 q 635 965 711 965 l 551 965 l 551 308 q 555 153 551 231 q 576 0 558 75 l 525 -94 q 651 -131 601 -93 q 701 -222 701 -169 q 642 -322 701 -283 q 489 -361 583 -361 q 274 -268 347 -361 l 326 -178 l 331 -178 q 489 -293 378 -293 q 560 -274 533 -293 q 586 -219 586 -254 q 547 -162 586 -187 q 436 -153 507 -137 l 422 -156 z "},"Ț":{"ha":964,"x_min":28,"x_max":936,"o":"m 903 1076 l 936 913 q 858 944 899 932 q 764 960 817 956 q 635 965 711 965 l 551 965 l 551 308 q 555 153 551 231 q 576 0 558 75 l 388 0 q 409 153 406 75 q 413 308 413 231 l 413 965 l 329 965 q 201 960 254 965 q 106 944 147 956 q 28 913 65 932 l 61 1076 l 903 1076 m 482 -71 l 564 -156 l 454 -344 l 421 -335 l 463 -219 l 397 -156 l 482 -71 z "},"U":{"ha":1006,"x_min":76,"x_max":929,"o":"m 265 1076 q 244 924 247 1001 q 240 768 240 846 l 240 476 q 260 281 240 368 q 336 144 279 194 q 503 93 393 93 q 670 144 614 93 q 746 281 726 194 q 765 476 765 368 l 765 768 q 762 924 765 846 q 740 1076 758 1001 l 929 1076 q 908 924 911 1001 q 904 768 904 846 l 904 476 q 863 211 904 322 q 733 40 822 100 q 503 -19 644 -19 q 273 40 361 -19 q 143 211 185 100 q 101 476 101 322 l 101 768 q 98 924 101 846 q 76 1076 94 1001 l 265 1076 z "},"Ú":{"ha":1006,"x_min":76,"x_max":929,"o":"m 265 1076 q 244 924 247 1001 q 240 768 240 846 l 240 476 q 260 281 240 368 q 336 144 279 194 q 503 93 393 93 q 670 144 614 93 q 746 281 726 194 q 765 476 765 368 l 765 768 q 762 924 765 846 q 740 1076 758 1001 l 929 1076 q 908 924 911 1001 q 904 768 904 846 l 904 476 q 863 211 904 322 q 733 40 822 100 q 503 -19 644 -19 q 273 40 361 -19 q 143 211 185 100 q 101 476 101 322 l 101 768 q 98 924 101 846 q 76 1076 94 1001 l 265 1076 m 536 1167 l 439 1167 l 531 1389 l 704 1389 l 536 1167 z "},"Ŭ":{"ha":1006,"x_min":76,"x_max":929,"o":"m 265 1076 q 244 924 247 1001 q 240 768 240 846 l 240 476 q 260 281 240 368 q 336 144 279 194 q 503 93 393 93 q 670 144 614 93 q 746 281 726 194 q 765 476 765 368 l 765 768 q 762 924 765 846 q 740 1076 758 1001 l 929 1076 q 908 924 911 1001 q 904 768 904 846 l 904 476 q 863 211 904 322 q 733 40 822 100 q 503 -19 644 -19 q 273 40 361 -19 q 143 211 185 100 q 101 476 101 322 l 101 768 q 98 924 101 846 q 76 1076 94 1001 l 265 1076 m 510 1167 q 403 1200 443 1167 q 344 1284 363 1233 q 326 1389 326 1335 l 410 1389 q 417 1331 410 1361 q 445 1278 424 1300 q 510 1257 467 1257 q 575 1278 554 1257 q 603 1331 596 1300 q 610 1389 610 1361 l 693 1389 q 675 1284 693 1335 q 617 1200 657 1233 q 510 1167 576 1167 z "},"Û":{"ha":1006,"x_min":76,"x_max":929,"o":"m 265 1076 q 244 924 247 1001 q 240 768 240 846 l 240 476 q 260 281 240 368 q 336 144 279 194 q 503 93 393 93 q 670 144 614 93 q 746 281 726 194 q 765 476 765 368 l 765 768 q 762 924 765 846 q 740 1076 758 1001 l 929 1076 q 908 924 911 1001 q 904 768 904 846 l 904 476 q 863 211 904 322 q 733 40 822 100 q 503 -19 644 -19 q 273 40 361 -19 q 143 211 185 100 q 101 476 101 322 l 101 768 q 98 924 101 846 q 76 1076 94 1001 l 265 1076 m 394 1167 l 269 1167 l 444 1389 l 574 1389 l 749 1167 l 624 1167 l 510 1332 l 394 1167 z "},"Ü":{"ha":1006,"x_min":76,"x_max":929,"o":"m 265 1076 q 244 924 247 1001 q 240 768 240 846 l 240 476 q 260 281 240 368 q 336 144 279 194 q 503 93 393 93 q 670 144 614 93 q 746 281 726 194 q 765 476 765 368 l 765 768 q 762 924 765 846 q 740 1076 758 1001 l 929 1076 q 908 924 911 1001 q 904 768 904 846 l 904 476 q 863 211 904 322 q 733 40 822 100 q 503 -19 644 -19 q 273 40 361 -19 q 143 211 185 100 q 101 476 101 322 l 101 768 q 98 924 101 846 q 76 1076 94 1001 l 265 1076 m 333 1396 l 442 1288 l 333 1179 l 225 1288 l 333 1396 m 682 1396 l 790 1288 l 682 1179 l 574 1288 l 682 1396 z "},"Ù":{"ha":1006,"x_min":76,"x_max":929,"o":"m 265 1076 q 244 924 247 1001 q 240 768 240 846 l 240 476 q 260 281 240 368 q 336 144 279 194 q 503 93 393 93 q 670 144 614 93 q 746 281 726 194 q 765 476 765 368 l 765 768 q 762 924 765 846 q 740 1076 758 1001 l 929 1076 q 908 924 911 1001 q 904 768 904 846 l 904 476 q 863 211 904 322 q 733 40 822 100 q 503 -19 644 -19 q 273 40 361 -19 q 143 211 185 100 q 101 476 101 322 l 101 768 q 98 924 101 846 q 76 1076 94 1001 l 265 1076 m 494 1167 l 326 1389 l 500 1389 l 592 1167 l 494 1167 z "},"Ű":{"ha":1006,"x_min":76,"x_max":929,"o":"m 265 1076 q 244 924 247 1001 q 240 768 240 846 l 240 476 q 260 281 240 368 q 336 144 279 194 q 503 93 393 93 q 670 144 614 93 q 746 281 726 194 q 765 476 765 368 l 765 768 q 762 924 765 846 q 740 1076 758 1001 l 929 1076 q 908 924 911 1001 q 904 768 904 846 l 904 476 q 863 211 904 322 q 733 40 822 100 q 503 -19 644 -19 q 273 40 361 -19 q 143 211 185 100 q 101 476 101 322 l 101 768 q 98 924 101 846 q 76 1076 94 1001 l 265 1076 m 419 1167 l 322 1167 l 414 1389 l 588 1389 l 419 1167 m 654 1167 l 557 1167 l 649 1389 l 822 1389 l 654 1167 z "},"Ū":{"ha":1006,"x_min":76,"x_max":929,"o":"m 265 1076 q 244 924 247 1001 q 240 768 240 846 l 240 476 q 260 281 240 368 q 336 144 279 194 q 503 93 393 93 q 670 144 614 93 q 746 281 726 194 q 765 476 765 368 l 765 768 q 762 924 765 846 q 740 1076 758 1001 l 929 1076 q 908 924 911 1001 q 904 768 904 846 l 904 476 q 863 211 904 322 q 733 40 822 100 q 503 -19 644 -19 q 273 40 361 -19 q 143 211 185 100 q 101 476 101 322 l 101 768 q 98 924 101 846 q 76 1076 94 1001 l 265 1076 m 318 1339 l 699 1339 l 699 1249 l 318 1249 l 318 1339 z "},"Ų":{"ha":1006,"x_min":76,"x_max":929,"o":"m 265 1076 q 244 924 247 1001 q 240 768 240 846 l 240 476 q 260 281 240 368 q 336 144 279 194 q 503 93 393 93 q 670 144 614 93 q 746 281 726 194 q 765 476 765 368 l 765 768 q 762 924 765 846 q 740 1076 758 1001 l 929 1076 q 908 924 911 1001 q 904 768 904 846 l 904 476 q 863 211 904 322 q 733 40 822 100 q 503 -19 644 -19 q 273 40 361 -19 q 143 211 185 100 q 101 476 101 322 l 101 768 q 98 924 101 846 q 76 1076 94 1001 l 265 1076 m 683 14 q 563 -63 606 -12 q 519 -178 519 -114 q 617 -279 519 -279 q 711 -249 669 -279 q 775 -164 753 -218 l 779 -164 l 832 -254 q 741 -323 797 -299 q 617 -347 685 -347 q 463 -301 522 -347 q 404 -181 404 -256 q 465 -62 404 -114 q 665 40 526 -11 l 683 14 z "},"Ů":{"ha":1006,"x_min":76,"x_max":929,"o":"m 265 1076 q 244 924 247 1001 q 240 768 240 846 l 240 476 q 260 281 240 368 q 336 144 279 194 q 503 93 393 93 q 670 144 614 93 q 746 281 726 194 q 765 476 765 368 l 765 768 q 762 924 765 846 q 740 1076 758 1001 l 929 1076 q 908 924 911 1001 q 904 768 904 846 l 904 476 q 863 211 904 322 q 733 40 822 100 q 503 -19 644 -19 q 273 40 361 -19 q 143 211 185 100 q 101 476 101 322 l 101 768 q 98 924 101 846 q 76 1076 94 1001 l 265 1076 m 508 1142 q 417 1181 454 1142 q 379 1274 379 1219 q 417 1365 379 1328 q 508 1403 454 1403 q 600 1365 563 1403 q 638 1274 638 1328 q 600 1181 638 1219 q 508 1142 563 1142 m 508 1217 q 548 1233 532 1217 q 564 1272 564 1250 q 548 1312 564 1296 q 508 1328 532 1328 q 469 1312 486 1328 q 453 1272 453 1296 q 469 1233 453 1250 q 508 1217 486 1217 z "},"Ũ":{"ha":1006,"x_min":76,"x_max":929,"o":"m 265 1076 q 244 924 247 1001 q 240 768 240 846 l 240 476 q 260 281 240 368 q 336 144 279 194 q 503 93 393 93 q 670 144 614 93 q 746 281 726 194 q 765 476 765 368 l 765 768 q 762 924 765 846 q 740 1076 758 1001 l 929 1076 q 908 924 911 1001 q 904 768 904 846 l 904 476 q 863 211 904 322 q 733 40 822 100 q 503 -19 644 -19 q 273 40 361 -19 q 143 211 185 100 q 101 476 101 322 l 101 768 q 98 924 101 846 q 76 1076 94 1001 l 265 1076 m 668 1371 l 751 1371 q 717 1222 751 1276 q 615 1167 683 1167 q 541 1187 572 1167 q 487 1233 510 1207 q 444 1278 464 1258 q 403 1299 424 1299 q 350 1178 350 1299 l 267 1178 q 301 1331 267 1272 q 403 1389 335 1389 q 477 1369 446 1389 q 531 1323 508 1349 q 574 1277 554 1297 q 615 1257 594 1257 q 668 1371 668 1257 z "},"V":{"ha":1131,"x_min":21,"x_max":1110,"o":"m 496 0 l 175 776 q 131 879 153 832 q 83 974 108 926 q 21 1076 57 1021 l 217 1076 q 233 1006 222 1044 q 262 913 243 967 q 313 782 281 860 l 565 171 l 818 782 q 871 915 851 863 q 902 1006 890 968 q 921 1076 914 1044 l 1110 1076 q 1029 935 1067 1008 q 958 782 992 861 l 635 0 l 496 0 z "},"W":{"ha":1660,"x_min":21,"x_max":1639,"o":"m 1110 0 l 829 833 l 550 0 l 411 0 l 133 828 q 86 953 111 893 q 21 1076 61 1013 l 221 1076 q 241 969 229 1032 q 282 818 253 906 l 483 217 l 772 1076 l 888 1076 l 1176 217 l 1378 819 q 1419 969 1407 906 q 1439 1076 1431 1032 l 1639 1076 q 1575 953 1600 1013 q 1526 828 1550 893 l 1249 0 l 1110 0 z "},"Ẃ":{"ha":1660,"x_min":21,"x_max":1639,"o":"m 1110 0 l 829 833 l 550 0 l 411 0 l 133 828 q 86 953 111 893 q 21 1076 61 1013 l 221 1076 q 241 969 229 1032 q 282 818 253 906 l 483 217 l 772 1076 l 888 1076 l 1176 217 l 1378 819 q 1419 969 1407 906 q 1439 1076 1431 1032 l 1639 1076 q 1575 953 1600 1013 q 1526 828 1550 893 l 1249 0 l 1110 0 m 858 1167 l 761 1167 l 853 1389 l 1026 1389 l 858 1167 z "},"Ŵ":{"ha":1660,"x_min":21,"x_max":1639,"o":"m 1110 0 l 829 833 l 550 0 l 411 0 l 133 828 q 86 953 111 893 q 21 1076 61 1013 l 221 1076 q 241 969 229 1032 q 282 818 253 906 l 483 217 l 772 1076 l 888 1076 l 1176 217 l 1378 819 q 1419 969 1407 906 q 1439 1076 1431 1032 l 1639 1076 q 1575 953 1600 1013 q 1526 828 1550 893 l 1249 0 l 1110 0 m 717 1167 l 592 1167 l 767 1389 l 896 1389 l 1071 1167 l 946 1167 l 832 1332 l 717 1167 z "},"Ẅ":{"ha":1660,"x_min":21,"x_max":1639,"o":"m 1110 0 l 829 833 l 550 0 l 411 0 l 133 828 q 86 953 111 893 q 21 1076 61 1013 l 221 1076 q 241 969 229 1032 q 282 818 253 906 l 483 217 l 772 1076 l 888 1076 l 1176 217 l 1378 819 q 1419 969 1407 906 q 1439 1076 1431 1032 l 1639 1076 q 1575 953 1600 1013 q 1526 828 1550 893 l 1249 0 l 1110 0 m 656 1396 l 764 1288 l 656 1179 l 547 1288 l 656 1396 m 1004 1396 l 1113 1288 l 1004 1179 l 896 1288 l 1004 1396 z "},"Ẁ":{"ha":1660,"x_min":21,"x_max":1639,"o":"m 1110 0 l 829 833 l 550 0 l 411 0 l 133 828 q 86 953 111 893 q 21 1076 61 1013 l 221 1076 q 241 969 229 1032 q 282 818 253 906 l 483 217 l 772 1076 l 888 1076 l 1176 217 l 1378 819 q 1419 969 1407 906 q 1439 1076 1431 1032 l 1639 1076 q 1575 953 1600 1013 q 1526 828 1550 893 l 1249 0 l 1110 0 m 817 1167 l 649 1389 l 822 1389 l 914 1167 l 817 1167 z "},"X":{"ha":1110,"x_min":56,"x_max":1054,"o":"m 839 0 q 794 89 821 40 q 715 210 767 138 l 554 435 l 397 213 q 318 89 347 138 q 271 0 289 40 l 56 0 q 147 100 104 50 q 231 204 190 150 l 475 549 l 250 874 q 169 977 211 926 q 79 1076 128 1028 l 294 1076 q 328 1008 308 1046 q 382 921 347 969 l 560 672 l 663 819 q 761 974 726 915 q 815 1076 796 1032 l 1031 1076 q 938 977 981 1026 q 857 871 896 928 l 642 558 l 919 153 q 982 74 947 111 q 1054 0 1017 38 l 839 0 z "},"Y":{"ha":1007,"x_min":28,"x_max":979,"o":"m 432 308 l 432 524 l 208 854 q 124 969 168 914 q 28 1076 79 1025 l 236 1076 q 291 974 256 1031 q 390 821 326 917 l 506 656 l 615 819 q 686 930 658 885 q 732 1010 714 975 q 764 1076 750 1044 l 979 1076 q 884 968 928 1024 q 799 854 840 913 l 571 518 l 571 308 q 574 153 571 231 q 596 0 578 75 l 407 0 q 428 153 425 75 q 432 308 432 231 z "},"Ý":{"ha":1007,"x_min":28,"x_max":979,"o":"m 432 308 l 432 524 l 208 854 q 124 969 168 914 q 28 1076 79 1025 l 236 1076 q 291 974 256 1031 q 390 821 326 917 l 506 656 l 615 819 q 686 930 658 885 q 732 1010 714 975 q 764 1076 750 1044 l 979 1076 q 884 968 928 1024 q 799 854 840 913 l 571 518 l 571 308 q 574 153 571 231 q 596 0 578 75 l 407 0 q 428 153 425 75 q 432 308 432 231 m 532 1167 l 435 1167 l 526 1389 l 700 1389 l 532 1167 z "},"Ŷ":{"ha":1007,"x_min":28,"x_max":979,"o":"m 432 308 l 432 524 l 208 854 q 124 969 168 914 q 28 1076 79 1025 l 236 1076 q 291 974 256 1031 q 390 821 326 917 l 506 656 l 615 819 q 686 930 658 885 q 732 1010 714 975 q 764 1076 750 1044 l 979 1076 q 884 968 928 1024 q 799 854 840 913 l 571 518 l 571 308 q 574 153 571 231 q 596 0 578 75 l 407 0 q 428 153 425 75 q 432 308 432 231 m 390 1167 l 265 1167 l 440 1389 l 569 1389 l 744 1167 l 619 1167 l 506 1332 l 390 1167 z "},"Ÿ":{"ha":1007,"x_min":28,"x_max":979,"o":"m 432 308 l 432 524 l 208 854 q 124 969 168 914 q 28 1076 79 1025 l 236 1076 q 291 974 256 1031 q 390 821 326 917 l 506 656 l 615 819 q 686 930 658 885 q 732 1010 714 975 q 764 1076 750 1044 l 979 1076 q 884 968 928 1024 q 799 854 840 913 l 571 518 l 571 308 q 574 153 571 231 q 596 0 578 75 l 407 0 q 428 153 425 75 q 432 308 432 231 m 329 1396 l 438 1288 l 329 1179 l 221 1288 l 329 1396 m 678 1396 l 786 1288 l 678 1179 l 569 1288 l 678 1396 z "},"Ỳ":{"ha":1007,"x_min":28,"x_max":979,"o":"m 432 308 l 432 524 l 208 854 q 124 969 168 914 q 28 1076 79 1025 l 236 1076 q 291 974 256 1031 q 390 821 326 917 l 506 656 l 615 819 q 686 930 658 885 q 732 1010 714 975 q 764 1076 750 1044 l 979 1076 q 884 968 928 1024 q 799 854 840 913 l 571 518 l 571 308 q 574 153 571 231 q 596 0 578 75 l 407 0 q 428 153 425 75 q 432 308 432 231 m 490 1167 l 322 1389 l 496 1389 l 588 1167 l 490 1167 z "},"Ỹ":{"ha":1007,"x_min":28,"x_max":979,"o":"m 432 308 l 432 524 l 208 854 q 124 969 168 914 q 28 1076 79 1025 l 236 1076 q 291 974 256 1031 q 390 821 326 917 l 506 656 l 615 819 q 686 930 658 885 q 732 1010 714 975 q 764 1076 750 1044 l 979 1076 q 884 968 928 1024 q 799 854 840 913 l 571 518 l 571 308 q 574 153 571 231 q 596 0 578 75 l 407 0 q 428 153 425 75 q 432 308 432 231 m 664 1371 l 747 1371 q 713 1222 747 1276 q 611 1167 679 1167 q 537 1187 568 1167 q 483 1233 506 1207 q 440 1278 460 1258 q 399 1299 419 1299 q 346 1178 346 1299 l 263 1178 q 297 1331 263 1272 q 399 1389 331 1389 q 473 1369 442 1389 q 527 1323 504 1349 q 570 1277 550 1297 q 611 1257 590 1257 q 664 1371 664 1257 z "},"Z":{"ha":988,"x_min":83,"x_max":904,"o":"m 861 1076 l 861 1013 l 281 111 l 603 111 q 732 116 679 111 q 826 133 785 121 q 904 164 867 144 l 871 0 l 93 0 l 93 64 l 671 965 l 385 965 q 256 960 310 965 q 162 944 203 956 q 83 913 121 932 l 117 1076 l 861 1076 z "},"Ź":{"ha":988,"x_min":83,"x_max":904,"o":"m 861 1076 l 861 1013 l 281 111 l 603 111 q 732 116 679 111 q 826 133 785 121 q 904 164 867 144 l 871 0 l 93 0 l 93 64 l 671 965 l 385 965 q 256 960 310 965 q 162 944 203 956 q 83 913 121 932 l 117 1076 l 861 1076 m 522 1167 l 425 1167 l 517 1389 l 690 1389 l 522 1167 z "},"Ž":{"ha":988,"x_min":83,"x_max":904,"o":"m 861 1076 l 861 1013 l 281 111 l 603 111 q 732 116 679 111 q 826 133 785 121 q 904 164 867 144 l 871 0 l 93 0 l 93 64 l 671 965 l 385 965 q 256 960 310 965 q 162 944 203 956 q 83 913 121 932 l 117 1076 l 861 1076 m 381 1389 l 496 1224 l 610 1389 l 735 1389 l 560 1167 l 431 1167 l 256 1389 l 381 1389 z "},"Ż":{"ha":988,"x_min":83,"x_max":904,"o":"m 861 1076 l 861 1013 l 281 111 l 603 111 q 732 116 679 111 q 826 133 785 121 q 904 164 867 144 l 871 0 l 93 0 l 93 64 l 671 965 l 385 965 q 256 960 310 965 q 162 944 203 956 q 83 913 121 932 l 117 1076 l 861 1076 m 494 1167 q 416 1199 449 1167 q 383 1278 383 1232 q 416 1356 383 1324 q 494 1389 449 1389 q 573 1356 540 1389 q 606 1278 606 1324 q 573 1199 606 1232 q 494 1167 540 1167 z "},"Ꞌ":{"ha":222,"x_min":42,"x_max":181,"o":"m 42 1076 l 181 1076 l 153 694 l 69 694 l 42 1076 z "},"a":{"ha":728,"x_min":42,"x_max":686,"o":"m 42 219 q 98 380 42 317 q 257 468 154 443 q 500 475 360 493 q 454 624 492 578 q 343 671 417 671 q 217 640 278 671 q 111 557 156 608 l 101 557 l 97 701 q 363 782 210 782 q 568 697 504 782 q 633 421 632 611 l 633 306 q 638 190 633 238 q 655 108 643 143 q 686 38 667 72 l 686 29 l 500 -10 l 500 107 l 494 107 q 415 13 468 46 q 293 -19 363 -19 q 165 12 222 -19 q 75 97 108 43 q 42 219 42 151 m 178 219 q 215 125 178 158 q 321 92 253 92 q 409 113 369 92 q 474 172 449 135 q 501 253 499 208 l 501 388 q 266 360 354 404 q 178 219 178 317 z "},"á":{"ha":728,"x_min":42,"x_max":686,"o":"m 42 219 q 98 380 42 317 q 257 468 154 443 q 500 475 360 493 q 454 624 492 578 q 343 671 417 671 q 217 640 278 671 q 111 557 156 608 l 101 557 l 97 701 q 363 782 210 782 q 568 697 504 782 q 633 421 632 611 l 633 306 q 638 190 633 238 q 655 108 643 143 q 686 38 667 72 l 686 29 l 500 -10 l 500 107 l 494 107 q 415 13 468 46 q 293 -19 363 -19 q 165 12 222 -19 q 75 97 108 43 q 42 219 42 151 m 178 219 q 215 125 178 158 q 321 92 253 92 q 409 113 369 92 q 474 172 449 135 q 501 253 499 208 l 501 388 q 266 360 354 404 q 178 219 178 317 m 389 854 l 292 854 l 383 1076 l 557 1076 l 389 854 z "},"ă":{"ha":728,"x_min":42,"x_max":686,"o":"m 42 219 q 98 380 42 317 q 257 468 154 443 q 500 475 360 493 q 454 624 492 578 q 343 671 417 671 q 217 640 278 671 q 111 557 156 608 l 101 557 l 97 701 q 363 782 210 782 q 568 697 504 782 q 633 421 632 611 l 633 306 q 638 190 633 238 q 655 108 643 143 q 686 38 667 72 l 686 29 l 500 -10 l 500 107 l 494 107 q 415 13 468 46 q 293 -19 363 -19 q 165 12 222 -19 q 75 97 108 43 q 42 219 42 151 m 178 219 q 215 125 178 158 q 321 92 253 92 q 409 113 369 92 q 474 172 449 135 q 501 253 499 208 l 501 388 q 266 360 354 404 q 178 219 178 317 m 363 854 q 256 888 296 854 q 197 972 215 921 q 179 1076 179 1022 l 263 1076 q 269 1018 263 1049 q 298 966 276 988 q 363 944 319 944 q 428 966 407 944 q 456 1018 449 988 q 463 1076 463 1049 l 546 1076 q 528 972 546 1022 q 469 888 510 921 q 363 854 429 854 z "},"â":{"ha":728,"x_min":42,"x_max":686,"o":"m 42 219 q 98 380 42 317 q 257 468 154 443 q 500 475 360 493 q 454 624 492 578 q 343 671 417 671 q 217 640 278 671 q 111 557 156 608 l 101 557 l 97 701 q 363 782 210 782 q 568 697 504 782 q 633 421 632 611 l 633 306 q 638 190 633 238 q 655 108 643 143 q 686 38 667 72 l 686 29 l 500 -10 l 500 107 l 494 107 q 415 13 468 46 q 293 -19 363 -19 q 165 12 222 -19 q 75 97 108 43 q 42 219 42 151 m 178 219 q 215 125 178 158 q 321 92 253 92 q 409 113 369 92 q 474 172 449 135 q 501 253 499 208 l 501 388 q 266 360 354 404 q 178 219 178 317 m 247 854 l 122 854 l 297 1076 l 426 1076 l 601 854 l 476 854 l 363 1019 l 247 854 z "},"ä":{"ha":728,"x_min":42,"x_max":686,"o":"m 42 219 q 98 380 42 317 q 257 468 154 443 q 500 475 360 493 q 454 624 492 578 q 343 671 417 671 q 217 640 278 671 q 111 557 156 608 l 101 557 l 97 701 q 363 782 210 782 q 568 697 504 782 q 633 421 632 611 l 633 306 q 638 190 633 238 q 655 108 643 143 q 686 38 667 72 l 686 29 l 500 -10 l 500 107 l 494 107 q 415 13 468 46 q 293 -19 363 -19 q 165 12 222 -19 q 75 97 108 43 q 42 219 42 151 m 178 219 q 215 125 178 158 q 321 92 253 92 q 409 113 369 92 q 474 172 449 135 q 501 253 499 208 l 501 388 q 266 360 354 404 q 178 219 178 317 m 186 1083 l 294 975 l 186 867 l 78 975 l 186 1083 m 535 1083 l 643 975 l 535 867 l 426 975 l 535 1083 z "},"à":{"ha":728,"x_min":42,"x_max":686,"o":"m 42 219 q 98 380 42 317 q 257 468 154 443 q 500 475 360 493 q 454 624 492 578 q 343 671 417 671 q 217 640 278 671 q 111 557 156 608 l 101 557 l 97 701 q 363 782 210 782 q 568 697 504 782 q 633 421 632 611 l 633 306 q 638 190 633 238 q 655 108 643 143 q 686 38 667 72 l 686 29 l 500 -10 l 500 107 l 494 107 q 415 13 468 46 q 293 -19 363 -19 q 165 12 222 -19 q 75 97 108 43 q 42 219 42 151 m 178 219 q 215 125 178 158 q 321 92 253 92 q 409 113 369 92 q 474 172 449 135 q 501 253 499 208 l 501 388 q 266 360 354 404 q 178 219 178 317 m 347 854 l 179 1076 l 353 1076 l 444 854 l 347 854 z "},"ā":{"ha":728,"x_min":42,"x_max":686,"o":"m 42 219 q 98 380 42 317 q 257 468 154 443 q 500 475 360 493 q 454 624 492 578 q 343 671 417 671 q 217 640 278 671 q 111 557 156 608 l 101 557 l 97 701 q 363 782 210 782 q 568 697 504 782 q 633 421 632 611 l 633 306 q 638 190 633 238 q 655 108 643 143 q 686 38 667 72 l 686 29 l 500 -10 l 500 107 l 494 107 q 415 13 468 46 q 293 -19 363 -19 q 165 12 222 -19 q 75 97 108 43 q 42 219 42 151 m 178 219 q 215 125 178 158 q 321 92 253 92 q 409 113 369 92 q 474 172 449 135 q 501 253 499 208 l 501 388 q 266 360 354 404 q 178 219 178 317 m 171 1026 l 551 1026 l 551 936 l 171 936 l 171 1026 z "},"ą":{"ha":728,"x_min":42,"x_max":694,"o":"m 42 219 q 98 380 42 317 q 257 468 154 443 q 500 475 360 493 q 454 624 492 578 q 343 671 417 671 q 217 640 278 671 q 111 557 156 608 l 101 557 l 97 701 q 363 782 210 782 q 568 697 504 782 q 633 421 632 611 l 633 306 q 638 190 633 238 q 655 108 643 143 q 686 38 667 72 l 686 29 l 500 -10 l 500 107 l 494 107 q 415 13 468 46 q 293 -19 363 -19 q 165 12 222 -19 q 75 97 108 43 q 42 219 42 151 m 178 219 q 215 125 178 158 q 321 92 253 92 q 409 113 369 92 q 474 172 449 135 q 501 253 499 208 l 501 388 q 266 360 354 404 q 178 219 178 317 m 546 0 q 425 -77 468 -26 q 382 -192 382 -128 q 479 -293 382 -293 q 574 -262 532 -293 q 638 -178 615 -232 l 642 -178 l 694 -268 q 603 -337 660 -312 q 479 -361 547 -361 q 326 -315 385 -361 q 267 -194 267 -269 q 328 -76 267 -128 q 528 26 389 -25 l 546 0 z "},"å":{"ha":728,"x_min":42,"x_max":686,"o":"m 42 219 q 98 380 42 317 q 257 468 154 443 q 500 475 360 493 q 454 624 492 578 q 343 671 417 671 q 217 640 278 671 q 111 557 156 608 l 101 557 l 97 701 q 363 782 210 782 q 568 697 504 782 q 633 421 632 611 l 633 306 q 638 190 633 238 q 655 108 643 143 q 686 38 667 72 l 686 29 l 500 -10 l 500 107 l 494 107 q 415 13 468 46 q 293 -19 363 -19 q 165 12 222 -19 q 75 97 108 43 q 42 219 42 151 m 178 219 q 215 125 178 158 q 321 92 253 92 q 409 113 369 92 q 474 172 449 135 q 501 253 499 208 l 501 388 q 266 360 354 404 q 178 219 178 317 m 361 829 q 269 868 307 829 q 232 961 232 907 q 269 1053 232 1015 q 361 1090 307 1090 q 453 1053 415 1090 q 490 961 490 1015 q 453 868 490 907 q 361 829 415 829 m 361 904 q 401 921 385 904 q 417 960 417 938 q 401 999 417 983 q 361 1015 385 1015 q 322 999 339 1015 q 306 960 306 983 q 322 921 306 938 q 361 904 339 904 z "},"ã":{"ha":728,"x_min":42,"x_max":686,"o":"m 42 219 q 98 380 42 317 q 257 468 154 443 q 500 475 360 493 q 454 624 492 578 q 343 671 417 671 q 217 640 278 671 q 111 557 156 608 l 101 557 l 97 701 q 363 782 210 782 q 568 697 504 782 q 633 421 632 611 l 633 306 q 638 190 633 238 q 655 108 643 143 q 686 38 667 72 l 686 29 l 500 -10 l 500 107 l 494 107 q 415 13 468 46 q 293 -19 363 -19 q 165 12 222 -19 q 75 97 108 43 q 42 219 42 151 m 178 219 q 215 125 178 158 q 321 92 253 92 q 409 113 369 92 q 474 172 449 135 q 501 253 499 208 l 501 388 q 266 360 354 404 q 178 219 178 317 m 521 1058 l 604 1058 q 570 909 604 964 q 468 854 536 854 q 394 874 425 854 q 340 920 363 894 q 297 966 317 946 q 256 986 276 986 q 203 865 203 986 l 119 865 q 153 1018 119 960 q 256 1076 188 1076 q 330 1056 299 1076 q 384 1010 361 1036 q 427 965 407 985 q 468 944 447 944 q 521 1058 521 944 z "},"æ":{"ha":1236,"x_min":42,"x_max":1201,"o":"m 564 161 q 461 22 529 64 q 293 -21 393 -21 q 165 10 222 -21 q 75 97 108 42 q 42 219 42 151 q 98 380 42 317 q 257 468 154 443 q 500 475 360 493 q 454 624 492 578 q 343 671 417 671 q 217 640 278 671 q 111 557 156 608 l 101 557 l 97 701 q 363 782 210 782 q 509 749 451 782 q 597 647 567 717 q 619 672 608 660 q 642 693 631 683 q 752 760 690 736 q 882 783 814 783 q 1057 730 986 783 q 1165 585 1128 676 q 1201 381 1201 494 l 638 381 q 674 235 638 301 q 774 131 711 169 q 915 92 838 92 q 1044 119 993 92 q 1125 193 1094 147 l 1175 150 q 1126 80 1160 119 q 1033 10 1092 40 q 883 -19 974 -19 q 701 31 785 -18 q 564 161 617 79 m 649 485 l 1057 485 q 996 622 1042 571 q 868 672 950 672 q 724 622 779 672 q 649 485 668 571 m 178 219 q 215 124 178 158 q 321 90 253 90 q 412 114 371 90 q 477 176 453 138 q 501 261 501 215 l 501 388 q 266 360 354 404 q 178 219 178 317 z "},"b":{"ha":864,"x_min":56,"x_max":822,"o":"m 108 308 l 108 768 q 103 891 108 843 q 86 972 97 939 q 56 1036 75 1006 l 56 1044 l 239 1083 l 239 661 l 249 661 q 471 783 321 783 q 650 730 571 783 q 776 585 729 676 q 822 381 822 494 q 778 175 822 265 q 656 33 733 85 q 481 -19 579 -19 q 380 -3 422 -19 q 310 38 338 14 q 266 86 282 63 q 243 124 250 110 l 238 124 l 229 0 l 83 0 q 105 153 101 75 q 108 308 108 231 m 238 299 q 301 149 244 206 q 451 92 358 92 q 623 170 560 92 q 686 381 686 249 q 627 592 686 513 q 469 672 568 672 q 347 636 396 672 q 271 543 297 600 q 239 424 244 486 l 238 299 z "},"c":{"ha":736,"x_min":42,"x_max":715,"o":"m 715 150 q 666 80 700 119 q 573 10 632 40 q 424 -19 514 -19 q 277 11 346 -19 q 155 96 208 42 q 72 223 101 150 q 42 381 42 296 q 72 539 42 465 q 155 667 101 613 q 277 753 208 722 q 424 783 346 783 q 572 760 510 783 q 674 703 633 736 l 669 544 l 660 544 q 573 634 629 596 q 424 672 517 672 q 294 635 349 672 q 208 532 239 597 q 178 381 178 467 q 217 228 178 293 q 321 127 257 163 q 456 92 385 92 q 584 119 533 92 q 665 193 635 147 l 715 150 z "},"ć":{"ha":736,"x_min":42,"x_max":715,"o":"m 715 150 q 666 80 700 119 q 573 10 632 40 q 424 -19 514 -19 q 277 11 346 -19 q 155 96 208 42 q 72 223 101 150 q 42 381 42 296 q 72 539 42 465 q 155 667 101 613 q 277 753 208 722 q 424 783 346 783 q 572 760 510 783 q 674 703 633 736 l 669 544 l 660 544 q 573 634 629 596 q 424 672 517 672 q 294 635 349 672 q 208 532 239 597 q 178 381 178 467 q 217 228 178 293 q 321 127 257 163 q 456 92 385 92 q 584 119 533 92 q 665 193 635 147 l 715 150 m 449 854 l 351 854 l 443 1076 l 617 1076 l 449 854 z "},"č":{"ha":736,"x_min":42,"x_max":715,"o":"m 715 150 q 666 80 700 119 q 573 10 632 40 q 424 -19 514 -19 q 277 11 346 -19 q 155 96 208 42 q 72 223 101 150 q 42 381 42 296 q 72 539 42 465 q 155 667 101 613 q 277 753 208 722 q 424 783 346 783 q 572 760 510 783 q 674 703 633 736 l 669 544 l 660 544 q 573 634 629 596 q 424 672 517 672 q 294 635 349 672 q 208 532 239 597 q 178 381 178 467 q 217 228 178 293 q 321 127 257 163 q 456 92 385 92 q 584 119 533 92 q 665 193 635 147 l 715 150 m 307 1076 l 422 911 l 536 1076 l 661 1076 l 486 854 l 357 854 l 182 1076 l 307 1076 z "},"ç":{"ha":736,"x_min":42,"x_max":715,"o":"m 715 150 q 666 80 700 119 q 573 10 632 40 q 424 -19 514 -19 q 277 11 346 -19 q 155 96 208 42 q 72 223 101 150 q 42 381 42 296 q 72 539 42 465 q 155 667 101 613 q 277 753 208 722 q 424 783 346 783 q 572 760 510 783 q 674 703 633 736 l 669 544 l 660 544 q 573 634 629 596 q 424 672 517 672 q 294 635 349 672 q 208 532 239 597 q 178 381 178 467 q 217 228 178 293 q 321 127 257 163 q 456 92 385 92 q 584 119 533 92 q 665 193 635 147 l 715 150 m 340 -156 l 418 0 l 494 0 l 443 -94 q 569 -131 519 -93 q 619 -222 619 -169 q 560 -322 619 -283 q 407 -361 501 -361 q 192 -268 265 -361 l 244 -178 l 249 -178 q 407 -293 296 -293 q 478 -274 451 -293 q 504 -219 504 -254 q 465 -162 504 -187 q 354 -153 425 -137 l 340 -156 z "},"ĉ":{"ha":736,"x_min":42,"x_max":715,"o":"m 715 150 q 666 80 700 119 q 573 10 632 40 q 424 -19 514 -19 q 277 11 346 -19 q 155 96 208 42 q 72 223 101 150 q 42 381 42 296 q 72 539 42 465 q 155 667 101 613 q 277 753 208 722 q 424 783 346 783 q 572 760 510 783 q 674 703 633 736 l 669 544 l 660 544 q 573 634 629 596 q 424 672 517 672 q 294 635 349 672 q 208 532 239 597 q 178 381 178 467 q 217 228 178 293 q 321 127 257 163 q 456 92 385 92 q 584 119 533 92 q 665 193 635 147 l 715 150 m 307 854 l 182 854 l 357 1076 l 486 1076 l 661 854 l 536 854 l 422 1019 l 307 854 z "},"ċ":{"ha":736,"x_min":42,"x_max":715,"o":"m 715 150 q 666 80 700 119 q 573 10 632 40 q 424 -19 514 -19 q 277 11 346 -19 q 155 96 208 42 q 72 223 101 150 q 42 381 42 296 q 72 539 42 465 q 155 667 101 613 q 277 753 208 722 q 424 783 346 783 q 572 760 510 783 q 674 703 633 736 l 669 544 l 660 544 q 573 634 629 596 q 424 672 517 672 q 294 635 349 672 q 208 532 239 597 q 178 381 178 467 q 217 228 178 293 q 321 127 257 163 q 456 92 385 92 q 584 119 533 92 q 665 193 635 147 l 715 150 m 421 854 q 342 887 375 854 q 310 965 310 919 q 342 1044 310 1011 q 421 1076 375 1076 q 499 1044 467 1076 q 532 965 532 1011 q 499 887 532 919 q 421 854 467 854 z "},"d":{"ha":871,"x_min":42,"x_max":808,"o":"m 757 307 q 762 184 757 232 q 778 103 767 136 q 808 39 790 71 l 808 31 l 624 -8 l 625 124 l 621 124 q 524 18 588 56 q 383 -19 461 -19 q 211 34 289 -19 q 88 178 133 88 q 42 381 42 269 q 88 585 42 494 q 215 730 135 676 q 393 783 294 783 q 524 752 467 783 q 615 661 581 721 l 625 661 l 625 768 q 619 891 625 843 q 603 972 614 939 q 572 1036 592 1006 l 572 1044 l 757 1083 l 757 307 m 625 428 q 592 546 619 490 q 517 637 565 601 q 394 672 468 672 q 235 595 293 672 q 178 381 178 518 q 242 170 178 249 q 413 92 306 92 q 559 146 501 92 q 625 288 617 200 l 625 428 z "},"ď":{"ha":871,"x_min":42,"x_max":971,"o":"m 757 307 q 762 184 757 232 q 778 103 767 136 q 808 39 790 71 l 808 31 l 624 -8 l 625 124 l 621 124 q 524 18 588 56 q 383 -19 461 -19 q 211 34 289 -19 q 88 178 133 88 q 42 381 42 269 q 88 585 42 494 q 215 730 135 676 q 393 783 294 783 q 524 752 467 783 q 615 661 581 721 l 625 661 l 625 768 q 619 891 625 843 q 603 972 614 939 q 572 1036 592 1006 l 572 1044 l 757 1083 l 757 307 m 625 428 q 592 546 619 490 q 517 637 565 601 q 394 672 468 672 q 235 595 293 672 q 178 381 178 518 q 242 170 178 249 q 413 92 306 92 q 559 146 501 92 q 625 288 617 200 l 625 428 m 889 1083 l 971 999 l 861 810 l 828 819 l 869 935 l 804 999 l 889 1083 z "},"đ":{"ha":925,"x_min":42,"x_max":911,"o":"m 756 307 q 761 184 756 232 q 778 103 767 136 q 808 39 790 71 l 808 31 l 624 -8 l 625 124 l 621 124 q 524 18 588 56 q 383 -19 461 -19 q 211 34 289 -19 q 88 178 133 88 q 42 381 42 269 q 88 585 42 494 q 215 730 135 676 q 393 783 294 783 q 524 752 467 783 q 615 661 581 721 l 625 661 l 625 815 q 547 810 582 814 q 461 797 511 807 l 461 931 q 543 917 508 921 q 617 913 578 914 q 600 981 611 953 q 572 1036 589 1010 l 572 1044 l 757 1083 l 756 913 q 830 917 796 914 q 911 931 864 921 l 911 797 q 830 810 864 807 q 756 815 796 814 l 756 307 m 625 428 q 592 546 619 490 q 517 637 565 601 q 394 672 468 672 q 235 595 293 672 q 178 381 178 518 q 242 170 178 249 q 413 92 306 92 q 559 146 501 92 q 625 288 617 200 l 625 428 z "},"ð":{"ha":919,"x_min":38,"x_max":899,"o":"m 381 -19 q 216 14 283 -19 q 109 101 149 47 q 53 222 69 156 q 43 353 38 288 q 108 550 53 465 q 249 681 163 635 q 439 728 335 728 q 568 703 517 728 q 650 642 619 679 q 696 565 681 606 q 682 701 697 639 q 638 815 667 764 q 553 815 589 815 q 485 810 518 814 q 407 797 451 807 l 407 931 q 484 919 451 922 q 553 914 517 915 q 452 966 508 947 q 329 985 396 985 l 329 1096 q 566 1047 467 1097 q 725 913 665 997 q 810 917 772 914 q 899 931 847 921 l 899 797 q 836 808 864 804 q 781 814 808 813 q 817 676 807 750 q 819 525 826 603 q 751 238 807 361 q 601 48 694 115 q 381 -19 508 -19 m 179 353 q 226 159 169 226 q 381 92 283 92 q 499 122 440 92 q 597 210 557 151 q 644 353 638 268 q 595 549 656 482 q 438 617 535 617 q 317 586 374 617 q 223 497 260 556 q 179 353 186 439 z "},"e":{"ha":776,"x_min":42,"x_max":742,"o":"m 424 -19 q 277 11 346 -19 q 155 96 208 42 q 72 223 101 150 q 42 381 42 296 q 72 539 42 465 q 154 667 101 613 q 276 753 207 722 q 422 783 344 783 q 597 730 526 783 q 705 585 668 676 q 742 381 742 494 l 178 381 q 215 235 178 301 q 315 131 251 169 q 456 92 378 92 q 584 119 533 92 q 665 193 635 147 l 715 150 q 666 80 700 119 q 573 10 632 40 q 424 -19 514 -19 m 189 485 l 597 485 q 536 622 582 571 q 408 672 490 672 q 264 622 319 672 q 189 485 208 571 z "},"é":{"ha":776,"x_min":42,"x_max":742,"o":"m 424 -19 q 277 11 346 -19 q 155 96 208 42 q 72 223 101 150 q 42 381 42 296 q 72 539 42 465 q 154 667 101 613 q 276 753 207 722 q 422 783 344 783 q 597 730 526 783 q 705 585 668 676 q 742 381 742 494 l 178 381 q 215 235 178 301 q 315 131 251 169 q 456 92 378 92 q 584 119 533 92 q 665 193 635 147 l 715 150 q 666 80 700 119 q 573 10 632 40 q 424 -19 514 -19 m 189 485 l 597 485 q 536 622 582 571 q 408 672 490 672 q 264 622 319 672 q 189 485 208 571 m 440 854 l 343 854 l 435 1076 l 608 1076 l 440 854 z "},"ě":{"ha":776,"x_min":42,"x_max":742,"o":"m 424 -19 q 277 11 346 -19 q 155 96 208 42 q 72 223 101 150 q 42 381 42 296 q 72 539 42 465 q 154 667 101 613 q 276 753 207 722 q 422 783 344 783 q 597 730 526 783 q 705 585 668 676 q 742 381 742 494 l 178 381 q 215 235 178 301 q 315 131 251 169 q 456 92 378 92 q 584 119 533 92 q 665 193 635 147 l 715 150 q 666 80 700 119 q 573 10 632 40 q 424 -19 514 -19 m 189 485 l 597 485 q 536 622 582 571 q 408 672 490 672 q 264 622 319 672 q 189 485 208 571 m 299 1076 l 414 911 l 528 1076 l 653 1076 l 478 854 l 349 854 l 174 1076 l 299 1076 z "},"ê":{"ha":776,"x_min":42,"x_max":742,"o":"m 424 -19 q 277 11 346 -19 q 155 96 208 42 q 72 223 101 150 q 42 381 42 296 q 72 539 42 465 q 154 667 101 613 q 276 753 207 722 q 422 783 344 783 q 597 730 526 783 q 705 585 668 676 q 742 381 742 494 l 178 381 q 215 235 178 301 q 315 131 251 169 q 456 92 378 92 q 584 119 533 92 q 665 193 635 147 l 715 150 q 666 80 700 119 q 573 10 632 40 q 424 -19 514 -19 m 189 485 l 597 485 q 536 622 582 571 q 408 672 490 672 q 264 622 319 672 q 189 485 208 571 m 299 854 l 174 854 l 349 1076 l 478 1076 l 653 854 l 528 854 l 414 1019 l 299 854 z "},"ë":{"ha":776,"x_min":42,"x_max":742,"o":"m 424 -19 q 277 11 346 -19 q 155 96 208 42 q 72 223 101 150 q 42 381 42 296 q 72 539 42 465 q 154 667 101 613 q 276 753 207 722 q 422 783 344 783 q 597 730 526 783 q 705 585 668 676 q 742 381 742 494 l 178 381 q 215 235 178 301 q 315 131 251 169 q 456 92 378 92 q 584 119 533 92 q 665 193 635 147 l 715 150 q 666 80 700 119 q 573 10 632 40 q 424 -19 514 -19 m 189 485 l 597 485 q 536 622 582 571 q 408 672 490 672 q 264 622 319 672 q 189 485 208 571 m 238 1083 l 346 975 l 238 867 l 129 975 l 238 1083 m 586 1083 l 694 975 l 586 867 l 478 975 l 586 1083 z "},"ė":{"ha":776,"x_min":42,"x_max":742,"o":"m 424 -19 q 277 11 346 -19 q 155 96 208 42 q 72 223 101 150 q 42 381 42 296 q 72 539 42 465 q 154 667 101 613 q 276 753 207 722 q 422 783 344 783 q 597 730 526 783 q 705 585 668 676 q 742 381 742 494 l 178 381 q 215 235 178 301 q 315 131 251 169 q 456 92 378 92 q 584 119 533 92 q 665 193 635 147 l 715 150 q 666 80 700 119 q 573 10 632 40 q 424 -19 514 -19 m 189 485 l 597 485 q 536 622 582 571 q 408 672 490 672 q 264 622 319 672 q 189 485 208 571 m 413 854 q 334 887 367 854 q 301 965 301 919 q 334 1044 301 1011 q 413 1076 367 1076 q 491 1044 458 1076 q 524 965 524 1011 q 491 887 524 919 q 413 854 458 854 z "},"è":{"ha":776,"x_min":42,"x_max":742,"o":"m 424 -19 q 277 11 346 -19 q 155 96 208 42 q 72 223 101 150 q 42 381 42 296 q 72 539 42 465 q 154 667 101 613 q 276 753 207 722 q 422 783 344 783 q 597 730 526 783 q 705 585 668 676 q 742 381 742 494 l 178 381 q 215 235 178 301 q 315 131 251 169 q 456 92 378 92 q 584 119 533 92 q 665 193 635 147 l 715 150 q 666 80 700 119 q 573 10 632 40 q 424 -19 514 -19 m 189 485 l 597 485 q 536 622 582 571 q 408 672 490 672 q 264 622 319 672 q 189 485 208 571 m 399 854 l 231 1076 l 404 1076 l 496 854 l 399 854 z "},"ē":{"ha":776,"x_min":42,"x_max":742,"o":"m 424 -19 q 277 11 346 -19 q 155 96 208 42 q 72 223 101 150 q 42 381 42 296 q 72 539 42 465 q 154 667 101 613 q 276 753 207 722 q 422 783 344 783 q 597 730 526 783 q 705 585 668 676 q 742 381 742 494 l 178 381 q 215 235 178 301 q 315 131 251 169 q 456 92 378 92 q 584 119 533 92 q 665 193 635 147 l 715 150 q 666 80 700 119 q 573 10 632 40 q 424 -19 514 -19 m 189 485 l 597 485 q 536 622 582 571 q 408 672 490 672 q 264 622 319 672 q 189 485 208 571 m 222 1026 l 603 1026 l 603 936 l 222 936 l 222 1026 z "},"ę":{"ha":776,"x_min":42,"x_max":742,"o":"m 424 -19 q 277 11 346 -19 q 155 96 208 42 q 72 223 101 150 q 42 381 42 296 q 72 539 42 465 q 154 667 101 613 q 276 753 207 722 q 422 783 344 783 q 597 730 526 783 q 705 585 668 676 q 742 381 742 494 l 178 381 q 215 235 178 301 q 315 131 251 169 q 456 92 378 92 q 584 119 533 92 q 665 193 635 147 l 715 150 q 666 80 700 119 q 573 10 632 40 q 424 -19 514 -19 m 189 485 l 597 485 q 536 622 582 571 q 408 672 490 672 q 264 622 319 672 q 189 485 208 571 m 546 0 q 425 -77 468 -26 q 382 -192 382 -128 q 479 -293 382 -293 q 574 -262 532 -293 q 638 -178 615 -232 l 642 -178 l 694 -268 q 603 -337 660 -312 q 479 -361 547 -361 q 326 -315 385 -361 q 267 -194 267 -269 q 328 -76 267 -128 q 528 26 389 -25 l 546 0 z "},"ẽ":{"ha":776,"x_min":42,"x_max":742,"o":"m 424 -19 q 277 11 346 -19 q 155 96 208 42 q 72 223 101 150 q 42 381 42 296 q 72 539 42 465 q 154 667 101 613 q 276 753 207 722 q 422 783 344 783 q 597 730 526 783 q 705 585 668 676 q 742 381 742 494 l 178 381 q 215 235 178 301 q 315 131 251 169 q 456 92 378 92 q 584 119 533 92 q 665 193 635 147 l 715 150 q 666 80 700 119 q 573 10 632 40 q 424 -19 514 -19 m 189 485 l 597 485 q 536 622 582 571 q 408 672 490 672 q 264 622 319 672 q 189 485 208 571 m 572 1058 l 656 1058 q 622 909 656 964 q 519 854 588 854 q 445 874 476 854 q 391 920 414 894 q 348 966 368 946 q 307 986 328 986 q 254 865 254 986 l 171 865 q 205 1018 171 960 q 307 1076 239 1076 q 381 1056 350 1076 q 435 1010 413 1036 q 478 965 458 985 q 519 944 499 944 q 572 1058 572 944 z "},"ə":{"ha":783,"x_min":42,"x_max":742,"o":"m 360 783 q 506 753 438 783 q 628 668 575 722 q 712 541 682 614 q 742 383 742 468 q 712 225 742 299 q 629 97 682 151 q 508 11 576 42 q 361 -19 439 -19 q 187 34 258 -19 q 78 179 115 88 q 42 383 42 271 l 606 383 q 569 529 606 464 q 469 634 532 594 q 328 672 407 674 q 200 644 251 672 q 118 571 149 617 l 68 614 q 118 684 85 644 q 210 753 151 724 q 360 783 269 783 m 594 279 l 186 279 q 247 143 201 194 q 375 92 293 92 q 520 143 465 92 q 594 279 575 194 z "},"f":{"ha":551,"x_min":21,"x_max":544,"o":"m 494 653 q 439 661 467 658 q 372 666 411 664 q 271 668 333 668 l 271 307 q 276 125 271 193 q 296 0 282 57 l 121 0 q 140 125 135 57 q 146 307 146 193 l 146 665 q 77 661 106 664 q 21 653 49 658 l 35 764 l 146 764 q 149 876 146 819 q 171 982 151 933 q 238 1060 190 1031 q 375 1090 286 1090 q 476 1076 436 1090 q 544 1046 515 1061 l 492 922 l 488 922 q 474 938 486 925 q 437 964 463 951 q 367 976 411 976 q 303 961 324 976 q 277 917 283 946 q 272 850 271 889 q 271 764 274 811 l 481 764 l 494 653 z "},"g":{"ha":808,"x_min":28,"x_max":794,"o":"m 393 150 q 218 199 294 150 q 204 155 208 181 q 221 114 200 129 q 300 94 244 96 q 447 85 356 92 q 560 74 500 82 q 674 44 621 65 q 761 -16 728 24 q 794 -122 794 -56 q 758 -244 794 -194 q 664 -325 722 -294 q 535 -369 606 -356 q 397 -383 465 -383 q 201 -353 285 -383 q 73 -270 118 -324 q 28 -147 28 -217 q 63 -44 28 -86 q 133 21 97 -3 q 98 56 111 35 q 85 110 85 78 q 113 193 85 160 q 164 242 142 226 q 101 339 124 282 q 78 465 78 396 q 120 633 78 563 q 235 744 163 704 q 393 783 307 783 q 501 763 450 783 q 636 764 586 763 q 719 769 686 765 q 785 778 753 772 l 771 667 l 638 667 q 690 577 669 628 q 710 465 710 526 q 682 335 710 393 q 608 235 654 276 q 506 172 563 194 q 393 150 450 150 m 392 261 q 490 290 450 261 q 552 365 531 318 q 574 465 574 413 q 552 566 574 519 q 490 642 531 613 q 392 671 450 671 q 294 642 335 671 q 234 565 254 613 q 214 465 214 518 q 234 365 214 413 q 294 290 254 318 q 392 261 335 261 m 164 -140 q 228 -240 164 -207 q 393 -272 292 -272 q 523 -255 463 -272 q 621 -204 583 -237 q 658 -121 658 -171 q 626 -53 658 -74 q 543 -28 593 -33 q 440 -21 493 -24 q 332 -16 386 -18 q 232 -8 278 -14 q 183 -69 201 -32 q 164 -140 164 -106 z "},"ğ":{"ha":808,"x_min":28,"x_max":794,"o":"m 393 150 q 218 199 294 150 q 204 155 208 181 q 221 114 200 129 q 300 94 244 96 q 447 85 356 92 q 560 74 500 82 q 674 44 621 65 q 761 -16 728 24 q 794 -122 794 -56 q 758 -244 794 -194 q 664 -325 722 -294 q 535 -369 606 -356 q 397 -383 465 -383 q 201 -353 285 -383 q 73 -270 118 -324 q 28 -147 28 -217 q 63 -44 28 -86 q 133 21 97 -3 q 98 56 111 35 q 85 110 85 78 q 113 193 85 160 q 164 242 142 226 q 101 339 124 282 q 78 465 78 396 q 120 633 78 563 q 235 744 163 704 q 393 783 307 783 q 501 763 450 783 q 636 764 586 763 q 719 769 686 765 q 785 778 753 772 l 771 667 l 638 667 q 690 577 669 628 q 710 465 710 526 q 682 335 710 393 q 608 235 654 276 q 506 172 563 194 q 393 150 450 150 m 392 261 q 490 290 450 261 q 552 365 531 318 q 574 465 574 413 q 552 566 574 519 q 490 642 531 613 q 392 671 450 671 q 294 642 335 671 q 234 565 254 613 q 214 465 214 518 q 234 365 214 413 q 294 290 254 318 q 392 261 335 261 m 164 -140 q 228 -240 164 -207 q 393 -272 292 -272 q 523 -255 463 -272 q 621 -204 583 -237 q 658 -121 658 -171 q 626 -53 658 -74 q 543 -28 593 -33 q 440 -21 493 -24 q 332 -16 386 -18 q 232 -8 278 -14 q 183 -69 201 -32 q 164 -140 164 -106 m 413 854 q 306 888 346 854 q 247 972 265 921 q 229 1076 229 1022 l 313 1076 q 319 1018 313 1049 q 348 966 326 988 q 413 944 369 944 q 478 966 457 944 q 506 1018 499 988 q 513 1076 513 1049 l 596 1076 q 578 972 596 1022 q 519 888 560 921 q 413 854 479 854 z "},"ǧ":{"ha":808,"x_min":28,"x_max":794,"o":"m 393 150 q 218 199 294 150 q 204 155 208 181 q 221 114 200 129 q 300 94 244 96 q 447 85 356 92 q 560 74 500 82 q 674 44 621 65 q 761 -16 728 24 q 794 -122 794 -56 q 758 -244 794 -194 q 664 -325 722 -294 q 535 -369 606 -356 q 397 -383 465 -383 q 201 -353 285 -383 q 73 -270 118 -324 q 28 -147 28 -217 q 63 -44 28 -86 q 133 21 97 -3 q 98 56 111 35 q 85 110 85 78 q 113 193 85 160 q 164 242 142 226 q 101 339 124 282 q 78 465 78 396 q 120 633 78 563 q 235 744 163 704 q 393 783 307 783 q 501 763 450 783 q 636 764 586 763 q 719 769 686 765 q 785 778 753 772 l 771 667 l 638 667 q 690 577 669 628 q 710 465 710 526 q 682 335 710 393 q 608 235 654 276 q 506 172 563 194 q 393 150 450 150 m 392 261 q 490 290 450 261 q 552 365 531 318 q 574 465 574 413 q 552 566 574 519 q 490 642 531 613 q 392 671 450 671 q 294 642 335 671 q 234 565 254 613 q 214 465 214 518 q 234 365 214 413 q 294 290 254 318 q 392 261 335 261 m 164 -140 q 228 -240 164 -207 q 393 -272 292 -272 q 523 -255 463 -272 q 621 -204 583 -237 q 658 -121 658 -171 q 626 -53 658 -74 q 543 -28 593 -33 q 440 -21 493 -24 q 332 -16 386 -18 q 232 -8 278 -14 q 183 -69 201 -32 q 164 -140 164 -106 m 297 1076 l 413 911 l 526 1076 l 651 1076 l 476 854 l 347 854 l 172 1076 l 297 1076 z "},"ĝ":{"ha":808,"x_min":28,"x_max":794,"o":"m 393 150 q 218 199 294 150 q 204 155 208 181 q 221 114 200 129 q 300 94 244 96 q 447 85 356 92 q 560 74 500 82 q 674 44 621 65 q 761 -16 728 24 q 794 -122 794 -56 q 758 -244 794 -194 q 664 -325 722 -294 q 535 -369 606 -356 q 397 -383 465 -383 q 201 -353 285 -383 q 73 -270 118 -324 q 28 -147 28 -217 q 63 -44 28 -86 q 133 21 97 -3 q 98 56 111 35 q 85 110 85 78 q 113 193 85 160 q 164 242 142 226 q 101 339 124 282 q 78 465 78 396 q 120 633 78 563 q 235 744 163 704 q 393 783 307 783 q 501 763 450 783 q 636 764 586 763 q 719 769 686 765 q 785 778 753 772 l 771 667 l 638 667 q 690 577 669 628 q 710 465 710 526 q 682 335 710 393 q 608 235 654 276 q 506 172 563 194 q 393 150 450 150 m 392 261 q 490 290 450 261 q 552 365 531 318 q 574 465 574 413 q 552 566 574 519 q 490 642 531 613 q 392 671 450 671 q 294 642 335 671 q 234 565 254 613 q 214 465 214 518 q 234 365 214 413 q 294 290 254 318 q 392 261 335 261 m 164 -140 q 228 -240 164 -207 q 393 -272 292 -272 q 523 -255 463 -272 q 621 -204 583 -237 q 658 -121 658 -171 q 626 -53 658 -74 q 543 -28 593 -33 q 440 -21 493 -24 q 332 -16 386 -18 q 232 -8 278 -14 q 183 -69 201 -32 q 164 -140 164 -106 m 297 854 l 172 854 l 347 1076 l 476 1076 l 651 854 l 526 854 l 413 1019 l 297 854 z "},"ģ":{"ha":808,"x_min":28,"x_max":794,"o":"m 393 150 q 218 199 294 150 q 204 155 208 181 q 221 114 200 129 q 300 94 244 96 q 447 85 356 92 q 560 74 500 82 q 674 44 621 65 q 761 -16 728 24 q 794 -122 794 -56 q 758 -244 794 -194 q 664 -325 722 -294 q 535 -369 606 -356 q 397 -383 465 -383 q 201 -353 285 -383 q 73 -270 118 -324 q 28 -147 28 -217 q 63 -44 28 -86 q 133 21 97 -3 q 98 56 111 35 q 85 110 85 78 q 113 193 85 160 q 164 242 142 226 q 101 339 124 282 q 78 465 78 396 q 120 633 78 563 q 235 744 163 704 q 393 783 307 783 q 501 763 450 783 q 636 764 586 763 q 719 769 686 765 q 785 778 753 772 l 771 667 l 638 667 q 690 577 669 628 q 710 465 710 526 q 682 335 710 393 q 608 235 654 276 q 506 172 563 194 q 393 150 450 150 m 392 261 q 490 290 450 261 q 552 365 531 318 q 574 465 574 413 q 552 566 574 519 q 490 642 531 613 q 392 671 450 671 q 294 642 335 671 q 234 565 254 613 q 214 465 214 518 q 234 365 214 413 q 294 290 254 318 q 392 261 335 261 m 164 -140 q 228 -240 164 -207 q 393 -272 292 -272 q 523 -255 463 -272 q 621 -204 583 -237 q 658 -121 658 -171 q 626 -53 658 -74 q 543 -28 593 -33 q 440 -21 493 -24 q 332 -16 386 -18 q 232 -8 278 -14 q 183 -69 201 -32 q 164 -140 164 -106 m 378 817 l 296 901 l 406 1090 l 439 1081 l 397 965 l 463 901 l 378 817 z "},"ġ":{"ha":808,"x_min":28,"x_max":794,"o":"m 393 150 q 218 199 294 150 q 204 155 208 181 q 221 114 200 129 q 300 94 244 96 q 447 85 356 92 q 560 74 500 82 q 674 44 621 65 q 761 -16 728 24 q 794 -122 794 -56 q 758 -244 794 -194 q 664 -325 722 -294 q 535 -369 606 -356 q 397 -383 465 -383 q 201 -353 285 -383 q 73 -270 118 -324 q 28 -147 28 -217 q 63 -44 28 -86 q 133 21 97 -3 q 98 56 111 35 q 85 110 85 78 q 113 193 85 160 q 164 242 142 226 q 101 339 124 282 q 78 465 78 396 q 120 633 78 563 q 235 744 163 704 q 393 783 307 783 q 501 763 450 783 q 636 764 586 763 q 719 769 686 765 q 785 778 753 772 l 771 667 l 638 667 q 690 577 669 628 q 710 465 710 526 q 682 335 710 393 q 608 235 654 276 q 506 172 563 194 q 393 150 450 150 m 392 261 q 490 290 450 261 q 552 365 531 318 q 574 465 574 413 q 552 566 574 519 q 490 642 531 613 q 392 671 450 671 q 294 642 335 671 q 234 565 254 613 q 214 465 214 518 q 234 365 214 413 q 294 290 254 318 q 392 261 335 261 m 164 -140 q 228 -240 164 -207 q 393 -272 292 -272 q 523 -255 463 -272 q 621 -204 583 -237 q 658 -121 658 -171 q 626 -53 658 -74 q 543 -28 593 -33 q 440 -21 493 -24 q 332 -16 386 -18 q 232 -8 278 -14 q 183 -69 201 -32 q 164 -140 164 -106 m 411 854 q 333 887 365 854 q 300 965 300 919 q 333 1044 300 1011 q 411 1076 365 1076 q 490 1044 457 1076 q 522 965 522 1011 q 490 887 522 919 q 411 854 457 854 z "},"ḡ":{"ha":808,"x_min":28,"x_max":794,"o":"m 393 150 q 218 199 294 150 q 204 155 208 181 q 221 114 200 129 q 300 94 244 96 q 447 85 356 92 q 560 74 500 82 q 674 44 621 65 q 761 -16 728 24 q 794 -122 794 -56 q 758 -244 794 -194 q 664 -325 722 -294 q 535 -369 606 -356 q 397 -383 465 -383 q 201 -353 285 -383 q 73 -270 118 -324 q 28 -147 28 -217 q 63 -44 28 -86 q 133 21 97 -3 q 98 56 111 35 q 85 110 85 78 q 113 193 85 160 q 164 242 142 226 q 101 339 124 282 q 78 465 78 396 q 120 633 78 563 q 235 744 163 704 q 393 783 307 783 q 501 763 450 783 q 636 764 586 763 q 719 769 686 765 q 785 778 753 772 l 771 667 l 638 667 q 690 577 669 628 q 710 465 710 526 q 682 335 710 393 q 608 235 654 276 q 506 172 563 194 q 393 150 450 150 m 392 261 q 490 290 450 261 q 552 365 531 318 q 574 465 574 413 q 552 566 574 519 q 490 642 531 613 q 392 671 450 671 q 294 642 335 671 q 234 565 254 613 q 214 465 214 518 q 234 365 214 413 q 294 290 254 318 q 392 261 335 261 m 164 -140 q 228 -240 164 -207 q 393 -272 292 -272 q 523 -255 463 -272 q 621 -204 583 -237 q 658 -121 658 -171 q 626 -53 658 -74 q 543 -28 593 -33 q 440 -21 493 -24 q 332 -16 386 -18 q 232 -8 278 -14 q 183 -69 201 -32 q 164 -140 164 -106 m 221 1026 l 601 1026 l 601 936 l 221 936 l 221 1026 z "},"h":{"ha":811,"x_min":56,"x_max":756,"o":"m 599 415 q 594 505 599 460 q 576 588 590 550 q 532 649 563 625 q 449 672 501 672 q 323 633 367 672 q 262 535 279 594 q 240 410 244 475 l 240 308 q 244 153 240 231 q 265 0 247 75 l 83 0 q 105 153 101 75 q 108 308 108 231 l 108 768 q 103 891 108 843 q 86 972 97 939 q 56 1036 75 1006 l 56 1044 l 240 1083 l 240 661 l 250 661 q 295 723 271 696 q 360 767 319 750 q 468 783 400 783 q 603 752 551 783 q 683 668 656 721 q 720 550 710 615 q 731 415 731 485 l 731 308 q 734 153 731 231 q 756 0 738 75 l 574 0 q 595 153 592 75 q 599 308 599 231 l 599 415 z "},"ħ":{"ha":876,"x_min":14,"x_max":821,"o":"m 664 415 q 660 505 664 460 q 642 588 656 550 q 597 649 628 625 q 514 672 567 672 q 388 633 432 672 q 327 535 344 594 q 306 410 310 475 l 306 308 q 309 153 306 231 q 331 0 313 75 l 149 0 q 170 153 167 75 q 174 308 174 231 l 174 815 q 97 810 132 814 q 14 797 63 807 l 14 931 q 94 917 60 921 q 165 913 128 914 q 149 981 160 953 q 121 1036 138 1010 l 121 1044 l 306 1083 l 306 913 q 381 917 346 914 q 464 931 417 921 l 464 797 q 381 810 417 807 q 306 815 346 814 l 306 661 l 315 661 q 360 723 336 696 q 425 767 385 750 q 533 783 465 783 q 669 752 617 783 q 748 668 721 721 q 785 550 775 615 q 796 415 796 485 l 796 308 q 799 153 796 231 q 821 0 803 75 l 639 0 q 660 153 657 75 q 664 308 664 231 l 664 415 z "},"ĥ":{"ha":811,"x_min":56,"x_max":756,"o":"m 599 415 q 594 505 599 460 q 576 588 590 550 q 532 649 563 625 q 449 672 501 672 q 323 633 367 672 q 262 535 279 594 q 240 410 244 475 l 240 308 q 244 153 240 231 q 265 0 247 75 l 83 0 q 105 153 101 75 q 108 308 108 231 l 108 768 q 103 891 108 843 q 86 972 97 939 q 56 1036 75 1006 l 56 1044 l 240 1083 l 240 661 l 250 661 q 295 723 271 696 q 360 767 319 750 q 468 783 400 783 q 603 752 551 783 q 683 668 656 721 q 720 550 710 615 q 731 415 731 485 l 731 308 q 734 153 731 231 q 756 0 738 75 l 574 0 q 595 153 592 75 q 599 308 599 231 l 599 415 m 289 1181 l 164 1181 l 339 1403 l 468 1403 l 643 1181 l 518 1181 l 404 1346 l 289 1181 z "},"i":{"ha":347,"x_min":56,"x_max":285,"o":"m 169 1094 l 285 981 l 169 865 l 56 981 l 169 1094 m 118 308 l 118 458 q 113 581 118 533 q 96 663 107 629 q 65 726 85 696 l 65 735 l 250 774 l 250 308 q 253 153 250 231 q 275 0 257 75 l 93 0 q 115 153 111 75 q 118 308 118 231 z "},"ı":{"ha":357,"x_min":78,"x_max":288,"o":"m 131 308 l 131 458 q 125 581 131 533 q 108 663 119 629 q 78 726 97 696 l 78 735 l 263 774 l 263 308 q 266 153 263 231 q 288 0 269 75 l 106 0 q 127 153 124 75 q 131 308 131 231 z "},"í":{"ha":357,"x_min":78,"x_max":378,"o":"m 131 308 l 131 458 q 125 581 131 533 q 108 663 119 629 q 78 726 97 696 l 78 735 l 263 774 l 263 308 q 266 153 263 231 q 288 0 269 75 l 106 0 q 127 153 124 75 q 131 308 131 231 m 210 854 l 113 854 l 204 1076 l 378 1076 l 210 854 z "},"ĭ":{"ha":357,"x_min":0,"x_max":367,"o":"m 131 308 l 131 458 q 125 581 131 533 q 108 663 119 629 q 78 726 97 696 l 78 735 l 263 774 l 263 308 q 266 153 263 231 q 288 0 269 75 l 106 0 q 127 153 124 75 q 131 308 131 231 m 183 854 q 76 888 117 854 q 18 972 36 921 q 0 1076 0 1022 l 83 1076 q 90 1018 83 1049 q 119 966 97 988 q 183 944 140 944 q 249 966 228 944 q 276 1018 269 988 q 283 1076 283 1049 l 367 1076 q 349 972 367 1022 q 290 888 331 921 q 183 854 250 854 z "},"î":{"ha":357,"x_min":-57,"x_max":422,"o":"m 131 308 l 131 458 q 125 581 131 533 q 108 663 119 629 q 78 726 97 696 l 78 735 l 263 774 l 263 308 q 266 153 263 231 q 288 0 269 75 l 106 0 q 127 153 124 75 q 131 308 131 231 m 68 854 l -57 854 l 118 1076 l 247 1076 l 422 854 l 297 854 l 183 1019 l 68 854 z "},"ï":{"ha":357,"x_min":-101,"x_max":464,"o":"m 131 308 l 131 458 q 125 581 131 533 q 108 663 119 629 q 78 726 97 696 l 78 735 l 263 774 l 263 308 q 266 153 263 231 q 288 0 269 75 l 106 0 q 127 153 124 75 q 131 308 131 231 m 7 1083 l 115 975 l 7 867 l -101 975 l 7 1083 m 356 1083 l 464 975 l 356 867 l 247 975 l 356 1083 z "},"ì":{"ha":357,"x_min":0,"x_max":288,"o":"m 131 308 l 131 458 q 125 581 131 533 q 108 663 119 629 q 78 726 97 696 l 78 735 l 263 774 l 263 308 q 266 153 263 231 q 288 0 269 75 l 106 0 q 127 153 124 75 q 131 308 131 231 m 168 854 l 0 1076 l 174 1076 l 265 854 l 168 854 z "},"ī":{"ha":357,"x_min":-8,"x_max":372,"o":"m 131 308 l 131 458 q 125 581 131 533 q 108 663 119 629 q 78 726 97 696 l 78 735 l 263 774 l 263 308 q 266 153 263 231 q 288 0 269 75 l 106 0 q 127 153 124 75 q 131 308 131 231 m -8 1026 l 372 1026 l 372 936 l -8 936 l -8 1026 z "},"į":{"ha":357,"x_min":8,"x_max":436,"o":"m 131 308 l 131 458 q 125 581 131 533 q 108 663 119 629 q 78 726 97 696 l 78 735 l 263 774 l 263 308 q 266 153 263 231 q 288 0 269 75 l 106 0 q 127 153 124 75 q 131 308 131 231 m 182 854 q 103 887 136 854 q 71 965 71 919 q 103 1044 71 1011 q 182 1076 136 1076 q 260 1044 228 1076 q 293 965 293 1011 q 260 887 293 919 q 182 854 228 854 m 288 0 q 167 -77 210 -26 q 124 -192 124 -128 q 221 -293 124 -293 q 315 -262 274 -293 q 379 -178 357 -232 l 383 -178 l 436 -268 q 345 -337 401 -312 q 221 -361 289 -361 q 67 -315 126 -361 q 8 -194 8 -269 q 69 -76 8 -128 q 269 26 131 -25 l 288 0 z "},"ĩ":{"ha":357,"x_min":-60,"x_max":425,"o":"m 131 308 l 131 458 q 125 581 131 533 q 108 663 119 629 q 78 726 97 696 l 78 735 l 263 774 l 263 308 q 266 153 263 231 q 288 0 269 75 l 106 0 q 127 153 124 75 q 131 308 131 231 m 342 1058 l 425 1058 q 391 909 425 964 q 289 854 357 854 q 215 874 246 854 q 160 920 183 894 q 117 966 138 946 q 76 986 97 986 q 24 865 24 986 l -60 865 q -26 1018 -60 960 q 76 1076 8 1076 q 151 1056 119 1076 q 205 1010 182 1036 q 248 965 228 985 q 289 944 268 944 q 342 1058 342 944 z "},"ĳ":{"ha":717,"x_min":56,"x_max":654,"o":"m 169 1094 l 285 981 l 169 865 l 56 981 l 169 1094 m 539 1094 l 654 981 l 539 865 l 425 981 l 539 1094 m 118 308 l 118 458 q 113 581 118 533 q 96 663 107 629 q 65 726 85 696 l 65 735 l 250 774 l 250 308 q 253 153 250 231 q 275 0 257 75 l 93 0 q 115 153 111 75 q 118 308 118 231 m 625 458 l 625 -39 q 548 -297 622 -214 q 325 -381 474 -381 q 214 -368 258 -381 q 144 -340 169 -356 q 110 -319 118 -325 l 83 -144 l 88 -143 q 130 -185 101 -156 q 206 -237 158 -214 q 321 -261 253 -261 q 457 -193 419 -260 q 494 6 494 -126 l 494 458 q 489 581 494 533 q 472 663 483 629 q 442 726 461 696 l 442 735 l 626 774 l 625 458 z "},"j":{"ha":376,"x_min":-111,"x_max":314,"o":"m 199 1094 l 314 981 l 199 865 l 85 981 l 199 1094 m 285 -39 q 257 -216 285 -139 q 168 -337 229 -293 q 6 -381 107 -381 q -16 -380 1 -381 q -53 -378 -33 -379 q -85 -375 -74 -376 l -111 -208 l -107 -207 q -66 -231 -93 -219 q -7 -247 -39 -242 q 51 -249 25 -253 q 131 -184 108 -240 q 154 -17 154 -128 l 154 458 q 149 581 154 533 q 132 663 143 629 q 101 726 121 696 l 101 735 l 285 774 l 285 -39 z "},"ȷ":{"ha":397,"x_min":-69,"x_max":328,"o":"m 326 -39 q 299 -216 326 -139 q 210 -337 271 -293 q 47 -381 149 -381 q 26 -380 43 -381 q -12 -378 8 -379 q -43 -375 -32 -376 l -69 -208 l -65 -207 q -24 -231 -51 -219 q 35 -247 3 -242 q 93 -249 67 -253 q 173 -184 150 -240 q 196 -17 196 -128 l 196 458 q 190 581 196 533 q 174 663 185 629 q 143 726 163 696 l 143 735 l 328 774 l 326 458 l 326 -39 z "},"ĵ":{"ha":397,"x_min":-69,"x_max":481,"o":"m 326 -39 q 299 -216 326 -139 q 210 -337 271 -293 q 47 -381 149 -381 q 26 -380 43 -381 q -12 -378 8 -379 q -43 -375 -32 -376 l -69 -208 l -65 -207 q -24 -231 -51 -219 q 35 -247 3 -242 q 93 -249 67 -253 q 173 -184 150 -240 q 196 -17 196 -128 l 196 458 q 190 581 196 533 q 174 663 185 629 q 143 726 163 696 l 143 735 l 328 774 l 326 458 l 326 -39 m 126 854 l 1 854 l 176 1076 l 306 1076 l 481 854 l 356 854 l 242 1019 l 126 854 z "},"k":{"ha":838,"x_min":56,"x_max":803,"o":"m 610 183 q 699 92 654 135 q 803 0 744 49 l 610 0 q 586 36 607 8 q 533 99 565 64 l 240 411 l 240 308 q 244 153 240 231 q 265 0 247 75 l 83 0 q 105 153 101 75 q 108 308 108 231 l 108 768 q 103 891 108 843 q 86 972 97 939 q 56 1036 75 1006 l 56 1044 l 240 1083 l 240 415 l 460 650 q 522 724 497 693 q 550 764 546 754 l 743 764 q 662 693 699 726 q 590 625 625 660 l 392 414 l 610 183 z "},"ķ":{"ha":838,"x_min":56,"x_max":803,"o":"m 610 183 q 699 92 654 135 q 803 0 744 49 l 610 0 q 586 36 607 8 q 533 99 565 64 l 240 411 l 240 308 q 244 153 240 231 q 265 0 247 75 l 83 0 q 105 153 101 75 q 108 308 108 231 l 108 768 q 103 891 108 843 q 86 972 97 939 q 56 1036 75 1006 l 56 1044 l 240 1083 l 240 415 l 460 650 q 522 724 497 693 q 550 764 546 754 l 743 764 q 662 693 699 726 q 590 625 625 660 l 392 414 l 610 183 m 415 -71 l 497 -156 l 388 -344 l 354 -335 l 396 -219 l 331 -156 l 415 -71 z "},"l":{"ha":335,"x_min":56,"x_max":265,"o":"m 108 308 l 108 768 q 103 891 108 843 q 86 972 97 939 q 56 1036 75 1006 l 56 1044 l 240 1083 l 240 308 q 244 153 240 231 q 265 0 247 75 l 83 0 q 105 153 101 75 q 108 308 108 231 z "},"ĺ":{"ha":335,"x_min":56,"x_max":367,"o":"m 108 308 l 108 768 q 103 891 108 843 q 86 972 97 939 q 56 1036 75 1006 l 56 1044 l 240 1083 l 240 308 q 244 153 240 231 q 265 0 247 75 l 83 0 q 105 153 101 75 q 108 308 108 231 m 199 1181 l 101 1181 l 193 1403 l 367 1403 l 199 1181 z "},"ľ":{"ha":447,"x_min":56,"x_max":442,"o":"m 108 308 l 108 768 q 103 891 108 843 q 86 972 97 939 q 56 1036 75 1006 l 56 1044 l 240 1083 l 240 308 q 244 153 240 231 q 265 0 247 75 l 83 0 q 105 153 101 75 q 108 308 108 231 m 360 1083 l 442 999 l 332 810 l 299 819 l 340 935 l 275 999 l 360 1083 z "},"ļ":{"ha":335,"x_min":56,"x_max":265,"o":"m 108 308 l 108 768 q 103 891 108 843 q 86 972 97 939 q 56 1036 75 1006 l 56 1044 l 240 1083 l 240 308 q 244 153 240 231 q 265 0 247 75 l 83 0 q 105 153 101 75 q 108 308 108 231 m 171 -71 l 253 -156 l 143 -344 l 110 -335 l 151 -219 l 86 -156 l 171 -71 z "},"ł":{"ha":604,"x_min":28,"x_max":576,"o":"m 236 308 l 236 428 l 175 408 q 96 380 132 394 q 28 346 60 365 l 28 493 q 113 507 58 493 q 236 540 168 521 l 236 768 q 231 891 236 843 q 214 972 225 939 q 183 1036 203 1006 l 183 1044 l 368 1083 l 368 579 l 429 599 q 510 628 474 614 q 576 661 546 643 l 576 514 q 492 500 546 514 q 368 467 438 486 l 368 308 q 372 153 368 231 q 393 0 375 75 l 211 0 q 233 153 229 75 q 236 308 236 231 z "},"m":{"ha":1244,"x_min":56,"x_max":1189,"o":"m 571 415 q 569 502 571 457 q 555 585 567 547 q 515 648 543 624 q 435 672 488 672 q 317 633 358 672 q 260 535 276 594 q 240 410 244 475 l 240 308 q 244 153 240 231 q 265 0 247 75 l 83 0 q 105 153 101 75 q 108 308 108 231 l 108 458 q 103 581 108 533 q 86 663 97 629 q 56 726 75 696 l 56 735 l 240 774 l 240 661 l 250 661 q 294 723 271 696 q 354 767 317 750 q 454 783 392 783 q 599 742 547 783 q 674 638 650 701 l 682 638 q 733 706 703 672 q 807 761 763 739 q 914 783 851 783 q 1049 751 999 783 q 1124 666 1099 719 q 1156 547 1149 613 q 1164 415 1164 482 l 1164 308 q 1167 153 1164 231 q 1189 0 1171 75 l 1007 0 q 1028 153 1025 75 q 1032 308 1032 231 l 1032 415 q 1031 502 1032 457 q 1018 585 1029 547 q 978 648 1007 624 q 896 672 950 672 q 777 638 817 672 q 722 548 738 603 q 703 432 707 493 l 703 308 q 706 153 703 231 q 728 0 710 75 l 546 0 q 567 153 564 75 q 571 308 571 231 l 571 415 z "},"n":{"ha":811,"x_min":56,"x_max":756,"o":"m 599 415 q 594 505 599 460 q 576 588 590 550 q 532 649 563 625 q 449 672 501 672 q 323 633 367 672 q 262 535 279 594 q 240 410 244 475 l 240 308 q 244 153 240 231 q 265 0 247 75 l 83 0 q 105 153 101 75 q 108 308 108 231 l 108 458 q 103 581 108 533 q 86 663 97 629 q 56 726 75 696 l 56 735 l 240 774 l 240 661 l 250 661 q 295 723 271 696 q 360 767 319 750 q 468 783 400 783 q 603 752 551 783 q 683 668 656 721 q 720 550 710 615 q 731 415 731 485 l 731 308 q 734 153 731 231 q 756 0 738 75 l 574 0 q 595 153 592 75 q 599 308 599 231 l 599 415 z "},"ń":{"ha":811,"x_min":56,"x_max":756,"o":"m 599 415 q 594 505 599 460 q 576 588 590 550 q 532 649 563 625 q 449 672 501 672 q 323 633 367 672 q 262 535 279 594 q 240 410 244 475 l 240 308 q 244 153 240 231 q 265 0 247 75 l 83 0 q 105 153 101 75 q 108 308 108 231 l 108 458 q 103 581 108 533 q 86 663 97 629 q 56 726 75 696 l 56 735 l 240 774 l 240 661 l 250 661 q 295 723 271 696 q 360 767 319 750 q 468 783 400 783 q 603 752 551 783 q 683 668 656 721 q 720 550 710 615 q 731 415 731 485 l 731 308 q 734 153 731 231 q 756 0 738 75 l 574 0 q 595 153 592 75 q 599 308 599 231 l 599 415 m 428 854 l 331 854 l 422 1076 l 596 1076 l 428 854 z "},"ň":{"ha":811,"x_min":56,"x_max":756,"o":"m 599 415 q 594 505 599 460 q 576 588 590 550 q 532 649 563 625 q 449 672 501 672 q 323 633 367 672 q 262 535 279 594 q 240 410 244 475 l 240 308 q 244 153 240 231 q 265 0 247 75 l 83 0 q 105 153 101 75 q 108 308 108 231 l 108 458 q 103 581 108 533 q 86 663 97 629 q 56 726 75 696 l 56 735 l 240 774 l 240 661 l 250 661 q 295 723 271 696 q 360 767 319 750 q 468 783 400 783 q 603 752 551 783 q 683 668 656 721 q 720 550 710 615 q 731 415 731 485 l 731 308 q 734 153 731 231 q 756 0 738 75 l 574 0 q 595 153 592 75 q 599 308 599 231 l 599 415 m 286 1076 l 401 911 l 515 1076 l 640 1076 l 465 854 l 336 854 l 161 1076 l 286 1076 z "},"ņ":{"ha":811,"x_min":56,"x_max":756,"o":"m 599 415 q 594 505 599 460 q 576 588 590 550 q 532 649 563 625 q 449 672 501 672 q 323 633 367 672 q 262 535 279 594 q 240 410 244 475 l 240 308 q 244 153 240 231 q 265 0 247 75 l 83 0 q 105 153 101 75 q 108 308 108 231 l 108 458 q 103 581 108 533 q 86 663 97 629 q 56 726 75 696 l 56 735 l 240 774 l 240 661 l 250 661 q 295 723 271 696 q 360 767 319 750 q 468 783 400 783 q 603 752 551 783 q 683 668 656 721 q 720 550 710 615 q 731 415 731 485 l 731 308 q 734 153 731 231 q 756 0 738 75 l 574 0 q 595 153 592 75 q 599 308 599 231 l 599 415 m 403 -71 l 485 -156 l 375 -344 l 342 -335 l 383 -219 l 318 -156 l 403 -71 z "},"ñ":{"ha":811,"x_min":56,"x_max":756,"o":"m 599 415 q 594 505 599 460 q 576 588 590 550 q 532 649 563 625 q 449 672 501 672 q 323 633 367 672 q 262 535 279 594 q 240 410 244 475 l 240 308 q 244 153 240 231 q 265 0 247 75 l 83 0 q 105 153 101 75 q 108 308 108 231 l 108 458 q 103 581 108 533 q 86 663 97 629 q 56 726 75 696 l 56 735 l 240 774 l 240 661 l 250 661 q 295 723 271 696 q 360 767 319 750 q 468 783 400 783 q 603 752 551 783 q 683 668 656 721 q 720 550 710 615 q 731 415 731 485 l 731 308 q 734 153 731 231 q 756 0 738 75 l 574 0 q 595 153 592 75 q 599 308 599 231 l 599 415 m 560 1058 l 643 1058 q 609 909 643 964 q 507 854 575 854 q 433 874 464 854 q 378 920 401 894 q 335 966 356 946 q 294 986 315 986 q 242 865 242 986 l 158 865 q 192 1018 158 960 q 294 1076 226 1076 q 369 1056 338 1076 q 423 1010 400 1036 q 466 965 446 985 q 507 944 486 944 q 560 1058 560 944 z "},"o":{"ha":849,"x_min":42,"x_max":807,"o":"m 424 -19 q 227 33 314 -19 q 91 177 140 86 q 42 381 42 268 q 91 585 42 494 q 227 730 140 676 q 424 783 314 783 q 621 730 535 783 q 757 585 707 676 q 807 381 807 494 q 757 177 807 268 q 621 33 707 86 q 424 -19 535 -19 m 422 92 q 550 128 494 92 q 638 231 606 165 q 671 381 671 296 q 638 533 671 467 q 550 635 606 599 q 422 672 494 672 q 296 635 351 672 q 209 532 240 597 q 178 381 178 467 q 209 231 178 296 q 296 128 240 165 q 422 92 351 92 z "},"ó":{"ha":849,"x_min":42,"x_max":807,"o":"m 424 -19 q 227 33 314 -19 q 91 177 140 86 q 42 381 42 268 q 91 585 42 494 q 227 730 140 676 q 424 783 314 783 q 621 730 535 783 q 757 585 707 676 q 807 381 807 494 q 757 177 807 268 q 621 33 707 86 q 424 -19 535 -19 m 422 92 q 550 128 494 92 q 638 231 606 165 q 671 381 671 296 q 638 533 671 467 q 550 635 606 599 q 422 672 494 672 q 296 635 351 672 q 209 532 240 597 q 178 381 178 467 q 209 231 178 296 q 296 128 240 165 q 422 92 351 92 m 453 854 l 356 854 l 447 1076 l 621 1076 l 453 854 z "},"ŏ":{"ha":849,"x_min":42,"x_max":807,"o":"m 424 -19 q 227 33 314 -19 q 91 177 140 86 q 42 381 42 268 q 91 585 42 494 q 227 730 140 676 q 424 783 314 783 q 621 730 535 783 q 757 585 707 676 q 807 381 807 494 q 757 177 807 268 q 621 33 707 86 q 424 -19 535 -19 m 422 92 q 550 128 494 92 q 638 231 606 165 q 671 381 671 296 q 638 533 671 467 q 550 635 606 599 q 422 672 494 672 q 296 635 351 672 q 209 532 240 597 q 178 381 178 467 q 209 231 178 296 q 296 128 240 165 q 422 92 351 92 m 426 854 q 319 888 360 854 q 261 972 279 921 q 243 1076 243 1022 l 326 1076 q 333 1018 326 1049 q 362 966 340 988 q 426 944 383 944 q 492 966 471 944 q 519 1018 513 988 q 526 1076 526 1049 l 610 1076 q 592 972 610 1022 q 533 888 574 921 q 426 854 493 854 z "},"ô":{"ha":849,"x_min":42,"x_max":807,"o":"m 424 -19 q 227 33 314 -19 q 91 177 140 86 q 42 381 42 268 q 91 585 42 494 q 227 730 140 676 q 424 783 314 783 q 621 730 535 783 q 757 585 707 676 q 807 381 807 494 q 757 177 807 268 q 621 33 707 86 q 424 -19 535 -19 m 422 92 q 550 128 494 92 q 638 231 606 165 q 671 381 671 296 q 638 533 671 467 q 550 635 606 599 q 422 672 494 672 q 296 635 351 672 q 209 532 240 597 q 178 381 178 467 q 209 231 178 296 q 296 128 240 165 q 422 92 351 92 m 311 854 l 186 854 l 361 1076 l 490 1076 l 665 854 l 540 854 l 426 1019 l 311 854 z "},"ö":{"ha":849,"x_min":42,"x_max":807,"o":"m 424 -19 q 227 33 314 -19 q 91 177 140 86 q 42 381 42 268 q 91 585 42 494 q 227 730 140 676 q 424 783 314 783 q 621 730 535 783 q 757 585 707 676 q 807 381 807 494 q 757 177 807 268 q 621 33 707 86 q 424 -19 535 -19 m 422 92 q 550 128 494 92 q 638 231 606 165 q 671 381 671 296 q 638 533 671 467 q 550 635 606 599 q 422 672 494 672 q 296 635 351 672 q 209 532 240 597 q 178 381 178 467 q 209 231 178 296 q 296 128 240 165 q 422 92 351 92 m 250 1083 l 358 975 l 250 867 l 142 975 l 250 1083 m 599 1083 l 707 975 l 599 867 l 490 975 l 599 1083 z "},"ò":{"ha":849,"x_min":42,"x_max":807,"o":"m 424 -19 q 227 33 314 -19 q 91 177 140 86 q 42 381 42 268 q 91 585 42 494 q 227 730 140 676 q 424 783 314 783 q 621 730 535 783 q 757 585 707 676 q 807 381 807 494 q 757 177 807 268 q 621 33 707 86 q 424 -19 535 -19 m 422 92 q 550 128 494 92 q 638 231 606 165 q 671 381 671 296 q 638 533 671 467 q 550 635 606 599 q 422 672 494 672 q 296 635 351 672 q 209 532 240 597 q 178 381 178 467 q 209 231 178 296 q 296 128 240 165 q 422 92 351 92 m 411 854 l 243 1076 l 417 1076 l 508 854 l 411 854 z "},"ő":{"ha":849,"x_min":42,"x_max":807,"o":"m 424 -19 q 227 33 314 -19 q 91 177 140 86 q 42 381 42 268 q 91 585 42 494 q 227 730 140 676 q 424 783 314 783 q 621 730 535 783 q 757 585 707 676 q 807 381 807 494 q 757 177 807 268 q 621 33 707 86 q 424 -19 535 -19 m 422 92 q 550 128 494 92 q 638 231 606 165 q 671 381 671 296 q 638 533 671 467 q 550 635 606 599 q 422 672 494 672 q 296 635 351 672 q 209 532 240 597 q 178 381 178 467 q 209 231 178 296 q 296 128 240 165 q 422 92 351 92 m 336 854 l 239 854 l 331 1076 l 504 1076 l 336 854 m 571 854 l 474 854 l 565 1076 l 739 1076 l 571 854 z "},"ō":{"ha":849,"x_min":42,"x_max":807,"o":"m 424 -19 q 227 33 314 -19 q 91 177 140 86 q 42 381 42 268 q 91 585 42 494 q 227 730 140 676 q 424 783 314 783 q 621 730 535 783 q 757 585 707 676 q 807 381 807 494 q 757 177 807 268 q 621 33 707 86 q 424 -19 535 -19 m 422 92 q 550 128 494 92 q 638 231 606 165 q 671 381 671 296 q 638 533 671 467 q 550 635 606 599 q 422 672 494 672 q 296 635 351 672 q 209 532 240 597 q 178 381 178 467 q 209 231 178 296 q 296 128 240 165 q 422 92 351 92 m 235 1026 l 615 1026 l 615 936 l 235 936 l 235 1026 z "},"ø":{"ha":875,"x_min":42,"x_max":833,"o":"m 438 -19 q 334 -6 383 -19 q 242 33 285 8 q 225 0 232 17 l 42 0 q 92 48 65 19 q 150 111 119 76 q 81 233 106 164 q 56 381 56 301 q 105 585 56 494 q 241 730 154 676 q 438 783 328 783 q 542 769 493 783 q 635 729 592 756 q 650 764 646 751 l 833 764 q 788 715 814 744 q 728 649 761 686 q 797 527 772 596 q 821 381 821 458 q 771 177 821 268 q 635 33 721 86 q 438 -19 549 -19 m 192 381 q 203 290 192 332 q 232 213 214 247 l 271 260 l 476 511 q 526 574 503 543 q 569 631 550 604 q 436 672 510 672 q 310 635 365 672 q 223 532 254 597 q 192 381 192 467 m 436 92 q 564 128 508 92 q 652 231 619 165 q 685 381 685 296 q 674 471 685 429 q 644 547 664 513 l 588 476 l 368 197 l 313 126 q 436 92 367 92 z "},"õ":{"ha":849,"x_min":42,"x_max":807,"o":"m 424 -19 q 227 33 314 -19 q 91 177 140 86 q 42 381 42 268 q 91 585 42 494 q 227 730 140 676 q 424 783 314 783 q 621 730 535 783 q 757 585 707 676 q 807 381 807 494 q 757 177 807 268 q 621 33 707 86 q 424 -19 535 -19 m 422 92 q 550 128 494 92 q 638 231 606 165 q 671 381 671 296 q 638 533 671 467 q 550 635 606 599 q 422 672 494 672 q 296 635 351 672 q 209 532 240 597 q 178 381 178 467 q 209 231 178 296 q 296 128 240 165 q 422 92 351 92 m 585 1058 l 668 1058 q 634 909 668 964 q 532 854 600 854 q 458 874 489 854 q 403 920 426 894 q 360 966 381 946 q 319 986 340 986 q 267 865 267 986 l 183 865 q 217 1018 183 960 q 319 1076 251 1076 q 394 1056 363 1076 q 448 1010 425 1036 q 491 965 471 985 q 532 944 511 944 q 585 1058 585 944 z "},"œ":{"ha":1413,"x_min":49,"x_max":1378,"o":"m 431 -19 q 234 33 321 -19 q 98 177 147 86 q 49 381 49 268 q 98 585 49 494 q 234 730 147 676 q 431 783 321 783 q 615 737 533 783 q 747 613 696 690 q 881 737 800 690 q 1058 783 963 783 q 1233 730 1163 783 q 1341 585 1304 676 q 1378 381 1378 494 l 814 381 q 855 226 814 296 q 966 120 896 157 q 1122 93 1036 83 q 1214 118 1178 100 q 1271 158 1250 136 q 1301 193 1292 179 l 1351 150 q 1302 80 1336 119 q 1209 10 1268 40 q 1060 -19 1150 -19 q 882 26 964 -19 q 747 150 800 72 q 615 26 697 72 q 431 -19 533 -19 m 429 92 q 557 128 501 92 q 645 231 613 165 q 678 381 678 296 q 645 533 678 467 q 557 635 613 599 q 429 672 501 672 q 303 635 358 672 q 216 532 247 597 q 185 381 185 467 q 216 231 185 296 q 303 128 247 165 q 429 92 358 92 m 825 485 l 1233 485 q 1172 622 1218 571 q 1044 672 1126 672 q 900 622 956 672 q 825 485 844 571 z "},"p":{"ha":850,"x_min":42,"x_max":808,"o":"m 467 -19 q 366 -3 408 -19 q 296 38 324 14 q 252 86 268 63 q 229 124 236 110 l 226 124 l 226 -53 q 230 -208 226 -131 q 251 -361 233 -286 l 69 -361 q 91 -208 88 -286 q 94 -53 94 -131 l 94 460 q 89 583 94 535 q 72 664 83 631 q 42 728 61 697 l 42 736 l 226 775 l 225 661 l 235 661 q 457 783 307 783 q 638 731 558 783 q 763 588 717 679 q 808 381 808 497 q 764 175 808 265 q 642 33 719 85 q 467 -19 565 -19 m 226 317 q 283 153 226 215 q 438 92 340 92 q 609 169 546 92 q 672 381 672 247 q 613 593 672 514 q 456 672 554 672 q 332 633 382 672 q 256 535 282 594 q 226 410 231 475 l 226 317 z "},"þ":{"ha":850,"x_min":42,"x_max":808,"o":"m 226 661 l 235 661 q 457 783 307 783 q 638 731 558 783 q 763 588 717 679 q 808 381 808 497 q 764 175 808 265 q 642 33 719 85 q 467 -19 565 -19 q 366 -3 408 -19 q 296 38 324 14 q 252 86 268 63 q 229 124 236 110 l 226 124 l 226 -53 q 230 -208 226 -131 q 251 -361 233 -286 l 69 -361 q 91 -208 88 -286 q 94 -53 94 -131 l 94 768 q 89 891 94 843 q 72 972 83 939 q 42 1036 61 1006 l 42 1044 l 226 1083 l 226 661 m 226 317 q 283 153 226 215 q 438 92 340 92 q 609 169 546 92 q 672 381 672 247 q 613 593 672 514 q 456 672 554 672 q 332 633 382 672 q 256 535 282 594 q 226 410 231 475 l 226 317 z "},"q":{"ha":850,"x_min":42,"x_max":781,"o":"m 781 764 q 759 611 763 689 q 756 456 756 533 l 756 -53 q 759 -208 756 -131 q 781 -361 763 -286 l 599 -361 q 620 -208 617 -286 q 624 -53 624 -131 l 624 124 l 621 124 q 524 18 588 56 q 383 -19 461 -19 q 211 34 289 -19 q 88 178 133 88 q 42 381 42 269 q 88 585 42 494 q 215 730 135 676 q 393 783 294 783 q 615 661 543 783 l 624 661 q 630 713 626 688 q 643 764 633 738 l 781 764 m 178 381 q 240 169 178 246 q 413 92 303 92 q 565 154 507 92 q 624 317 624 217 l 624 410 q 556 603 617 533 q 394 672 494 672 q 235 596 292 672 q 178 381 178 519 z "},"r":{"ha":579,"x_min":56,"x_max":544,"o":"m 536 594 q 483 646 514 633 q 413 658 453 658 q 314 617 350 658 q 261 506 278 575 q 240 354 244 438 l 240 308 q 244 153 240 231 q 265 0 247 75 l 83 0 q 105 153 101 75 q 108 308 108 231 l 108 458 q 103 581 108 533 q 86 663 97 629 q 56 726 75 696 l 56 735 l 240 774 l 240 619 l 250 619 q 322 738 268 692 q 454 783 375 783 q 520 772 496 783 q 544 760 544 760 l 544 594 l 536 594 z "},"ŕ":{"ha":579,"x_min":56,"x_max":544,"o":"m 536 594 q 483 646 514 633 q 413 658 453 658 q 314 617 350 658 q 261 506 278 575 q 240 354 244 438 l 240 308 q 244 153 240 231 q 265 0 247 75 l 83 0 q 105 153 101 75 q 108 308 108 231 l 108 458 q 103 581 108 533 q 86 663 97 629 q 56 726 75 696 l 56 735 l 240 774 l 240 619 l 250 619 q 322 738 268 692 q 454 783 375 783 q 520 772 496 783 q 544 760 544 760 l 544 594 l 536 594 m 311 854 l 214 854 l 306 1076 l 479 1076 l 311 854 z "},"ř":{"ha":579,"x_min":44,"x_max":544,"o":"m 536 594 q 483 646 514 633 q 413 658 453 658 q 314 617 350 658 q 261 506 278 575 q 240 354 244 438 l 240 308 q 244 153 240 231 q 265 0 247 75 l 83 0 q 105 153 101 75 q 108 308 108 231 l 108 458 q 103 581 108 533 q 86 663 97 629 q 56 726 75 696 l 56 735 l 240 774 l 240 619 l 250 619 q 322 738 268 692 q 454 783 375 783 q 520 772 496 783 q 544 760 544 760 l 544 594 l 536 594 m 169 1076 l 285 911 l 399 1076 l 524 1076 l 349 854 l 219 854 l 44 1076 l 169 1076 z "},"ŗ":{"ha":579,"x_min":56,"x_max":544,"o":"m 536 594 q 483 646 514 633 q 413 658 453 658 q 314 617 350 658 q 261 506 278 575 q 240 354 244 438 l 240 308 q 244 153 240 231 q 265 0 247 75 l 83 0 q 105 153 101 75 q 108 308 108 231 l 108 458 q 103 581 108 533 q 86 663 97 629 q 56 726 75 696 l 56 735 l 240 774 l 240 619 l 250 619 q 322 738 268 692 q 454 783 375 783 q 520 772 496 783 q 544 760 544 760 l 544 594 l 536 594 m 172 -71 l 254 -156 l 144 -344 l 111 -335 l 153 -219 l 88 -156 l 172 -71 z "},"s":{"ha":583,"x_min":49,"x_max":535,"o":"m 497 704 l 481 564 l 475 564 q 406 644 453 615 q 307 672 360 672 q 210 649 247 672 q 174 578 174 626 q 217 497 174 525 q 318 446 261 469 q 418 398 368 425 q 501 326 468 371 q 535 204 535 281 q 499 82 535 132 q 405 6 464 32 q 275 -19 346 -19 q 168 1 215 -19 q 90 49 121 21 q 49 99 58 76 l 68 253 l 74 253 q 91 209 76 236 q 132 156 106 182 q 194 110 158 129 q 275 92 231 92 q 376 122 338 92 q 414 208 414 153 q 370 290 414 261 q 268 344 326 319 q 169 392 218 367 q 87 460 119 418 q 54 571 54 503 q 88 690 54 643 q 180 760 122 736 q 308 783 238 783 q 433 755 386 783 q 497 704 479 726 z "},"ś":{"ha":583,"x_min":49,"x_max":535,"o":"m 497 704 l 481 564 l 475 564 q 406 644 453 615 q 307 672 360 672 q 210 649 247 672 q 174 578 174 626 q 217 497 174 525 q 318 446 261 469 q 418 398 368 425 q 501 326 468 371 q 535 204 535 281 q 499 82 535 132 q 405 6 464 32 q 275 -19 346 -19 q 168 1 215 -19 q 90 49 121 21 q 49 99 58 76 l 68 253 l 74 253 q 91 209 76 236 q 132 156 106 182 q 194 110 158 129 q 275 92 231 92 q 376 122 338 92 q 414 208 414 153 q 370 290 414 261 q 268 344 326 319 q 169 392 218 367 q 87 460 119 418 q 54 571 54 503 q 88 690 54 643 q 180 760 122 736 q 308 783 238 783 q 433 755 386 783 q 497 704 479 726 m 319 854 l 222 854 l 314 1076 l 488 1076 l 319 854 z "},"š":{"ha":583,"x_min":49,"x_max":535,"o":"m 497 704 l 481 564 l 475 564 q 406 644 453 615 q 307 672 360 672 q 210 649 247 672 q 174 578 174 626 q 217 497 174 525 q 318 446 261 469 q 418 398 368 425 q 501 326 468 371 q 535 204 535 281 q 499 82 535 132 q 405 6 464 32 q 275 -19 346 -19 q 168 1 215 -19 q 90 49 121 21 q 49 99 58 76 l 68 253 l 74 253 q 91 209 76 236 q 132 156 106 182 q 194 110 158 129 q 275 92 231 92 q 376 122 338 92 q 414 208 414 153 q 370 290 414 261 q 268 344 326 319 q 169 392 218 367 q 87 460 119 418 q 54 571 54 503 q 88 690 54 643 q 180 760 122 736 q 308 783 238 783 q 433 755 386 783 q 497 704 479 726 m 178 1076 l 293 911 l 407 1076 l 532 1076 l 357 854 l 228 854 l 53 1076 l 178 1076 z "},"ş":{"ha":583,"x_min":49,"x_max":535,"o":"m 239 -156 l 308 -18 q 275 -19 292 -19 q 168 1 215 -19 q 90 49 121 21 q 49 99 58 76 l 68 253 l 74 253 q 91 209 76 236 q 132 156 106 182 q 194 110 158 129 q 275 92 231 92 q 376 122 338 92 q 414 208 414 153 q 370 290 414 261 q 268 344 326 319 q 169 392 218 367 q 87 460 119 418 q 54 571 54 503 q 88 690 54 643 q 180 760 122 736 q 308 783 238 783 q 433 755 386 783 q 497 704 479 726 l 481 564 l 475 564 q 406 644 453 615 q 307 672 360 672 q 210 649 247 672 q 174 578 174 626 q 217 497 174 525 q 318 446 261 469 q 418 398 368 425 q 501 326 468 371 q 535 204 535 281 q 495 78 535 129 q 394 1 456 26 l 342 -94 q 468 -131 418 -92 q 518 -222 518 -169 q 459 -322 518 -283 q 306 -361 400 -361 q 90 -268 164 -361 l 143 -178 l 147 -178 q 306 -293 194 -293 q 376 -274 350 -293 q 403 -219 403 -254 q 363 -162 403 -187 q 253 -153 324 -137 l 239 -156 z "},"ŝ":{"ha":583,"x_min":49,"x_max":535,"o":"m 497 704 l 481 564 l 475 564 q 406 644 453 615 q 307 672 360 672 q 210 649 247 672 q 174 578 174 626 q 217 497 174 525 q 318 446 261 469 q 418 398 368 425 q 501 326 468 371 q 535 204 535 281 q 499 82 535 132 q 405 6 464 32 q 275 -19 346 -19 q 168 1 215 -19 q 90 49 121 21 q 49 99 58 76 l 68 253 l 74 253 q 91 209 76 236 q 132 156 106 182 q 194 110 158 129 q 275 92 231 92 q 376 122 338 92 q 414 208 414 153 q 370 290 414 261 q 268 344 326 319 q 169 392 218 367 q 87 460 119 418 q 54 571 54 503 q 88 690 54 643 q 180 760 122 736 q 308 783 238 783 q 433 755 386 783 q 497 704 479 726 m 178 854 l 53 854 l 228 1076 l 357 1076 l 532 854 l 407 854 l 293 1019 l 178 854 z "},"ș":{"ha":583,"x_min":49,"x_max":535,"o":"m 497 704 l 481 564 l 475 564 q 406 644 453 615 q 307 672 360 672 q 210 649 247 672 q 174 578 174 626 q 217 497 174 525 q 318 446 261 469 q 418 398 368 425 q 501 326 468 371 q 535 204 535 281 q 499 82 535 132 q 405 6 464 32 q 275 -19 346 -19 q 168 1 215 -19 q 90 49 121 21 q 49 99 58 76 l 68 253 l 74 253 q 91 209 76 236 q 132 156 106 182 q 194 110 158 129 q 275 92 231 92 q 376 122 338 92 q 414 208 414 153 q 370 290 414 261 q 268 344 326 319 q 169 392 218 367 q 87 460 119 418 q 54 571 54 503 q 88 690 54 643 q 180 760 122 736 q 308 783 238 783 q 433 755 386 783 q 497 704 479 726 m 292 -71 l 374 -156 l 264 -344 l 231 -335 l 272 -219 l 207 -156 l 292 -71 z "},"ß":{"ha":939,"x_min":97,"x_max":876,"o":"m 122 713 q 201 1001 122 911 q 453 1092 281 1092 q 683 1019 603 1092 q 763 825 763 946 q 732 692 763 749 q 646 597 701 635 q 815 482 753 565 q 876 294 876 399 q 828 133 876 204 q 698 20 781 61 q 508 -21 615 -21 q 403 -8 458 -21 q 321 18 349 4 l 363 154 l 367 154 q 425 111 382 132 q 511 90 468 90 q 674 145 614 90 q 733 293 733 200 q 707 413 733 360 q 610 498 681 467 q 411 529 540 529 l 386 529 l 386 576 q 619 825 619 613 q 580 938 619 896 q 456 981 540 981 q 308 921 354 981 q 261 713 261 861 l 261 0 l 97 0 q 119 153 115 75 q 122 308 122 231 l 122 713 z "},"t":{"ha":536,"x_min":28,"x_max":508,"o":"m 339 -19 q 143 231 143 -19 l 143 668 q 124 666 143 668 q 78 660 104 664 q 28 653 51 657 l 28 668 l 261 925 l 275 925 l 275 764 l 471 764 l 485 653 q 430 661 457 658 q 367 666 403 664 q 275 668 331 668 l 275 236 q 297 128 275 158 q 372 97 318 97 q 429 111 407 97 q 469 151 451 125 l 508 99 q 446 14 488 47 q 339 -19 404 -19 z "},"ť":{"ha":536,"x_min":28,"x_max":508,"o":"m 339 -19 q 143 231 143 -19 l 143 668 q 124 666 143 668 q 78 660 104 664 q 28 653 51 657 l 28 668 l 261 925 l 275 925 l 275 764 l 471 764 l 485 653 q 430 661 457 658 q 367 666 403 664 q 275 668 331 668 l 275 236 q 297 128 275 158 q 372 97 318 97 q 429 111 407 97 q 469 151 451 125 l 508 99 q 446 14 488 47 q 339 -19 404 -19 m 413 1083 l 494 999 l 385 810 l 351 819 l 393 935 l 328 999 l 413 1083 z "},"ţ":{"ha":536,"x_min":28,"x_max":549,"o":"m 336 -361 q 121 -268 194 -361 l 174 -178 l 178 -178 q 336 -293 225 -293 q 407 -274 381 -293 q 433 -219 433 -254 q 394 -162 433 -187 q 283 -153 354 -137 l 269 -156 l 338 -19 q 143 231 143 -18 l 143 668 q 124 666 143 668 q 78 660 104 664 q 28 653 51 657 l 28 668 l 261 925 l 275 925 l 275 764 l 471 764 l 485 653 q 430 661 457 658 q 367 666 403 664 q 275 668 331 668 l 275 236 q 297 128 275 158 q 372 97 318 97 q 429 111 407 97 q 469 151 451 125 l 508 99 q 474 41 496 67 q 424 0 453 15 l 372 -94 q 499 -131 449 -93 q 549 -222 549 -169 q 490 -322 549 -283 q 336 -361 431 -361 z "},"ț":{"ha":536,"x_min":28,"x_max":508,"o":"m 339 -19 q 143 231 143 -19 l 143 668 q 124 666 143 668 q 78 660 104 664 q 28 653 51 657 l 28 668 l 261 925 l 275 925 l 275 764 l 471 764 l 485 653 q 430 661 457 658 q 367 666 403 664 q 275 668 331 668 l 275 236 q 297 128 275 158 q 372 97 318 97 q 429 111 407 97 q 469 151 451 125 l 508 99 q 446 14 488 47 q 339 -19 404 -19 m 267 -71 l 349 -156 l 239 -344 l 206 -335 l 247 -219 l 182 -156 l 267 -71 z "},"u":{"ha":782,"x_min":42,"x_max":733,"o":"m 199 350 q 202 261 199 307 q 218 178 206 215 q 260 117 231 140 q 342 93 290 93 q 465 132 422 93 q 524 231 507 171 q 543 356 540 292 l 543 457 q 540 613 543 535 q 518 765 536 690 l 675 765 l 675 307 q 680 187 675 232 q 698 110 685 142 q 733 43 711 78 l 733 35 l 557 -8 l 543 104 l 533 104 q 490 43 514 71 q 428 -1 467 15 q 322 -18 389 -18 q 190 13 240 -18 q 113 97 139 44 q 76 216 86 150 q 67 350 67 282 l 67 457 q 63 613 67 535 q 42 765 60 690 l 199 765 l 199 350 z "},"ú":{"ha":782,"x_min":42,"x_max":733,"o":"m 199 350 q 202 261 199 307 q 218 178 206 215 q 260 117 231 140 q 342 93 290 93 q 465 132 422 93 q 524 231 507 171 q 543 356 540 292 l 543 457 q 540 613 543 535 q 518 765 536 690 l 675 765 l 675 307 q 680 187 675 232 q 698 110 685 142 q 733 43 711 78 l 733 35 l 557 -8 l 543 104 l 533 104 q 490 43 514 71 q 428 -1 467 15 q 322 -18 389 -18 q 190 13 240 -18 q 113 97 139 44 q 76 216 86 150 q 67 350 67 282 l 67 457 q 63 613 67 535 q 42 765 60 690 l 199 765 l 199 350 m 392 854 l 294 854 l 386 1076 l 560 1076 l 392 854 z "},"ŭ":{"ha":782,"x_min":42,"x_max":733,"o":"m 199 350 q 202 261 199 307 q 218 178 206 215 q 260 117 231 140 q 342 93 290 93 q 465 132 422 93 q 524 231 507 171 q 543 356 540 292 l 543 457 q 540 613 543 535 q 518 765 536 690 l 675 765 l 675 307 q 680 187 675 232 q 698 110 685 142 q 733 43 711 78 l 733 35 l 557 -8 l 543 104 l 533 104 q 490 43 514 71 q 428 -1 467 15 q 322 -18 389 -18 q 190 13 240 -18 q 113 97 139 44 q 76 216 86 150 q 67 350 67 282 l 67 457 q 63 613 67 535 q 42 765 60 690 l 199 765 l 199 350 m 365 854 q 258 888 299 854 q 200 972 218 921 q 182 1076 182 1022 l 265 1076 q 272 1018 265 1049 q 301 966 279 988 q 365 944 322 944 q 431 966 410 944 q 458 1018 451 988 q 465 1076 465 1049 l 549 1076 q 531 972 549 1022 q 472 888 513 921 q 365 854 432 854 z "},"û":{"ha":782,"x_min":42,"x_max":733,"o":"m 199 350 q 202 261 199 307 q 218 178 206 215 q 260 117 231 140 q 342 93 290 93 q 465 132 422 93 q 524 231 507 171 q 543 356 540 292 l 543 457 q 540 613 543 535 q 518 765 536 690 l 675 765 l 675 307 q 680 187 675 232 q 698 110 685 142 q 733 43 711 78 l 733 35 l 557 -8 l 543 104 l 533 104 q 490 43 514 71 q 428 -1 467 15 q 322 -18 389 -18 q 190 13 240 -18 q 113 97 139 44 q 76 216 86 150 q 67 350 67 282 l 67 457 q 63 613 67 535 q 42 765 60 690 l 199 765 l 199 350 m 250 854 l 125 854 l 300 1076 l 429 1076 l 604 854 l 479 854 l 365 1019 l 250 854 z "},"ü":{"ha":782,"x_min":42,"x_max":733,"o":"m 199 350 q 202 261 199 307 q 218 178 206 215 q 260 117 231 140 q 342 93 290 93 q 465 132 422 93 q 524 231 507 171 q 543 356 540 292 l 543 457 q 540 613 543 535 q 518 765 536 690 l 675 765 l 675 307 q 680 187 675 232 q 698 110 685 142 q 733 43 711 78 l 733 35 l 557 -8 l 543 104 l 533 104 q 490 43 514 71 q 428 -1 467 15 q 322 -18 389 -18 q 190 13 240 -18 q 113 97 139 44 q 76 216 86 150 q 67 350 67 282 l 67 457 q 63 613 67 535 q 42 765 60 690 l 199 765 l 199 350 m 189 1083 l 297 975 l 189 867 l 81 975 l 189 1083 m 538 1083 l 646 975 l 538 867 l 429 975 l 538 1083 z "},"ù":{"ha":782,"x_min":42,"x_max":733,"o":"m 199 350 q 202 261 199 307 q 218 178 206 215 q 260 117 231 140 q 342 93 290 93 q 465 132 422 93 q 524 231 507 171 q 543 356 540 292 l 543 457 q 540 613 543 535 q 518 765 536 690 l 675 765 l 675 307 q 680 187 675 232 q 698 110 685 142 q 733 43 711 78 l 733 35 l 557 -8 l 543 104 l 533 104 q 490 43 514 71 q 428 -1 467 15 q 322 -18 389 -18 q 190 13 240 -18 q 113 97 139 44 q 76 216 86 150 q 67 350 67 282 l 67 457 q 63 613 67 535 q 42 765 60 690 l 199 765 l 199 350 m 350 854 l 182 1076 l 356 1076 l 447 854 l 350 854 z "},"ű":{"ha":782,"x_min":42,"x_max":733,"o":"m 199 350 q 202 261 199 307 q 218 178 206 215 q 260 117 231 140 q 342 93 290 93 q 465 132 422 93 q 524 231 507 171 q 543 356 540 292 l 543 457 q 540 613 543 535 q 518 765 536 690 l 675 765 l 675 307 q 680 187 675 232 q 698 110 685 142 q 733 43 711 78 l 733 35 l 557 -8 l 543 104 l 533 104 q 490 43 514 71 q 428 -1 467 15 q 322 -18 389 -18 q 190 13 240 -18 q 113 97 139 44 q 76 216 86 150 q 67 350 67 282 l 67 457 q 63 613 67 535 q 42 765 60 690 l 199 765 l 199 350 m 275 854 l 178 854 l 269 1076 l 443 1076 l 275 854 m 510 854 l 413 854 l 504 1076 l 678 1076 l 510 854 z "},"ū":{"ha":782,"x_min":42,"x_max":733,"o":"m 199 350 q 202 261 199 307 q 218 178 206 215 q 260 117 231 140 q 342 93 290 93 q 465 132 422 93 q 524 231 507 171 q 543 356 540 292 l 543 457 q 540 613 543 535 q 518 765 536 690 l 675 765 l 675 307 q 680 187 675 232 q 698 110 685 142 q 733 43 711 78 l 733 35 l 557 -8 l 543 104 l 533 104 q 490 43 514 71 q 428 -1 467 15 q 322 -18 389 -18 q 190 13 240 -18 q 113 97 139 44 q 76 216 86 150 q 67 350 67 282 l 67 457 q 63 613 67 535 q 42 765 60 690 l 199 765 l 199 350 m 174 1026 l 554 1026 l 554 936 l 174 936 l 174 1026 z "},"ų":{"ha":782,"x_min":42,"x_max":739,"o":"m 199 350 q 202 261 199 307 q 218 178 206 215 q 260 117 231 140 q 342 93 290 93 q 465 132 422 93 q 524 231 507 171 q 543 356 540 292 l 543 457 q 540 613 543 535 q 518 765 536 690 l 675 765 l 675 307 q 680 187 675 232 q 698 110 685 142 q 733 43 711 78 l 733 35 l 557 -8 l 543 104 l 533 104 q 490 43 514 71 q 428 -1 467 15 q 322 -18 389 -18 q 190 13 240 -18 q 113 97 139 44 q 76 216 86 150 q 67 350 67 282 l 67 457 q 63 613 67 535 q 42 765 60 690 l 199 765 l 199 350 m 590 0 q 469 -77 513 -26 q 426 -192 426 -128 q 524 -293 426 -293 q 618 -262 576 -293 q 682 -178 660 -232 l 686 -178 l 739 -268 q 648 -337 704 -312 q 524 -361 592 -361 q 370 -315 429 -361 q 311 -194 311 -269 q 372 -76 311 -128 q 572 26 433 -25 l 590 0 z "},"ů":{"ha":782,"x_min":42,"x_max":733,"o":"m 199 350 q 202 261 199 307 q 218 178 206 215 q 260 117 231 140 q 342 93 290 93 q 465 132 422 93 q 524 231 507 171 q 543 356 540 292 l 543 457 q 540 613 543 535 q 518 765 536 690 l 675 765 l 675 307 q 680 187 675 232 q 698 110 685 142 q 733 43 711 78 l 733 35 l 557 -8 l 543 104 l 533 104 q 490 43 514 71 q 428 -1 467 15 q 322 -18 389 -18 q 190 13 240 -18 q 113 97 139 44 q 76 216 86 150 q 67 350 67 282 l 67 457 q 63 613 67 535 q 42 765 60 690 l 199 765 l 199 350 m 364 829 q 272 868 310 829 q 235 961 235 907 q 272 1053 235 1015 q 364 1090 310 1090 q 456 1053 418 1090 q 493 961 493 1015 q 456 868 493 907 q 364 829 418 829 m 364 904 q 403 921 388 904 q 419 960 419 938 q 403 999 419 983 q 364 1015 388 1015 q 325 999 342 1015 q 308 960 308 983 q 325 921 308 938 q 364 904 342 904 z "},"ũ":{"ha":782,"x_min":42,"x_max":733,"o":"m 199 350 q 202 261 199 307 q 218 178 206 215 q 260 117 231 140 q 342 93 290 93 q 465 132 422 93 q 524 231 507 171 q 543 356 540 292 l 543 457 q 540 613 543 535 q 518 765 536 690 l 675 765 l 675 307 q 680 187 675 232 q 698 110 685 142 q 733 43 711 78 l 733 35 l 557 -8 l 543 104 l 533 104 q 490 43 514 71 q 428 -1 467 15 q 322 -18 389 -18 q 190 13 240 -18 q 113 97 139 44 q 76 216 86 150 q 67 350 67 282 l 67 457 q 63 613 67 535 q 42 765 60 690 l 199 765 l 199 350 m 524 1058 l 607 1058 q 573 909 607 964 q 471 854 539 854 q 397 874 428 854 q 342 920 365 894 q 299 966 319 946 q 258 986 279 986 q 206 865 206 986 l 122 865 q 156 1018 122 960 q 258 1076 190 1076 q 333 1056 301 1076 q 387 1010 364 1036 q 430 965 410 985 q 471 944 450 944 q 524 1058 524 944 z "},"v":{"ha":847,"x_min":21,"x_max":826,"o":"m 826 764 q 761 651 792 713 q 686 486 731 590 l 486 0 l 361 0 l 161 486 q 87 651 118 590 q 21 764 56 713 l 207 764 q 235 655 215 714 q 293 497 254 596 l 425 156 l 563 497 q 622 655 603 596 q 650 764 640 714 l 826 764 z "},"w":{"ha":1257,"x_min":21,"x_max":1236,"o":"m 1236 764 q 1193 693 1214 731 q 1151 606 1172 656 q 1106 486 1131 557 l 933 0 l 808 0 l 626 514 l 444 0 l 319 0 l 147 486 q 102 606 122 557 q 63 693 82 656 q 21 764 44 731 l 200 764 q 214 694 206 731 q 236 612 222 658 q 272 497 250 565 l 388 157 l 501 497 q 553 656 536 599 q 579 764 569 714 l 689 764 q 703 694 694 731 q 725 612 711 658 q 761 497 739 565 l 876 157 l 990 497 q 1042 656 1025 599 q 1068 764 1058 714 l 1236 764 z "},"ẃ":{"ha":1257,"x_min":21,"x_max":1236,"o":"m 1236 764 q 1193 693 1214 731 q 1151 606 1172 656 q 1106 486 1131 557 l 933 0 l 808 0 l 626 514 l 444 0 l 319 0 l 147 486 q 102 606 122 557 q 63 693 82 656 q 21 764 44 731 l 200 764 q 214 694 206 731 q 236 612 222 658 q 272 497 250 565 l 388 157 l 501 497 q 553 656 536 599 q 579 764 569 714 l 689 764 q 703 694 694 731 q 725 612 711 658 q 761 497 739 565 l 876 157 l 990 497 q 1042 656 1025 599 q 1068 764 1058 714 l 1236 764 m 657 854 l 560 854 l 651 1076 l 825 1076 l 657 854 z "},"ŵ":{"ha":1257,"x_min":21,"x_max":1236,"o":"m 1236 764 q 1193 693 1214 731 q 1151 606 1172 656 q 1106 486 1131 557 l 933 0 l 808 0 l 626 514 l 444 0 l 319 0 l 147 486 q 102 606 122 557 q 63 693 82 656 q 21 764 44 731 l 200 764 q 214 694 206 731 q 236 612 222 658 q 272 497 250 565 l 388 157 l 501 497 q 553 656 536 599 q 579 764 569 714 l 689 764 q 703 694 694 731 q 725 612 711 658 q 761 497 739 565 l 876 157 l 990 497 q 1042 656 1025 599 q 1068 764 1058 714 l 1236 764 m 515 854 l 390 854 l 565 1076 l 694 1076 l 869 854 l 744 854 l 631 1019 l 515 854 z "},"ẅ":{"ha":1257,"x_min":21,"x_max":1236,"o":"m 1236 764 q 1193 693 1214 731 q 1151 606 1172 656 q 1106 486 1131 557 l 933 0 l 808 0 l 626 514 l 444 0 l 319 0 l 147 486 q 102 606 122 557 q 63 693 82 656 q 21 764 44 731 l 200 764 q 214 694 206 731 q 236 612 222 658 q 272 497 250 565 l 388 157 l 501 497 q 553 656 536 599 q 579 764 569 714 l 689 764 q 703 694 694 731 q 725 612 711 658 q 761 497 739 565 l 876 157 l 990 497 q 1042 656 1025 599 q 1068 764 1058 714 l 1236 764 m 454 1083 l 563 975 l 454 867 l 346 975 l 454 1083 m 803 1083 l 911 975 l 803 867 l 694 975 l 803 1083 z "},"ẁ":{"ha":1257,"x_min":21,"x_max":1236,"o":"m 1236 764 q 1193 693 1214 731 q 1151 606 1172 656 q 1106 486 1131 557 l 933 0 l 808 0 l 626 514 l 444 0 l 319 0 l 147 486 q 102 606 122 557 q 63 693 82 656 q 21 764 44 731 l 200 764 q 214 694 206 731 q 236 612 222 658 q 272 497 250 565 l 388 157 l 501 497 q 553 656 536 599 q 579 764 569 714 l 689 764 q 703 694 694 731 q 725 612 711 658 q 761 497 739 565 l 876 157 l 990 497 q 1042 656 1025 599 q 1068 764 1058 714 l 1236 764 m 615 854 l 447 1076 l 621 1076 l 713 854 l 615 854 z "},"x":{"ha":793,"x_min":35,"x_max":763,"o":"m 651 115 q 699 56 675 85 q 751 0 724 28 l 568 0 q 535 63 556 28 q 481 149 515 97 l 392 272 l 301 144 q 248 61 268 94 q 217 0 228 28 l 42 0 q 99 58 74 31 q 146 115 124 85 l 324 369 l 139 643 q 35 764 90 706 l 215 764 q 238 718 225 743 q 272 661 251 693 l 404 476 l 504 618 q 556 703 536 669 q 588 764 575 738 l 763 764 q 696 691 726 728 q 635 614 665 654 l 472 379 l 651 115 z "},"y":{"ha":847,"x_min":21,"x_max":826,"o":"m 486 0 q 406 -210 435 -122 q 365 -360 376 -299 l 176 -360 q 263 -208 218 -297 q 358 6 307 -119 l 161 486 q 87 651 118 590 q 21 764 56 713 l 207 764 q 235 655 215 714 q 293 497 254 596 l 425 156 l 563 497 q 622 655 603 596 q 650 764 640 714 l 826 764 q 761 651 792 713 q 686 486 731 590 l 486 0 z "},"ý":{"ha":847,"x_min":21,"x_max":826,"o":"m 486 0 q 406 -210 435 -122 q 365 -360 376 -299 l 176 -360 q 263 -208 218 -297 q 358 6 307 -119 l 161 486 q 87 651 118 590 q 21 764 56 713 l 207 764 q 235 655 215 714 q 293 497 254 596 l 425 156 l 563 497 q 622 655 603 596 q 650 764 640 714 l 826 764 q 761 651 792 713 q 686 486 731 590 l 486 0 m 451 854 l 354 854 l 446 1076 l 619 1076 l 451 854 z "},"ŷ":{"ha":847,"x_min":21,"x_max":826,"o":"m 486 0 q 406 -210 435 -122 q 365 -360 376 -299 l 176 -360 q 263 -208 218 -297 q 358 6 307 -119 l 161 486 q 87 651 118 590 q 21 764 56 713 l 207 764 q 235 655 215 714 q 293 497 254 596 l 425 156 l 563 497 q 622 655 603 596 q 650 764 640 714 l 826 764 q 761 651 792 713 q 686 486 731 590 l 486 0 m 310 854 l 185 854 l 360 1076 l 489 1076 l 664 854 l 539 854 l 425 1019 l 310 854 z "},"ÿ":{"ha":847,"x_min":21,"x_max":826,"o":"m 486 0 q 406 -210 435 -122 q 365 -360 376 -299 l 176 -360 q 263 -208 218 -297 q 358 6 307 -119 l 161 486 q 87 651 118 590 q 21 764 56 713 l 207 764 q 235 655 215 714 q 293 497 254 596 l 425 156 l 563 497 q 622 655 603 596 q 650 764 640 714 l 826 764 q 761 651 792 713 q 686 486 731 590 l 486 0 m 249 1083 l 357 975 l 249 867 l 140 975 l 249 1083 m 597 1083 l 706 975 l 597 867 l 489 975 l 597 1083 z "},"ỳ":{"ha":847,"x_min":21,"x_max":826,"o":"m 486 0 q 406 -210 435 -122 q 365 -360 376 -299 l 176 -360 q 263 -208 218 -297 q 358 6 307 -119 l 161 486 q 87 651 118 590 q 21 764 56 713 l 207 764 q 235 655 215 714 q 293 497 254 596 l 425 156 l 563 497 q 622 655 603 596 q 650 764 640 714 l 826 764 q 761 651 792 713 q 686 486 731 590 l 486 0 m 410 854 l 242 1076 l 415 1076 l 507 854 l 410 854 z "},"ỹ":{"ha":847,"x_min":21,"x_max":826,"o":"m 486 0 q 406 -210 435 -122 q 365 -360 376 -299 l 176 -360 q 263 -208 218 -297 q 358 6 307 -119 l 161 486 q 87 651 118 590 q 21 764 56 713 l 207 764 q 235 655 215 714 q 293 497 254 596 l 425 156 l 563 497 q 622 655 603 596 q 650 764 640 714 l 826 764 q 761 651 792 713 q 686 486 731 590 l 486 0 m 583 1058 l 667 1058 q 633 909 667 964 q 531 854 599 854 q 456 874 488 854 q 402 920 425 894 q 359 966 379 946 q 318 986 339 986 q 265 865 265 986 l 182 865 q 216 1018 182 960 q 318 1076 250 1076 q 392 1056 361 1076 q 447 1010 424 1036 q 490 965 469 985 q 531 944 510 944 q 583 1058 583 944 z "},"z":{"ha":708,"x_min":56,"x_max":653,"o":"m 633 764 l 633 704 l 236 111 l 439 111 q 567 120 519 111 q 653 150 614 129 l 629 0 l 74 0 l 74 67 l 464 653 l 269 653 q 142 644 189 653 q 56 614 94 635 l 79 764 l 633 764 z "},"ź":{"ha":708,"x_min":56,"x_max":653,"o":"m 633 764 l 633 704 l 236 111 l 439 111 q 567 120 519 111 q 653 150 614 129 l 629 0 l 74 0 l 74 67 l 464 653 l 269 653 q 142 644 189 653 q 56 614 94 635 l 79 764 l 633 764 m 382 854 l 285 854 l 376 1076 l 550 1076 l 382 854 z "},"ž":{"ha":708,"x_min":56,"x_max":653,"o":"m 633 764 l 633 704 l 236 111 l 439 111 q 567 120 519 111 q 653 150 614 129 l 629 0 l 74 0 l 74 67 l 464 653 l 269 653 q 142 644 189 653 q 56 614 94 635 l 79 764 l 633 764 m 240 1076 l 356 911 l 469 1076 l 594 1076 l 419 854 l 290 854 l 115 1076 l 240 1076 z "},"ż":{"ha":708,"x_min":56,"x_max":653,"o":"m 633 764 l 633 704 l 236 111 l 439 111 q 567 120 519 111 q 653 150 614 129 l 629 0 l 74 0 l 74 67 l 464 653 l 269 653 q 142 644 189 653 q 56 614 94 635 l 79 764 l 633 764 m 354 854 q 276 887 308 854 q 243 965 243 919 q 276 1044 243 1011 q 354 1076 308 1076 q 433 1044 400 1076 q 465 965 465 1011 q 433 887 465 919 q 354 854 400 854 z "},"ꞌ":{"ha":222,"x_min":42,"x_max":181,"o":"m 42 1076 l 181 1076 l 153 764 l 69 764 l 42 1076 z "},"ª":{"ha":485,"x_min":49,"x_max":443,"o":"m 49 758 q 123 887 49 846 q 322 913 197 928 q 296 997 318 974 q 229 1021 274 1021 q 153 1001 190 1021 q 90 951 117 982 l 85 951 l 82 1047 q 240 1096 150 1096 q 372 1044 332 1096 q 411 879 411 993 l 411 810 q 418 715 411 749 q 443 650 425 681 l 443 644 l 324 621 l 324 692 l 319 692 q 199 615 288 615 q 92 656 135 615 q 49 758 49 697 m 140 758 q 162 710 140 729 q 215 690 183 690 q 290 716 256 690 q 324 783 324 742 l 324 851 q 188 839 236 861 q 140 758 140 817 z "},"º":{"ha":540,"x_min":42,"x_max":499,"o":"m 269 615 q 152 647 204 615 q 71 733 100 679 q 42 856 42 788 q 71 978 42 924 q 152 1064 100 1032 q 269 1096 204 1096 q 388 1064 336 1096 q 469 978 439 1032 q 499 856 499 924 q 469 733 499 788 q 388 647 439 679 q 269 615 336 615 m 269 693 q 369 738 331 693 q 407 856 407 782 q 369 974 407 929 q 269 1018 331 1018 q 171 974 208 1018 q 133 856 133 929 q 171 738 133 782 q 269 693 208 693 z "},"⁄":{"ha":878,"x_min":42,"x_max":836,"o":"m 42 0 q 115 100 69 35 q 215 257 160 165 l 531 808 q 617 973 588 914 q 658 1076 647 1032 l 836 1076 q 763 976 808 1042 q 656 806 718 911 l 315 213 q 252 87 275 136 q 219 0 229 38 l 42 0 z "},"½":{"ha":1178,"x_min":42,"x_max":1094,"o":"m 107 631 l 107 874 q 94 959 107 942 q 42 976 81 976 l 42 988 l 200 1096 l 200 631 q 202 537 200 583 q 215 446 204 490 l 92 446 q 105 537 103 490 q 107 631 107 583 m 864 1076 q 791 976 836 1042 q 683 806 746 911 l 343 213 q 280 87 303 136 q 247 0 257 38 l 69 0 q 142 100 97 35 q 243 257 188 165 l 558 808 q 645 973 615 914 q 686 1076 675 1032 l 864 1076 m 657 571 q 691 603 667 583 q 758 640 715 624 q 860 657 800 657 q 1013 603 958 657 q 1068 471 1068 549 q 1031 355 1068 413 q 931 231 994 297 q 786 81 868 165 l 914 81 q 1022 88 982 81 q 1094 113 1061 94 l 1075 0 l 636 0 l 636 39 l 785 208 q 827 254 799 224 q 886 322 856 285 q 938 397 917 358 q 960 468 960 436 q 929 551 960 526 q 853 576 899 576 q 768 556 810 576 q 694 478 726 535 l 692 478 l 657 571 z "},"¼":{"ha":1043,"x_min":42,"x_max":1001,"o":"m 92 446 q 105 537 103 490 q 107 631 107 583 l 107 874 q 94 959 107 942 q 42 976 81 976 l 42 988 l 200 1096 l 200 631 q 202 537 200 583 q 215 446 204 490 l 92 446 m 69 0 q 142 100 97 35 q 243 257 188 165 l 558 808 q 645 973 615 914 q 686 1076 675 1032 l 864 1076 q 791 976 836 1042 q 683 806 746 911 l 343 213 q 280 87 303 136 q 247 0 257 38 l 69 0 m 760 0 q 787 72 783 35 q 790 179 790 108 l 506 179 l 506 218 l 883 650 l 883 260 q 943 265 914 261 q 1001 274 972 268 l 1001 164 q 943 174 972 171 q 883 178 914 176 q 886 88 883 132 q 899 0 889 43 l 760 0 m 638 257 l 790 257 l 790 426 l 638 257 z "},"¾":{"ha":1224,"x_min":56,"x_max":1182,"o":"m 250 0 q 323 100 278 35 q 424 257 368 165 l 739 808 q 826 973 796 914 q 867 1076 856 1032 l 1044 1076 q 972 976 1017 1042 q 864 806 926 911 l 524 213 q 460 87 483 136 q 428 0 438 38 l 250 0 m 272 417 q 152 442 215 417 q 56 508 89 467 l 117 614 l 119 614 q 184 528 142 560 q 272 497 226 497 q 365 528 329 497 q 400 610 400 560 q 363 706 400 671 q 271 742 326 742 q 231 738 254 742 q 188 726 207 735 l 171 732 l 347 996 l 244 996 q 141 989 176 996 q 71 964 106 982 l 83 1076 l 481 1076 l 481 1038 l 322 804 q 451 739 404 794 q 499 610 499 683 q 467 515 499 560 q 385 444 436 471 q 272 417 333 417 m 940 0 q 967 72 964 35 q 971 179 971 108 l 686 179 l 686 218 l 1064 650 l 1064 260 q 1124 265 1094 261 q 1182 274 1153 268 l 1182 164 q 1124 174 1153 171 q 1064 178 1094 176 q 1067 88 1064 132 q 1079 0 1069 43 l 940 0 m 818 257 l 971 257 l 971 426 l 818 257 z "},"⅛":{"ha":1101,"x_min":42,"x_max":1053,"o":"m 107 631 l 107 874 q 94 959 107 942 q 42 976 81 976 l 42 988 l 200 1096 l 200 631 q 202 537 200 583 q 215 446 204 490 l 92 446 q 105 537 103 490 q 107 631 107 583 m 864 1076 q 791 976 836 1042 q 683 806 746 911 l 343 213 q 280 87 303 136 q 247 0 257 38 l 69 0 q 142 100 97 35 q 243 257 188 165 l 558 808 q 645 973 615 914 q 686 1076 675 1032 l 864 1076 m 828 -19 q 668 33 732 -19 q 604 174 604 86 q 628 268 604 226 q 694 336 653 310 q 633 465 633 386 q 658 553 633 513 q 727 618 683 593 q 828 643 771 643 q 931 619 886 643 q 999 554 975 594 q 1024 465 1024 514 q 963 336 1024 386 q 1029 268 1006 310 q 1053 174 1053 226 q 990 34 1053 88 q 828 -19 926 -19 m 828 371 q 902 400 875 371 q 929 465 929 429 q 902 532 929 501 q 828 563 875 563 q 756 532 782 563 q 729 465 729 501 q 755 400 729 429 q 828 371 781 371 m 828 61 q 917 92 882 61 q 953 174 953 122 q 919 258 953 224 q 828 292 885 292 q 738 258 772 292 q 704 174 704 224 q 740 92 704 122 q 828 61 775 61 z "},"⅜":{"ha":1282,"x_min":56,"x_max":1233,"o":"m 250 0 q 323 100 278 35 q 424 257 368 165 l 739 808 q 826 973 796 914 q 867 1076 856 1032 l 1044 1076 q 972 976 1017 1042 q 864 806 926 911 l 524 213 q 460 87 483 136 q 428 0 438 38 l 250 0 m 272 417 q 152 442 215 417 q 56 508 89 467 l 117 614 l 119 614 q 184 528 142 560 q 272 497 226 497 q 365 528 329 497 q 400 610 400 560 q 363 706 400 671 q 271 742 326 742 q 231 738 254 742 q 188 726 207 735 l 171 732 l 347 996 l 244 996 q 141 989 176 996 q 71 964 106 982 l 83 1076 l 481 1076 l 481 1038 l 322 804 q 451 739 404 794 q 499 610 499 683 q 467 515 499 560 q 385 444 436 471 q 272 417 333 417 m 1008 -19 q 849 33 913 -19 q 785 174 785 86 q 809 268 785 226 q 875 336 833 310 q 814 465 814 386 q 839 553 814 513 q 908 618 864 593 q 1008 643 951 643 q 1111 619 1067 643 q 1180 554 1156 594 q 1204 465 1204 514 q 1143 336 1204 386 q 1210 268 1186 310 q 1233 174 1233 226 q 1170 34 1233 88 q 1008 -19 1107 -19 m 1008 371 q 1083 400 1056 371 q 1110 465 1110 429 q 1083 532 1110 501 q 1008 563 1056 563 q 936 532 963 563 q 910 465 910 501 q 935 400 910 429 q 1008 371 961 371 m 1008 61 q 1098 92 1063 61 q 1133 174 1133 122 q 1099 258 1133 224 q 1008 292 1065 292 q 919 258 953 292 q 885 174 885 224 q 920 92 885 122 q 1008 61 956 61 z "},"⅝":{"ha":1294,"x_min":83,"x_max":1246,"o":"m 263 0 q 335 100 290 35 q 436 257 381 165 l 751 808 q 838 973 808 914 q 879 1076 868 1032 l 1057 1076 q 984 976 1029 1042 q 876 806 939 911 l 536 213 q 473 87 496 136 q 440 0 450 38 l 263 0 m 300 418 q 176 443 236 418 q 83 510 117 468 l 143 615 l 146 615 q 207 529 168 560 q 300 499 246 499 q 390 531 353 499 q 426 621 426 564 q 394 712 426 674 q 297 750 363 750 q 226 733 257 750 q 186 708 194 717 l 96 708 l 135 1076 l 468 1076 l 485 964 q 412 990 449 985 q 306 994 375 994 l 215 994 l 196 803 q 244 822 215 814 q 307 831 272 831 q 423 802 374 831 q 499 726 472 774 q 526 621 526 678 q 496 515 526 561 q 415 444 465 469 q 300 418 364 418 m 1021 -19 q 861 33 925 -19 q 797 174 797 86 q 822 268 797 226 q 888 336 846 310 q 826 465 826 386 q 851 553 826 513 q 920 618 876 593 q 1021 643 964 643 q 1124 619 1079 643 q 1192 554 1168 594 q 1217 465 1217 514 q 1156 336 1217 386 q 1222 268 1199 310 q 1246 174 1246 226 q 1183 34 1246 88 q 1021 -19 1119 -19 m 1021 371 q 1095 400 1068 371 q 1122 465 1122 429 q 1095 532 1122 501 q 1021 563 1068 563 q 949 532 975 563 q 922 465 922 501 q 948 400 922 429 q 1021 371 974 371 m 1021 61 q 1110 92 1075 61 q 1146 174 1146 122 q 1112 258 1146 224 q 1021 292 1078 292 q 931 258 965 292 q 897 174 897 224 q 933 92 897 122 q 1021 61 968 61 z "},"⅞":{"ha":1229,"x_min":69,"x_max":1181,"o":"m 197 0 q 270 100 225 35 q 371 257 315 165 l 686 808 q 773 973 743 914 q 814 1076 803 1032 l 992 1076 q 919 976 964 1042 q 811 806 874 911 l 471 213 q 408 87 431 136 q 375 0 385 38 l 197 0 m 150 431 q 188 492 171 460 q 219 557 204 525 l 414 996 l 242 996 q 138 989 174 996 q 69 964 103 982 l 81 1076 l 525 1076 l 525 1038 l 342 601 q 308 517 324 560 q 285 431 292 475 l 150 431 m 956 -19 q 796 33 860 -19 q 732 174 732 86 q 756 268 732 226 q 822 336 781 310 q 761 465 761 386 q 786 553 761 513 q 855 618 811 593 q 956 643 899 643 q 1058 619 1014 643 q 1127 554 1103 594 q 1151 465 1151 514 q 1090 336 1151 386 q 1157 268 1133 310 q 1181 174 1181 226 q 1117 34 1181 88 q 956 -19 1054 -19 m 956 371 q 1030 400 1003 371 q 1057 465 1057 429 q 1030 532 1057 501 q 956 563 1003 563 q 883 532 910 563 q 857 465 857 501 q 883 400 857 429 q 956 371 908 371 m 956 61 q 1045 92 1010 61 q 1081 174 1081 122 q 1047 258 1081 224 q 956 292 1013 292 q 866 258 900 292 q 832 174 832 224 q 867 92 832 122 q 956 61 903 61 z "}," ":{"ha":333,"x_min":0,"x_max":0,"o":""}," ":{"ha":333,"x_min":0,"x_max":0,"o":""},".":{"ha":328,"x_min":56,"x_max":272,"o":"m 164 197 l 272 89 l 164 -19 l 56 89 l 164 197 z "},",":{"ha":328,"x_min":56,"x_max":272,"o":"m 164 197 l 272 89 l 128 -158 l 85 -147 l 140 4 l 56 89 l 164 197 z "},":":{"ha":328,"x_min":56,"x_max":272,"o":"m 164 789 l 272 681 l 164 572 l 56 681 l 164 789 m 164 238 l 272 129 l 164 21 l 56 129 l 164 238 z "},";":{"ha":328,"x_min":56,"x_max":272,"o":"m 164 789 l 272 681 l 164 572 l 56 681 l 164 789 m 164 197 l 272 89 l 128 -158 l 85 -147 l 140 4 l 56 89 l 164 197 z "},"…":{"ha":844,"x_min":56,"x_max":789,"o":"m 164 197 l 272 89 l 164 -19 l 56 89 l 164 197 m 422 197 l 531 89 l 422 -19 l 314 89 l 422 197 m 681 197 l 789 89 l 681 -19 l 572 89 l 681 197 z "},"!":{"ha":328,"x_min":56,"x_max":272,"o":"m 258 1076 q 239 938 247 1019 q 228 788 231 857 l 214 297 l 114 297 l 100 788 q 90 938 99 857 q 69 1076 81 1019 l 258 1076 m 164 197 l 272 89 l 164 -19 l 56 89 l 164 197 z "},"¡":{"ha":328,"x_min":56,"x_max":272,"o":"m 164 567 l 56 675 l 164 783 l 272 675 l 164 567 m 258 -312 l 69 -312 q 90 -174 81 -256 q 100 -24 99 -93 l 114 467 l 214 467 l 228 -24 q 239 -174 231 -93 q 258 -312 247 -256 z "},"?":{"ha":740,"x_min":49,"x_max":692,"o":"m 354 1094 q 603 1015 515 1094 q 692 808 692 935 q 616 598 692 688 q 413 468 540 508 l 413 297 l 281 297 l 281 550 q 480 632 413 569 q 547 804 547 694 q 501 933 547 883 q 357 983 454 983 q 208 942 263 983 q 129 815 153 901 l 125 815 l 49 965 q 178 1061 99 1028 q 354 1094 257 1094 m 353 197 l 461 89 l 353 -19 l 244 89 l 353 197 z "},"¿":{"ha":740,"x_min":49,"x_max":692,"o":"m 388 567 l 279 675 l 388 783 l 496 675 l 388 567 m 386 -331 q 137 -251 225 -331 q 49 -44 49 -171 q 124 166 49 76 q 328 296 200 256 l 328 467 l 460 467 l 460 214 q 260 133 328 194 q 193 -40 193 71 q 240 -169 193 -119 q 383 -219 286 -219 q 533 -178 478 -219 q 611 -51 589 -137 l 615 -51 l 692 -201 q 563 -297 642 -264 q 386 -331 483 -331 z "},"·":{"ha":328,"x_min":56,"x_max":272,"o":"m 164 619 l 272 511 l 164 403 l 56 511 l 164 619 z "},"•":{"ha":394,"x_min":56,"x_max":339,"o":"m 197 653 l 339 511 l 197 369 l 56 511 l 197 653 z "},"*":{"ha":519,"x_min":14,"x_max":506,"o":"m 14 761 l 194 828 l 14 894 l 78 1008 l 226 885 l 194 1075 l 325 1075 l 293 886 l 440 1008 l 506 896 l 325 829 l 506 763 l 442 649 l 293 772 l 325 582 l 194 582 l 226 771 l 79 649 l 14 761 z "},"#":{"ha":1169,"x_min":28,"x_max":1142,"o":"m 586 1076 q 542 970 564 1033 q 500 822 521 907 l 488 764 l 778 764 l 792 829 q 811 939 806 896 q 819 1014 817 982 q 821 1076 821 1046 l 1008 1076 q 965 970 986 1033 q 922 822 943 907 l 910 764 q 994 765 960 764 q 1063 769 1029 765 q 1142 782 1097 774 l 1142 642 q 1062 655 1096 651 q 992 659 1028 658 q 903 660 956 660 l 886 660 l 836 433 q 924 434 888 433 q 994 439 960 435 q 1072 451 1028 443 l 1072 311 q 992 324 1026 321 q 922 328 958 328 q 833 329 886 329 l 814 329 l 796 247 q 777 138 783 182 q 769 63 771 94 q 767 0 767 32 l 579 0 q 624 106 603 43 q 665 254 644 169 l 682 329 l 392 329 l 374 247 q 355 138 361 182 q 347 63 349 94 q 344 0 344 32 l 157 0 q 201 106 181 43 q 243 254 222 169 l 260 329 q 176 328 211 329 q 107 324 140 328 q 28 311 74 321 l 28 451 q 108 439 74 443 q 178 434 142 435 q 267 433 215 433 l 282 433 l 332 660 q 246 659 282 660 q 176 655 210 658 q 97 642 143 651 l 97 782 q 177 769 143 774 q 248 765 211 765 q 336 764 285 764 l 356 764 l 369 829 q 389 939 383 896 q 397 1014 394 982 q 399 1076 399 1046 l 586 1076 m 414 433 l 704 433 l 754 660 l 464 660 l 414 433 z "},"/":{"ha":708,"x_min":0,"x_max":707,"o":"m 707 1174 q 574 915 657 1110 l 256 151 q 204 1 219 56 q 178 -97 189 -54 l 0 -97 q 133 161 50 -33 l 451 925 q 503 1076 488 1021 q 529 1174 519 1131 l 707 1174 z "},"\\":{"ha":707,"x_min":0,"x_max":707,"o":"m 529 -97 q 503 1 519 -54 q 451 151 488 56 l 133 915 q 0 1174 50 1110 l 178 1174 q 204 1076 189 1131 q 256 925 219 1021 l 574 161 q 707 -97 657 -33 l 529 -97 z "},"-":{"ha":542,"x_min":28,"x_max":514,"o":"m 514 400 q 434 413 468 410 q 364 417 400 417 q 275 418 328 418 l 267 418 q 178 417 215 418 q 108 413 142 417 q 28 400 74 410 l 28 547 q 108 535 74 539 q 178 530 142 531 q 267 529 215 529 l 275 529 q 364 530 328 529 q 434 535 400 531 q 514 547 468 539 l 514 400 z "},"–":{"ha":806,"x_min":28,"x_max":778,"o":"m 778 400 q 698 413 732 410 q 628 417 664 417 q 539 418 592 418 l 267 418 q 178 417 215 418 q 108 413 142 417 q 28 400 74 410 l 28 547 q 108 535 74 539 q 178 530 142 531 q 267 529 215 529 l 539 529 q 628 530 592 529 q 698 535 664 531 q 778 547 732 539 l 778 400 z "},"—":{"ha":1506,"x_min":28,"x_max":1478,"o":"m 1478 400 q 1398 413 1432 410 q 1328 417 1364 417 q 1239 418 1292 418 l 267 418 q 178 417 215 418 q 108 413 142 417 q 28 400 74 410 l 28 547 q 108 535 74 539 q 178 530 142 531 q 267 529 215 529 l 1239 529 q 1328 530 1292 529 q 1398 535 1364 531 q 1478 547 1432 539 l 1478 400 z "},"_":{"ha":806,"x_min":28,"x_max":778,"o":"m 778 -147 q 698 -134 732 -137 q 628 -130 664 -131 q 539 -129 592 -129 l 267 -129 q 178 -130 215 -129 q 108 -134 142 -131 q 28 -147 74 -137 l 28 0 q 108 -12 74 -8 q 178 -17 142 -17 q 267 -18 215 -18 l 539 -18 q 628 -17 592 -18 q 698 -12 664 -17 q 778 0 732 -8 l 778 -147 z "},"(":{"ha":433,"x_min":49,"x_max":350,"o":"m 258 -174 q 169 -15 218 -112 q 84 212 119 82 q 49 499 49 342 q 84 787 49 657 q 169 1015 119 917 q 258 1174 218 1113 l 350 1168 q 278 1019 318 1117 q 210 790 239 922 q 181 499 181 657 q 210 210 181 342 q 278 -19 239 78 q 350 -168 318 -117 l 258 -174 z "},")":{"ha":433,"x_min":83,"x_max":385,"o":"m 175 -174 l 83 -168 q 155 -19 115 -117 q 224 210 194 78 q 253 499 253 342 q 224 790 253 657 q 155 1019 194 922 q 83 1168 115 1117 l 175 1174 q 265 1015 217 1113 q 349 787 314 917 q 385 499 385 657 q 349 212 385 342 q 265 -15 314 82 q 175 -174 217 -112 z "},"{":{"ha":446,"x_min":14,"x_max":418,"o":"m 14 522 q 103 556 78 521 q 128 632 128 590 l 128 1021 q 173 1147 128 1107 q 311 1186 218 1186 q 385 1177 354 1186 q 418 1167 415 1168 l 415 1140 q 295 1106 331 1142 q 260 997 260 1071 l 260 608 q 241 544 260 572 q 190 500 222 515 q 241 456 222 485 q 260 392 260 428 l 260 3 q 295 -106 260 -69 q 415 -140 331 -142 l 418 -167 q 385 -177 415 -168 q 311 -186 354 -186 q 173 -146 218 -186 q 128 -21 128 -106 l 128 368 q 103 444 128 410 q 14 478 78 479 l 14 522 z "},"}":{"ha":446,"x_min":28,"x_max":432,"o":"m 432 492 q 343 458 368 493 q 318 382 318 424 l 318 -21 q 273 -146 318 -106 q 135 -186 228 -186 q 61 -177 92 -186 q 28 -167 31 -168 l 31 -154 q 151 -119 115 -156 q 186 -11 186 -83 l 186 392 q 206 456 186 428 q 256 500 225 485 q 206 544 225 515 q 186 608 186 572 l 186 1011 q 151 1120 186 1085 q 31 1154 115 1156 l 28 1167 q 61 1177 31 1168 q 135 1186 92 1186 q 273 1147 228 1186 q 318 1021 318 1107 l 318 618 q 343 542 318 576 q 432 508 368 507 l 432 492 z "},"[":{"ha":624,"x_min":83,"x_max":554,"o":"m 83 1167 l 554 1167 l 554 1021 q 467 1049 515 1042 q 336 1056 418 1056 l 215 1056 l 215 -56 l 336 -56 q 467 -49 418 -56 q 554 -21 515 -42 l 554 -167 l 83 -167 l 83 1167 z "},"]":{"ha":624,"x_min":69,"x_max":540,"o":"m 540 1167 l 540 -167 l 69 -167 l 69 -21 q 158 -49 108 -42 q 288 -56 207 -56 l 408 -56 l 408 1056 l 288 1056 q 158 1049 207 1056 q 69 1021 108 1042 l 69 1167 l 540 1167 z "},"‚":{"ha":328,"x_min":56,"x_max":272,"o":"m 164 197 l 272 89 l 128 -158 l 85 -147 l 140 4 l 56 89 l 164 197 z "},"„":{"ha":586,"x_min":56,"x_max":531,"o":"m 164 197 l 272 89 l 128 -158 l 85 -147 l 140 4 l 56 89 l 164 197 m 422 197 l 531 89 l 386 -158 l 343 -147 l 399 4 l 314 89 l 422 197 z "},"“":{"ha":586,"x_min":56,"x_max":531,"o":"m 422 728 l 314 836 l 458 1083 l 501 1072 l 446 921 l 531 836 l 422 728 m 164 728 l 56 836 l 200 1083 l 243 1072 l 188 921 l 272 836 l 164 728 z "},"”":{"ha":586,"x_min":56,"x_max":531,"o":"m 164 1083 l 272 975 l 128 728 l 85 739 l 140 890 l 56 975 l 164 1083 m 422 1083 l 531 975 l 386 728 l 343 739 l 399 890 l 314 975 l 422 1083 z "},"‘":{"ha":328,"x_min":56,"x_max":272,"o":"m 164 728 l 56 836 l 200 1083 l 243 1072 l 188 921 l 272 836 l 164 728 z "},"’":{"ha":328,"x_min":56,"x_max":272,"o":"m 164 1083 l 272 975 l 128 728 l 85 739 l 140 890 l 56 975 l 164 1083 z "},"«":{"ha":774,"x_min":28,"x_max":746,"o":"m 400 704 l 433 678 l 221 382 l 433 86 l 400 60 l 28 382 l 400 704 m 713 704 l 746 678 l 533 382 l 746 86 l 713 60 l 340 382 l 713 704 z "},"»":{"ha":774,"x_min":28,"x_max":746,"o":"m 374 704 l 746 382 l 374 60 l 340 86 l 553 382 l 340 678 l 374 704 m 61 704 l 433 382 l 61 60 l 28 86 l 240 382 l 28 678 l 61 704 z "},"‹":{"ha":461,"x_min":28,"x_max":433,"o":"m 400 704 l 433 678 l 221 382 l 433 86 l 400 60 l 28 382 l 400 704 z "},"›":{"ha":461,"x_min":28,"x_max":433,"o":"m 61 704 l 433 382 l 61 60 l 28 86 l 240 382 l 28 678 l 61 704 z "},"\"":{"ha":446,"x_min":28,"x_max":390,"o":"m 167 1076 l 185 742 l 110 742 l 28 1076 l 167 1076 m 372 1076 l 390 742 l 315 742 l 233 1076 l 372 1076 z "},"'":{"ha":328,"x_min":56,"x_max":272,"o":"m 164 1083 l 272 975 l 128 728 l 85 739 l 140 890 l 56 975 l 164 1083 z "},"฿":{"ha":903,"x_min":97,"x_max":840,"o":"m 374 1076 q 366 1156 371 1117 q 351 1235 361 1196 l 506 1235 q 491 1155 496 1196 q 483 1072 486 1114 q 625 1031 557 1064 q 737 938 693 997 q 781 792 781 879 q 750 661 781 715 q 671 572 719 607 q 792 470 744 538 q 840 306 840 403 q 811 174 840 231 q 733 78 782 117 q 622 19 683 39 q 499 0 561 0 l 483 0 q 491 -80 486 -40 q 506 -160 496 -119 l 351 -160 q 366 -80 361 -119 q 374 0 371 -40 l 97 0 q 119 153 115 75 q 122 308 122 231 l 122 768 q 119 924 122 846 q 97 1076 115 1001 l 374 1076 m 261 614 l 376 614 l 376 972 l 261 972 l 261 614 m 481 619 q 590 669 550 631 q 631 792 631 707 q 588 912 631 872 q 481 964 546 951 l 481 619 m 261 104 l 376 104 l 376 503 l 261 503 l 261 104 m 481 104 q 633 157 575 110 q 690 306 692 204 q 632 453 689 408 q 481 503 575 499 l 481 104 z "},"@":{"ha":1188,"x_min":49,"x_max":1139,"o":"m 558 179 q 428 219 486 179 q 335 327 369 258 q 301 481 301 396 q 337 635 301 567 q 432 743 372 703 q 567 783 492 783 q 733 692 681 783 l 740 692 l 740 776 l 879 747 l 879 740 q 848 660 857 703 q 839 539 839 617 l 839 407 q 862 317 839 353 q 919 282 885 282 q 983 338 961 282 q 1006 499 1006 394 l 1006 500 q 952 730 1006 629 q 806 888 899 831 q 593 946 713 946 q 381 887 474 946 q 237 724 289 828 q 185 486 185 621 q 238 248 185 353 q 383 82 292 143 q 592 21 475 21 q 715 32 653 21 q 815 69 776 43 l 864 22 q 751 -49 825 -21 q 592 -76 678 -76 q 379 -33 478 -76 q 206 88 281 11 q 90 267 132 165 q 49 486 49 369 q 89 709 49 607 q 202 886 129 811 q 375 1002 275 961 q 594 1043 475 1043 q 812 1003 713 1043 q 985 892 911 964 q 1099 721 1058 819 q 1139 506 1139 622 q 1079 272 1139 360 q 918 185 1019 185 q 806 223 854 185 q 747 319 758 261 l 742 319 q 678 217 728 254 q 558 179 629 179 m 740 518 q 685 640 732 594 q 567 686 638 686 q 456 633 494 686 q 418 481 418 581 q 461 330 418 383 q 581 276 504 276 q 696 320 651 276 q 740 435 740 364 l 740 518 z "},"&":{"ha":1024,"x_min":49,"x_max":993,"o":"m 396 -19 q 219 16 297 -19 q 94 117 140 51 q 49 268 49 182 q 80 399 49 344 q 163 494 111 454 q 275 567 214 535 q 219 626 251 589 q 163 713 188 663 q 139 821 139 763 q 178 954 139 893 q 283 1053 218 1015 q 424 1090 347 1090 q 559 1056 497 1090 q 658 963 621 1021 q 696 835 696 904 q 634 686 696 754 q 444 558 572 618 l 669 317 l 703 404 q 733 497 722 463 q 747 552 743 531 q 753 594 751 574 l 964 594 q 904 519 931 560 q 851 428 878 478 q 785 314 824 378 l 743 236 l 779 199 q 890 91 836 140 q 993 0 943 42 l 785 0 q 751 54 776 21 q 683 136 725 88 q 569 27 638 74 q 396 -19 500 -19 m 382 622 q 510 716 460 664 q 560 835 560 768 q 548 897 560 863 q 507 955 536 931 q 422 979 478 979 q 333 953 365 979 q 288 890 300 926 q 275 821 275 853 q 294 734 275 774 q 340 666 314 694 q 382 622 365 638 m 394 97 q 528 128 478 97 q 617 207 579 160 l 340 506 q 240 397 274 458 q 206 267 206 335 q 262 140 206 182 q 394 97 318 97 z "},"¶":{"ha":878,"x_min":49,"x_max":781,"o":"m 781 1076 q 759 924 763 1001 q 756 768 756 846 l 756 142 q 759 -14 756 64 q 781 -167 763 -92 l 624 -167 l 624 965 l 508 965 l 508 -167 l 351 -167 q 373 -14 369 -92 q 376 142 376 64 l 376 549 l 354 549 q 200 582 269 549 q 90 675 131 615 q 49 813 49 735 q 90 951 49 892 q 200 1043 131 1010 q 354 1076 269 1076 l 781 1076 z "},"§":{"ha":583,"x_min":49,"x_max":535,"o":"m 275 -19 q 168 1 215 -19 q 90 49 121 21 q 49 100 58 78 l 68 254 l 74 254 q 91 210 76 238 q 132 156 106 183 q 194 110 158 129 q 275 92 231 92 q 376 123 338 92 q 414 210 414 154 q 370 292 414 263 q 268 346 326 321 q 169 399 218 368 q 87 472 119 429 q 54 572 54 515 q 76 658 54 617 q 140 722 99 700 q 78 787 103 749 q 54 883 54 825 q 88 1002 54 956 q 180 1072 122 1049 q 308 1096 238 1096 q 433 1067 386 1096 q 497 1017 479 1039 l 481 876 l 475 876 q 406 956 453 928 q 307 985 360 985 q 210 962 247 985 q 174 890 174 939 q 217 810 174 838 q 318 758 261 782 q 418 705 368 738 q 501 626 468 672 q 535 517 535 581 q 513 434 535 469 q 450 379 490 399 q 510 310 486 351 q 535 206 535 269 q 499 83 535 133 q 405 7 464 33 q 275 -19 346 -19 m 369 425 q 414 521 414 461 q 394 583 414 560 q 340 624 374 607 q 268 657 307 640 l 218 679 q 185 631 196 658 q 174 579 174 603 q 217 499 174 528 q 318 447 261 471 l 369 425 z "},"©":{"ha":1190,"x_min":49,"x_max":1142,"o":"m 594 -19 q 375 23 475 -19 q 202 142 275 65 q 89 319 129 218 q 49 539 49 421 q 89 758 49 657 q 202 935 129 860 q 375 1053 275 1011 q 594 1096 475 1096 q 814 1054 714 1096 q 988 937 914 1013 q 1101 760 1061 861 q 1142 539 1142 658 q 1101 319 1142 421 q 988 142 1061 218 q 814 23 914 65 q 594 -19 714 -19 m 593 85 q 761 121 686 85 q 889 219 836 157 q 970 365 942 282 q 999 539 999 447 q 949 767 999 664 q 809 931 900 869 q 593 992 718 992 q 426 956 500 992 q 299 858 351 921 q 219 713 247 794 q 192 539 192 631 q 219 365 192 447 q 299 219 247 282 q 426 121 351 157 q 593 85 500 85 m 808 374 q 773 324 797 353 q 707 274 749 296 q 601 253 665 253 q 467 290 529 253 q 369 392 406 328 q 332 536 332 456 q 369 681 332 617 q 467 784 406 746 q 601 822 529 822 q 707 806 663 822 q 779 763 751 789 l 775 653 l 768 653 q 707 714 746 689 q 601 739 668 739 q 480 683 526 739 q 433 536 433 626 q 460 429 433 474 q 531 361 488 385 q 625 338 575 338 q 714 355 679 338 q 771 406 749 372 l 808 374 z "},"®":{"ha":1190,"x_min":49,"x_max":1142,"o":"m 594 -19 q 375 23 475 -19 q 202 142 275 65 q 89 319 129 218 q 49 539 49 421 q 89 758 49 657 q 202 935 129 860 q 375 1053 275 1011 q 594 1096 475 1096 q 814 1054 714 1096 q 988 937 914 1013 q 1101 760 1061 861 q 1142 539 1142 658 q 1101 319 1142 421 q 988 142 1061 218 q 814 23 914 65 q 594 -19 714 -19 m 593 85 q 761 121 686 85 q 889 219 836 157 q 970 365 942 282 q 999 539 999 447 q 949 767 999 664 q 809 931 900 869 q 593 992 718 992 q 426 956 500 992 q 299 858 351 921 q 219 713 247 794 q 192 539 192 631 q 219 365 192 447 q 299 219 247 282 q 426 121 351 157 q 593 85 500 85 m 571 833 q 679 810 631 833 q 756 750 728 788 q 785 665 785 713 q 745 564 785 610 q 643 501 706 518 l 742 354 q 767 322 753 339 q 819 268 782 306 l 693 268 q 621 390 675 314 l 549 493 l 508 493 l 508 449 q 512 344 508 385 q 524 268 515 303 l 413 268 q 424 344 421 303 q 428 449 428 385 l 428 653 q 424 758 428 717 q 413 833 421 799 l 571 833 m 508 571 l 547 571 q 654 596 617 571 q 692 665 692 621 q 547 754 692 754 l 508 754 l 508 571 z "},"™":{"ha":1311,"x_min":28,"x_max":1214,"o":"m 533 1076 l 557 961 q 472 990 518 982 q 344 999 425 999 l 342 999 l 342 729 q 344 619 342 674 q 358 513 346 565 l 226 513 q 241 619 239 565 q 243 729 243 674 l 243 999 l 240 999 q 114 990 160 999 q 28 961 68 982 l 51 1076 l 533 1076 m 714 1076 l 900 664 l 1086 1076 l 1214 1076 q 1199 969 1201 1024 q 1196 858 1196 914 l 1196 729 q 1199 619 1196 674 q 1214 513 1201 565 l 1081 513 q 1096 619 1093 565 q 1099 729 1099 674 l 1099 879 l 1096 872 l 931 513 l 867 513 l 704 872 l 703 875 l 703 729 q 705 619 703 674 q 719 513 707 565 l 586 513 q 601 619 599 565 q 604 729 604 674 l 604 858 q 601 969 604 914 q 586 1076 599 1024 l 714 1076 z "},"°":{"ha":464,"x_min":42,"x_max":422,"o":"m 232 715 q 136 741 179 715 q 67 810 93 767 q 42 906 42 853 q 67 1001 42 958 q 136 1070 93 1044 q 232 1096 179 1096 q 328 1070 285 1096 q 397 1001 371 1044 q 422 906 422 958 q 397 810 422 853 q 328 741 371 767 q 232 715 285 715 m 232 810 q 300 838 272 810 q 328 906 328 867 q 300 974 328 946 q 232 1001 272 1001 q 165 974 193 1001 q 136 906 136 946 q 165 838 136 867 q 232 810 193 810 z "},"|":{"ha":326,"x_min":97,"x_max":229,"o":"m 229 1167 l 229 -167 l 97 -167 l 97 1167 l 229 1167 z "},"¦":{"ha":299,"x_min":83,"x_max":215,"o":"m 83 631 l 83 1167 l 215 1167 l 215 631 l 83 631 m 83 -167 l 83 369 l 215 369 l 215 -167 l 83 -167 z "},"†":{"ha":764,"x_min":28,"x_max":736,"o":"m 308 0 q 322 80 318 46 q 326 151 325 114 q 326 239 326 188 l 326 653 l 267 653 q 178 652 215 653 q 108 648 142 651 q 28 635 74 644 l 28 782 q 108 769 74 774 q 178 765 142 765 q 267 764 215 764 l 326 764 l 326 838 q 326 926 326 890 q 322 997 325 963 q 308 1076 318 1031 l 456 1076 q 443 997 447 1031 q 438 926 439 963 q 438 838 438 890 l 438 764 l 497 764 q 586 765 550 764 q 656 769 622 765 q 736 782 690 774 l 736 635 q 656 648 690 644 q 586 652 622 651 q 497 653 550 653 l 438 653 l 438 239 q 438 151 438 188 q 443 80 439 114 q 456 0 447 46 l 308 0 z "},"‡":{"ha":833,"x_min":28,"x_max":736,"o":"m 308 0 q 322 80 318 46 q 326 151 325 114 q 326 239 326 188 l 326 318 l 267 318 q 178 317 215 318 q 108 313 142 317 q 28 300 74 310 l 28 447 q 108 435 74 439 q 178 430 142 431 q 267 429 215 429 l 326 429 l 326 653 l 267 653 q 178 652 215 653 q 108 648 142 651 q 28 635 74 644 l 28 782 q 108 769 74 774 q 178 765 142 765 q 267 764 215 764 l 326 764 l 326 838 q 326 926 326 890 q 322 997 325 963 q 308 1076 318 1031 l 456 1076 q 443 997 447 1031 q 438 926 439 963 q 438 838 438 890 l 438 764 l 497 764 q 586 765 550 764 q 656 769 622 765 q 736 782 690 774 l 736 635 q 656 648 690 644 q 586 652 622 651 q 497 653 550 653 l 438 653 l 438 429 l 497 429 q 586 430 550 429 q 656 435 622 431 q 736 447 690 439 l 736 300 q 656 313 690 310 q 586 317 622 317 q 497 318 550 318 l 438 318 l 438 239 q 438 151 438 188 q 443 80 439 114 q 456 0 447 46 l 308 0 z "},"¢":{"ha":736,"x_min":42,"x_max":715,"o":"m 715 150 q 672 87 701 122 q 594 22 643 51 q 472 -17 546 -7 q 480 -88 475 -53 q 493 -160 485 -124 l 339 -160 q 360 -14 356 -89 q 199 58 271 3 q 84 196 126 113 q 42 381 42 279 q 84 566 42 482 q 199 706 126 650 q 360 778 271 763 q 339 928 356 856 l 493 928 q 472 781 476 854 q 583 751 538 774 q 664 703 629 729 l 660 544 l 650 544 q 581 621 622 583 q 468 669 539 658 l 468 92 l 486 93 q 578 118 542 100 q 635 158 614 136 q 665 193 656 179 l 715 150 m 178 381 q 230 210 178 285 q 364 107 282 135 l 364 665 q 228 568 279 644 q 178 381 178 492 z "},"¤":{"ha":710,"x_min":35,"x_max":679,"o":"m 357 199 q 283 210 318 199 q 215 239 247 221 q 178 194 196 217 q 139 139 160 171 l 35 243 q 90 282 67 264 q 135 319 113 300 q 106 387 117 351 q 94 461 94 422 q 106 537 94 501 q 135 603 117 572 q 90 640 113 622 q 35 679 67 658 l 139 783 q 178 728 160 751 q 215 682 196 704 q 357 724 279 724 q 433 713 397 724 q 499 683 468 703 q 536 728 518 706 q 575 783 554 751 l 679 679 q 624 640 647 657 q 579 603 601 622 q 609 536 599 572 q 619 461 619 500 q 578 319 619 383 q 624 282 600 300 q 679 243 647 264 l 575 139 q 535 194 553 171 q 499 239 518 218 q 433 210 468 221 q 357 199 397 199 m 357 317 q 459 359 417 317 q 501 461 501 401 q 459 563 501 521 q 357 606 417 606 q 255 563 297 606 q 213 461 213 521 q 255 359 213 401 q 357 317 297 317 z "},"$":{"ha":808,"x_min":49,"x_max":760,"o":"m 336 -160 q 349 -90 344 -125 q 357 -18 354 -54 q 195 22 260 -10 q 95 88 131 54 q 49 133 60 121 l 142 285 l 146 285 q 190 204 163 244 q 260 134 218 164 q 361 94 303 104 l 361 524 q 226 595 292 557 q 119 688 161 633 q 75 825 78 743 q 108 951 74 894 q 207 1044 143 1007 q 357 1090 271 1081 q 349 1163 354 1126 q 336 1235 344 1200 l 490 1235 q 477 1165 482 1200 q 469 1093 472 1129 q 613 1056 558 1085 q 696 1000 668 1028 q 728 965 724 972 l 651 815 l 647 815 q 589 916 633 867 q 465 979 544 965 l 465 608 l 481 601 q 615 524 551 568 q 719 420 679 481 q 760 275 760 360 q 683 76 760 156 q 469 -18 606 -3 q 477 -88 472 -53 q 490 -160 482 -124 l 336 -160 m 361 657 l 361 978 q 258 923 297 964 q 219 821 219 882 q 260 726 219 763 q 361 657 301 689 m 465 96 q 574 159 533 111 q 614 275 614 207 q 572 391 614 344 q 465 472 531 438 l 465 96 z "},"€":{"ha":1169,"x_min":28,"x_max":1114,"o":"m 1114 289 l 1092 86 q 940 7 1024 33 q 725 -19 857 -19 q 496 28 600 -19 q 318 159 392 75 q 208 353 244 243 q 121 349 160 351 q 28 335 82 346 l 28 468 q 111 455 76 458 q 186 450 146 451 q 183 494 185 472 q 181 539 181 517 l 183 601 q 110 597 144 600 q 28 583 75 593 l 28 717 q 117 703 81 707 q 201 699 154 700 q 308 905 233 815 q 489 1045 382 994 q 725 1096 596 1096 q 937 1069 853 1096 q 1089 990 1021 1043 l 1111 789 l 1106 789 q 958 929 1050 874 q 725 985 867 985 q 561 948 635 985 q 435 847 488 911 q 356 699 382 782 l 525 699 q 614 699 578 699 q 684 704 650 700 q 764 717 718 708 l 764 583 q 684 597 718 593 q 614 601 650 600 q 525 601 578 601 l 335 601 q 331 539 331 571 q 333 494 331 517 q 338 450 335 472 l 525 450 q 614 451 578 450 q 684 456 650 451 q 764 468 718 460 l 764 335 q 684 348 718 344 q 614 352 650 351 q 525 353 578 353 l 364 353 q 503 165 408 239 q 725 92 597 92 q 963 148 874 92 q 1108 289 1053 204 l 1114 289 z "},"₴":{"ha":917,"x_min":49,"x_max":868,"o":"m 763 701 q 812 708 786 704 q 868 717 838 711 l 868 583 q 788 597 822 593 q 718 601 754 600 q 629 601 682 601 l 288 601 q 199 601 236 601 q 128 597 163 600 q 49 583 94 593 l 49 717 q 128 704 94 708 q 199 699 163 700 q 288 699 236 699 l 582 699 q 635 751 615 722 q 654 821 654 781 q 598 939 654 894 q 454 983 542 983 q 340 958 388 983 q 265 893 293 932 q 226 815 238 854 l 222 815 l 146 965 q 169 991 150 971 q 224 1035 188 1011 q 316 1077 260 1060 q 451 1094 372 1094 q 635 1059 557 1094 q 757 963 714 1024 q 799 825 800 903 q 763 701 797 754 m 629 450 q 718 451 682 450 q 788 456 754 451 q 868 468 822 460 l 868 335 q 788 348 822 344 q 718 352 754 351 q 629 353 682 353 l 278 353 q 265 316 269 335 q 260 275 260 297 q 317 142 260 194 q 465 90 375 90 q 590 120 539 90 q 676 194 642 150 q 728 285 710 239 l 732 285 l 825 133 q 792 97 817 122 q 723 45 767 72 q 615 -1 679 18 q 465 -21 551 -21 q 278 17 357 -21 q 156 121 199 54 q 114 275 114 188 q 124 347 114 317 l 49 335 l 49 468 q 128 456 94 460 q 199 451 163 451 q 288 450 236 450 l 629 450 z "},"₽":{"ha":931,"x_min":69,"x_max":882,"o":"m 493 1076 q 690 1035 601 1076 q 830 918 778 993 q 882 743 882 843 q 830 569 882 644 q 690 451 778 493 q 493 408 601 408 l 363 408 l 363 296 l 400 296 q 489 297 453 296 q 559 301 525 297 q 639 314 593 306 l 639 181 q 559 194 593 190 q 489 198 525 197 q 400 199 453 199 l 364 199 q 372 99 367 149 q 388 0 376 49 l 199 0 q 215 98 210 49 q 222 199 221 147 q 149 194 183 197 q 69 181 115 190 l 69 314 q 151 301 117 304 q 224 296 185 297 l 224 768 q 220 924 224 846 q 199 1076 217 1001 l 493 1076 m 363 519 l 451 519 q 663 578 593 519 q 732 743 732 636 q 663 908 732 850 q 451 965 593 965 l 363 965 l 363 519 z "},"₹":{"ha":876,"x_min":97,"x_max":821,"o":"m 97 1076 l 788 1076 l 821 913 q 715 951 771 939 q 569 965 658 963 q 640 903 614 943 q 674 813 665 864 q 736 817 706 814 q 806 829 767 821 l 806 696 q 736 708 767 704 q 674 713 706 711 q 604 572 660 632 q 467 478 549 511 q 290 446 386 446 l 290 439 l 471 269 q 635 123 556 196 q 786 0 715 50 l 543 0 q 479 75 517 33 q 386 172 442 117 l 97 446 l 97 557 l 247 557 q 522 714 489 557 l 336 714 q 248 713 285 714 q 177 709 211 713 q 97 696 143 706 l 97 829 q 177 817 143 821 q 248 812 211 813 q 336 811 285 811 l 524 811 q 440 926 508 889 q 256 965 371 964 q 183 962 210 965 q 138 953 156 958 q 97 940 119 947 l 97 1076 z "},"₪":{"ha":1094,"x_min":97,"x_max":997,"o":"m 703 6 q 520 48 599 6 q 399 167 442 90 q 356 346 356 243 l 356 465 q 352 621 356 543 q 331 774 349 699 l 519 774 q 498 621 501 699 q 494 465 494 543 l 494 346 q 551 175 494 233 q 744 117 608 117 l 833 117 l 833 774 q 830 929 833 851 q 808 1082 826 1007 l 997 1082 q 976 929 979 1007 q 972 774 972 851 l 972 314 q 976 158 972 236 q 997 6 979 81 l 703 6 m 392 1076 q 575 1034 497 1076 q 696 915 653 992 q 739 736 739 839 l 739 617 q 742 461 739 539 q 764 308 746 383 l 575 308 q 597 461 593 383 q 600 617 600 539 l 600 736 q 543 907 600 849 q 350 965 486 965 l 261 965 l 261 308 q 265 153 261 231 q 286 0 268 75 l 97 0 q 119 153 115 75 q 122 308 122 231 l 122 768 q 119 924 122 846 q 97 1076 115 1001 l 392 1076 z "},"£":{"ha":814,"x_min":14,"x_max":765,"o":"m 14 0 q 107 131 64 64 q 176 274 150 199 q 203 435 203 349 l 201 458 q 120 454 157 457 q 32 440 83 451 l 32 588 q 103 576 72 579 q 167 571 135 572 q 131 642 150 606 q 97 722 111 678 q 82 825 83 767 q 124 963 81 903 q 246 1059 167 1024 q 429 1094 325 1094 q 565 1077 508 1094 q 657 1035 621 1060 q 712 991 693 1011 q 735 965 731 971 l 658 815 l 654 815 q 616 893 644 854 q 541 958 588 932 q 426 983 494 983 q 283 939 339 983 q 226 821 226 894 q 242 732 226 774 q 278 651 257 690 q 315 569 299 611 l 376 569 q 465 570 429 569 q 535 575 501 571 q 615 588 569 579 l 615 440 q 535 453 569 450 q 465 458 501 457 q 376 458 429 458 l 346 458 l 347 435 q 315 259 347 342 q 232 111 283 176 l 464 111 q 593 116 540 111 q 687 133 646 121 q 765 164 728 144 l 732 0 l 14 0 z "},"₩":{"ha":1746,"x_min":35,"x_max":1711,"o":"m 1153 0 l 872 833 l 593 0 l 454 0 l 324 389 l 274 389 q 185 388 222 389 q 115 384 149 388 q 35 371 81 381 l 35 504 q 115 492 81 496 q 185 487 149 488 q 274 486 222 486 l 292 486 l 240 638 q 138 635 181 638 q 35 619 96 632 l 35 753 q 124 740 88 743 q 207 735 161 736 l 189 789 q 134 935 161 867 q 63 1076 107 1003 l 264 1076 q 284 969 272 1032 q 325 818 296 906 l 526 217 l 815 1076 l 931 1076 l 1219 217 l 1421 819 q 1462 969 1450 906 q 1482 1076 1474 1032 l 1683 1076 q 1612 935 1639 1003 q 1557 789 1585 867 l 1539 735 q 1622 740 1585 736 q 1711 753 1660 743 l 1711 619 q 1609 635 1651 632 q 1506 638 1567 638 l 1454 486 l 1472 486 q 1561 487 1525 486 q 1631 492 1597 488 q 1711 504 1665 496 l 1711 371 q 1631 384 1665 381 q 1561 388 1597 388 q 1472 389 1525 389 l 1422 389 l 1292 0 l 1153 0 z "},"¥":{"ha":1007,"x_min":28,"x_max":979,"o":"m 135 363 q 215 350 181 354 q 285 345 249 346 q 374 344 322 344 l 432 344 l 432 496 l 374 496 q 285 495 322 496 q 215 491 249 494 q 135 478 181 488 l 135 611 q 215 599 181 603 q 285 594 249 594 q 374 593 322 593 l 385 593 l 206 858 q 122 971 164 917 q 28 1076 79 1025 l 243 1076 q 298 974 263 1031 q 397 821 333 917 l 508 661 l 615 819 q 688 933 661 888 q 733 1011 715 978 q 764 1076 750 1044 l 979 1076 q 884 968 928 1024 q 799 854 840 913 l 622 593 l 632 593 q 721 594 685 593 q 791 599 757 594 q 871 611 825 603 l 871 478 q 791 491 825 488 q 721 495 757 494 q 632 496 685 496 l 571 496 l 571 344 l 632 344 q 721 345 685 344 q 791 350 757 346 q 871 363 825 354 l 871 229 q 791 242 825 239 q 721 247 757 246 q 632 247 685 247 l 571 247 q 577 123 572 185 q 596 0 582 61 l 407 0 q 426 123 422 61 q 432 247 431 185 l 374 247 q 285 247 322 247 q 215 242 249 246 q 135 229 181 239 l 135 363 z "},"+":{"ha":819,"x_min":28,"x_max":792,"o":"m 336 0 q 349 80 346 46 q 353 151 353 114 q 354 239 354 188 l 354 326 l 267 326 q 178 326 215 326 q 108 322 142 325 q 28 308 74 318 l 28 456 q 108 443 74 447 q 178 438 142 439 q 267 438 215 438 l 354 438 l 354 525 q 353 614 354 578 q 349 684 353 650 q 336 764 346 718 l 483 764 q 471 684 475 718 q 466 614 467 650 q 465 525 465 578 l 465 438 l 553 438 q 642 438 606 438 q 712 443 678 439 q 792 456 746 447 l 792 308 q 712 322 746 318 q 642 326 678 325 q 553 326 606 326 l 465 326 l 465 239 q 466 151 465 188 q 471 80 467 114 q 483 0 475 46 l 336 0 z "},"−":{"ha":847,"x_min":42,"x_max":806,"o":"m 42 456 q 122 443 88 447 q 192 438 156 439 q 281 438 229 438 l 567 438 q 656 438 619 438 q 726 443 692 439 q 806 456 760 447 l 806 308 q 726 322 760 318 q 656 326 692 325 q 567 326 619 326 l 281 326 q 192 326 229 326 q 122 322 156 325 q 42 308 88 318 l 42 456 z "},"×":{"ha":728,"x_min":42,"x_max":686,"o":"m 42 164 q 154 251 110 208 l 285 382 l 154 513 q 42 600 110 556 l 146 704 q 233 592 190 636 l 364 461 l 494 592 q 582 704 538 636 l 686 600 q 574 513 618 556 l 443 382 l 574 251 q 686 164 618 208 l 582 60 q 494 172 538 128 l 364 303 l 233 172 q 146 60 190 128 l 42 164 z "},"÷":{"ha":833,"x_min":28,"x_max":792,"o":"m 410 704 l 503 611 l 410 518 l 317 611 l 410 704 m 28 456 q 108 443 74 447 q 178 438 142 439 q 267 438 215 438 l 553 438 q 642 438 606 438 q 712 443 678 439 q 792 456 746 447 l 792 308 q 712 322 746 318 q 642 326 678 325 q 553 326 606 326 l 267 326 q 178 326 215 326 q 108 322 142 325 q 28 308 74 318 l 28 456 m 410 243 l 503 150 l 410 57 l 317 150 l 410 243 z "},"=":{"ha":847,"x_min":42,"x_max":806,"o":"m 42 631 q 122 618 88 622 q 192 613 156 614 q 281 613 229 613 l 567 613 q 656 613 619 613 q 726 618 692 614 q 806 631 760 622 l 806 483 q 726 497 760 493 q 656 501 692 500 q 567 501 619 501 l 281 501 q 192 501 229 501 q 122 497 156 500 q 42 483 88 493 l 42 631 m 42 281 q 122 268 88 272 q 192 263 156 264 q 281 263 229 263 l 567 263 q 656 263 619 263 q 726 268 692 264 q 806 281 760 272 l 806 133 q 726 147 760 143 q 656 151 692 150 q 567 151 619 151 l 281 151 q 192 151 229 151 q 122 147 156 150 q 42 133 88 143 l 42 281 z "},"≠":{"ha":847,"x_min":42,"x_max":806,"o":"m 42 631 q 122 618 88 622 q 192 613 156 614 q 281 613 229 613 l 501 613 q 544 698 528 663 q 568 764 561 733 l 746 764 q 700 703 728 740 q 638 613 672 665 q 718 617 682 614 q 806 631 754 621 l 806 483 q 727 497 761 493 q 657 501 693 500 q 569 501 621 501 l 556 476 l 435 263 l 567 263 q 656 263 619 263 q 726 268 692 264 q 806 281 760 272 l 806 133 q 726 147 760 143 q 656 151 692 150 q 567 151 619 151 l 374 151 q 333 67 347 104 q 311 0 318 29 l 133 0 q 180 62 153 24 q 242 151 207 100 q 142 148 183 151 q 42 133 101 144 l 42 281 q 122 268 88 272 q 192 263 156 264 q 281 263 229 263 l 308 263 l 444 501 l 281 501 q 192 501 229 501 q 122 497 156 500 q 42 483 88 493 l 42 631 z "},">":{"ha":789,"x_min":56,"x_max":747,"o":"m 56 650 l 56 779 l 747 451 l 747 326 l 57 -7 l 57 124 l 619 388 l 56 650 z "},"<":{"ha":789,"x_min":42,"x_max":733,"o":"m 733 650 l 169 388 l 732 124 l 732 -7 l 42 326 l 42 451 l 733 779 l 733 650 z "},"≥":{"ha":775,"x_min":42,"x_max":733,"o":"m 42 646 l 42 779 l 733 521 l 733 396 l 43 132 l 43 267 l 601 457 l 42 646 m 43 0 l 43 111 l 733 111 l 733 0 l 43 0 z "},"≤":{"ha":775,"x_min":42,"x_max":733,"o":"m 733 646 l 174 457 l 732 267 l 732 132 l 42 396 l 42 521 l 733 779 l 733 646 m 732 0 l 42 0 l 42 111 l 732 111 l 732 0 z "},"±":{"ha":847,"x_min":42,"x_max":806,"o":"m 350 222 q 363 297 358 265 q 367 362 367 329 q 368 438 368 394 l 281 438 q 192 437 229 438 q 122 433 156 436 q 42 419 88 429 l 42 567 q 122 554 88 558 q 192 549 156 550 q 281 549 229 549 l 368 549 q 367 625 368 593 q 363 690 367 657 q 350 764 358 722 l 497 764 q 485 690 489 722 q 481 625 482 657 q 479 549 479 593 l 567 549 q 656 549 619 549 q 726 554 692 550 q 806 567 760 558 l 806 419 q 726 433 760 429 q 656 437 692 436 q 567 438 619 438 l 479 438 q 481 362 479 394 q 485 297 482 329 q 497 222 489 265 l 350 222 m 42 129 q 122 117 88 121 q 192 112 156 113 q 281 111 229 111 l 567 111 q 656 112 619 111 q 726 117 692 113 q 806 129 760 121 l 806 -18 q 726 -5 760 -8 q 656 -1 692 -1 q 567 0 619 0 l 281 0 q 192 -1 229 0 q 122 -5 156 -1 q 42 -18 88 -8 l 42 129 z "},"≈":{"ha":721,"x_min":42,"x_max":679,"o":"m 561 571 l 679 571 q 642 413 679 476 q 515 349 604 349 q 419 369 460 349 q 348 418 379 390 q 285 467 317 446 q 214 488 254 488 q 173 461 186 488 q 160 376 160 435 l 42 376 q 79 535 42 471 q 206 599 117 599 q 302 578 263 599 q 373 529 342 557 q 436 481 404 501 q 507 460 468 460 q 548 486 535 460 q 561 571 561 513 m 561 276 l 679 276 q 642 118 679 182 q 515 54 604 54 q 419 75 460 54 q 348 124 379 96 q 285 172 317 151 q 214 193 254 193 q 173 167 186 193 q 160 82 160 140 l 42 82 q 79 240 42 176 q 206 304 117 304 q 302 283 263 304 q 373 235 342 263 q 436 186 404 207 q 507 165 468 165 q 548 192 535 165 q 561 276 561 218 z "},"~":{"ha":693,"x_min":28,"x_max":665,"o":"m 547 571 l 665 571 q 628 413 665 476 q 501 349 590 349 q 406 369 446 349 q 334 418 365 390 q 272 467 303 446 q 200 488 240 488 q 159 461 172 488 q 146 376 146 435 l 28 376 q 65 535 28 471 q 192 599 103 599 q 288 578 249 599 q 359 529 328 557 q 422 481 390 501 q 493 460 454 460 q 534 486 521 460 q 547 571 547 513 z "},"¬":{"ha":721,"x_min":35,"x_max":679,"o":"m 661 364 l 661 239 q 662 151 661 188 q 667 80 663 114 q 679 0 671 46 l 532 0 q 545 80 542 46 q 549 151 549 114 q 550 239 550 188 l 550 253 l 249 253 q 121 244 168 253 q 35 214 74 235 l 58 364 l 661 364 z "},"^":{"ha":583,"x_min":42,"x_max":542,"o":"m 172 689 l 42 689 l 229 1076 l 354 1076 l 542 689 l 411 689 l 293 949 l 172 689 z "},"∞":{"ha":1132,"x_min":42,"x_max":1090,"o":"m 42 382 q 77 525 42 463 q 175 624 113 588 q 319 660 238 660 q 474 614 410 660 q 569 494 538 568 q 660 611 603 563 q 814 660 718 660 q 959 624 897 660 q 1056 525 1021 588 q 1090 382 1090 463 q 1056 240 1090 303 q 959 142 1021 178 q 814 106 897 106 q 658 149 721 106 q 564 271 594 192 q 466 152 528 199 q 319 106 404 106 q 175 142 238 106 q 77 240 113 178 q 42 382 42 303 m 156 381 q 171 295 156 336 q 222 228 186 254 q 319 203 258 203 q 444 253 397 203 q 525 388 490 303 q 482 468 511 428 q 411 535 453 508 q 319 563 369 563 q 222 536 257 563 q 171 468 186 510 q 156 381 156 426 m 614 388 q 653 303 626 346 q 719 232 679 261 q 814 203 760 203 q 912 228 876 203 q 962 295 947 254 q 976 381 976 336 q 962 468 976 426 q 912 536 947 510 q 814 563 876 563 q 694 514 740 563 q 614 388 649 465 z "},"∫":{"ha":751,"x_min":49,"x_max":703,"o":"m 219 -185 q 139 -165 174 -185 q 81 -116 104 -144 q 49 -65 58 -87 l 68 89 l 74 89 q 85 45 76 72 q 110 -9 93 18 q 154 -55 128 -36 q 219 -74 181 -74 q 294 -33 272 -74 q 317 72 317 7 l 315 953 q 380 1128 315 1071 q 542 1186 444 1186 q 624 1172 593 1186 q 672 1140 654 1158 q 703 1107 690 1122 l 686 967 l 681 967 q 626 1047 658 1018 q 540 1075 593 1075 q 463 1043 492 1075 q 435 953 435 1011 q 435 731 435 835 q 436 527 436 628 q 437 315 436 426 q 438 68 438 204 q 376 -117 438 -50 q 219 -185 314 -185 z "},"∏":{"ha":904,"x_min":97,"x_max":807,"o":"m 122 308 l 122 768 q 119 924 122 846 q 97 1076 115 1001 l 807 1076 q 785 924 789 1001 q 782 768 782 846 l 782 308 q 785 153 782 231 q 807 0 789 75 l 625 0 q 647 153 643 75 q 650 308 650 231 l 650 965 l 254 965 l 254 308 q 258 153 254 231 q 279 0 261 75 l 97 0 q 119 153 115 75 q 122 308 122 231 z "},"∑":{"ha":944,"x_min":83,"x_max":861,"o":"m 828 1076 l 861 913 q 783 944 824 932 q 689 960 742 956 q 560 965 636 965 l 274 965 l 547 540 l 501 467 l 489 446 l 468 414 l 274 111 l 560 111 q 689 116 636 111 q 783 133 742 121 q 861 164 824 144 l 828 0 l 83 0 l 83 64 l 389 538 l 83 1013 l 83 1076 l 828 1076 z "},"√":{"ha":1004,"x_min":21,"x_max":976,"o":"m 950 1076 l 976 931 q 906 956 954 946 q 778 965 858 965 l 743 965 l 444 0 l 319 0 l 144 486 q 100 608 119 558 q 63 694 81 657 q 21 764 44 731 l 207 764 q 220 694 213 731 q 241 612 228 658 q 276 497 254 565 l 383 178 l 643 1076 l 950 1076 z "},"∂":{"ha":871,"x_min":43,"x_max":819,"o":"m 381 -19 q 218 13 283 -19 q 115 99 153 46 q 60 216 76 153 q 43 339 43 279 q 97 547 43 460 q 240 681 151 633 q 432 728 328 728 q 563 703 510 728 q 648 642 615 679 q 696 565 681 606 q 652 785 696 690 q 526 932 608 879 q 329 985 444 985 l 329 1096 q 555 1052 461 1096 q 707 931 649 1008 q 792 749 765 853 q 819 525 819 644 q 787 307 819 407 q 695 134 754 207 q 556 21 636 61 q 381 -19 476 -19 m 179 339 q 231 163 179 233 q 381 92 283 92 q 501 119 440 92 q 603 203 563 146 q 644 353 644 261 q 584 555 644 493 q 426 617 524 617 q 306 585 363 617 q 214 493 249 554 q 179 339 179 432 z "},"%":{"ha":1039,"x_min":42,"x_max":997,"o":"m 260 608 q 144 640 193 608 q 69 728 96 672 q 42 851 42 783 q 69 976 42 921 q 144 1063 96 1031 q 260 1096 193 1096 q 376 1063 328 1096 q 452 976 425 1031 q 479 851 479 921 q 452 728 479 783 q 376 640 425 672 q 260 608 328 608 m 910 1076 q 833 969 881 1039 q 719 789 786 900 l 385 197 q 328 83 350 131 q 297 0 306 36 l 119 0 q 192 100 147 35 q 293 260 238 165 l 614 824 q 692 977 663 921 q 732 1076 722 1033 l 910 1076 m 260 704 q 341 744 314 704 q 368 851 368 783 q 341 960 368 919 q 260 1001 314 1001 q 178 960 204 1001 q 153 851 153 919 q 178 744 153 783 q 260 704 204 704 m 778 -19 q 663 13 711 -19 q 587 100 614 44 q 560 224 560 156 q 587 348 560 293 q 663 435 614 403 q 778 468 711 468 q 894 435 846 468 q 970 348 943 403 q 997 224 997 293 q 970 100 997 156 q 894 13 943 44 q 778 -19 846 -19 m 778 76 q 859 116 832 76 q 886 224 886 156 q 859 333 886 292 q 778 374 832 374 q 697 333 722 374 q 671 224 671 292 q 697 116 671 156 q 778 76 722 76 z "},"‰":{"ha":1528,"x_min":42,"x_max":1486,"o":"m 260 608 q 144 640 193 608 q 69 728 96 672 q 42 851 42 783 q 69 976 42 921 q 144 1063 96 1031 q 260 1096 193 1096 q 376 1063 328 1096 q 452 976 425 1031 q 479 851 479 921 q 452 728 479 783 q 376 640 425 672 q 260 608 328 608 m 910 1076 q 833 969 881 1039 q 719 789 786 900 l 385 197 q 328 83 350 131 q 297 0 306 36 l 119 0 q 192 100 147 35 q 293 260 238 165 l 614 824 q 692 977 663 921 q 732 1076 722 1033 l 910 1076 m 260 704 q 341 744 314 704 q 368 851 368 783 q 341 960 368 919 q 260 1001 314 1001 q 178 960 204 1001 q 153 851 153 919 q 178 744 153 783 q 260 704 204 704 m 778 -19 q 663 13 711 -19 q 587 100 614 44 q 560 224 560 156 q 587 348 560 293 q 663 435 614 403 q 778 468 711 468 q 894 435 846 468 q 970 348 943 403 q 997 224 997 293 q 970 100 997 156 q 894 13 943 44 q 778 -19 846 -19 m 1267 -19 q 1151 13 1200 -19 q 1076 100 1103 44 q 1049 224 1049 156 q 1076 348 1049 293 q 1151 435 1103 403 q 1267 468 1200 468 q 1383 435 1335 468 q 1459 348 1432 403 q 1486 224 1486 293 q 1459 100 1486 156 q 1383 13 1432 44 q 1267 -19 1335 -19 m 778 76 q 859 116 832 76 q 886 224 886 156 q 859 333 886 292 q 778 374 832 374 q 697 333 722 374 q 671 224 671 292 q 697 116 671 156 q 778 76 722 76 m 1267 76 q 1348 116 1321 76 q 1375 224 1375 156 q 1348 333 1375 292 q 1267 374 1321 374 q 1185 333 1211 374 q 1160 224 1160 292 q 1185 116 1160 156 q 1267 76 1211 76 z "},"̈":{"ha":0,"x_min":69,"x_max":635,"o":"m 178 1083 l 286 975 l 178 867 l 69 975 l 178 1083 m 526 1083 l 635 975 l 526 867 l 418 975 l 526 1083 z "},"̇":{"ha":0,"x_min":69,"x_max":292,"o":"m 181 854 q 102 887 135 854 q 69 965 69 919 q 102 1044 69 1011 q 181 1076 135 1076 q 259 1044 226 1076 q 292 965 292 1011 q 259 887 292 919 q 181 854 226 854 z "},"̀":{"ha":0,"x_min":89,"x_max":354,"o":"m 257 854 l 89 1076 l 263 1076 l 354 854 l 257 854 z "},"́":{"ha":0,"x_min":90,"x_max":356,"o":"m 188 854 l 90 854 l 182 1076 l 356 1076 l 188 854 z "},"̋":{"ha":0,"x_min":63,"x_max":563,"o":"m 160 854 l 63 854 l 154 1076 l 328 1076 l 160 854 m 394 854 l 297 854 l 389 1076 l 563 1076 l 394 854 z "},"̂":{"ha":0,"x_min":69,"x_max":549,"o":"m 194 854 l 69 854 l 244 1076 l 374 1076 l 549 854 l 424 854 l 310 1019 l 194 854 z "},"̌":{"ha":0,"x_min":69,"x_max":549,"o":"m 194 1076 l 310 911 l 424 1076 l 549 1076 l 374 854 l 244 854 l 69 1076 l 194 1076 z "},"̆":{"ha":0,"x_min":69,"x_max":436,"o":"m 253 854 q 146 888 186 854 q 88 972 106 921 q 69 1076 69 1022 l 153 1076 q 160 1018 153 1049 q 188 966 167 988 q 253 944 210 944 q 318 966 297 944 q 346 1018 339 988 q 353 1076 353 1049 l 436 1076 q 418 972 436 1022 q 360 888 400 921 q 253 854 319 854 z "}}}
